<?xml version="1.0" encoding="UTF-8" standalone="no"?>
<svg width="1642px" height="1278px" viewBox="0 0 1642 1278" version="1.1" xmlns="http://www.w3.org/2000/svg" xmlns:xlink="http://www.w3.org/1999/xlink">
    <!-- Generator: Sketch 3.8.2 (29753) - http://www.bohemiancoding.com/sketch -->
    <title>Artboard 12</title>
    <desc>Created with Sketch.</desc>
    <defs></defs>
    <g id="Page-1" stroke="none" stroke-width="1" fill="none" fill-rule="evenodd">
        <g id="Artboard-12">
            <g id="Group" transform="translate(457.000000, 261.000000)" fill="#481475">
                <polyline id="Path-116" points="497.102417 209.14966 232.195627 57.9183673 305.66168 209.14966 0.536248562 425.807256 257.39931 433.851474 112.612198 752.402494 324.966628 691.26644 420.418872 945.463719 497.102417 730.414966 707.311853 775.998866 654.223245 687.512472 867.650173 687.512472 758.255466 567.921769 931.463751 434.924036 730.906789 427.4161 891.245109 90.6315193 663.339471 238.108844 631.700806 0"></polyline>
            </g>
            <path d="M1111.5,562.717019 L1111.5,527" id="Line" stroke="#FFFFFF" stroke-width="7" stroke-linecap="square"></path>
            <path d="M1139,567.102244 L1154.65731,535" id="Line-Copy-60" stroke="#FFFFFF" stroke-width="7" stroke-linecap="square"></path>
            <path d="M1158,584.477448 L1185.75734,562" id="Line-Copy-61" stroke="#FFFFFF" stroke-width="7" stroke-linecap="square"></path>
            <g id="Group" transform="translate(943.718400, 734.413602) rotate(-10.000000) translate(-943.718400, -734.413602) translate(729.718400, 619.413602)" font-size="130" font-family="NewCicle-Gordita, New Cicle" fill="#FFFFFF" font-weight="bold">
                <text id="APPLAY">
                    <tspan x="0.41" y="90">APPLAY</tspan>
                    <tspan x="74.77" y="205">NOW</tspan>
                </text>
            </g>
        </g>
    </g>
</svg>