<?xml version="1.0" encoding="UTF-8" standalone="no"?>
<svg width="1120px" height="1354px" viewBox="0 0 1120 1354" version="1.1" xmlns="http://www.w3.org/2000/svg" xmlns:xlink="http://www.w3.org/1999/xlink">
    <!-- Generator: Sketch 3.8.2 (29753) - http://www.bohemiancoding.com/sketch -->
    <title>Group 4</title>
    <desc>Created with Sketch.</desc>
    <defs></defs>
    <g id="Page-1" stroke="none" stroke-width="1" fill="none" fill-rule="evenodd">
        <g id="Artboard-1-Copy-6" transform="translate(-217.000000, -46.000000)">
            <g id="Group-4" transform="translate(214.000000, 46.000000)">
                <g id="Group-2" transform="translate(444.000000, 1010.000000)" stroke="#B8E986" stroke-width="3">
                    <path d="M58.3461538,167.5 L66.6538462,167.5" id="Line"></path>
                    <path d="M58.3461538,157.5 L66.6538462,157.5" id="Line-Copy"></path>
                    <path d="M58.3461538,147.5 L66.6538462,147.5" id="Line-Copy-2"></path>
                    <path d="M58.3461538,137.5 L66.6538462,137.5" id="Line-Copy-3"></path>
                    <path d="M58.3461538,127.5 L66.6538462,127.5" id="Line-Copy-4"></path>
                    <path d="M58.3461538,117.5 L66.6538462,117.5" id="Line-Copy-5"></path>
                    <path d="M58.3461538,107.5 L66.6538462,107.5" id="Line-Copy-6"></path>
                    <path d="M58.3461538,98 L66.6538462,98" id="Line-Copy-7"></path>
                    <path d="M58.3461538,88 L66.6538462,88" id="Line-Copy-8"></path>
                    <path d="M58.3461538,78 L66.6538462,78" id="Line-Copy-9"></path>
                    <path d="M58.3461538,68 L66.6538462,68" id="Line-Copy-10"></path>
                    <path d="M39.3461538,167.5 L47.6538462,167.5" id="Line-Copy-24"></path>
                    <path d="M39.3461538,157.5 L47.6538462,157.5" id="Line-Copy-23"></path>
                    <path d="M39.3461538,147.5 L47.6538462,147.5" id="Line-Copy-22"></path>
                    <path d="M39.3461538,137.5 L47.6538462,137.5" id="Line-Copy-21"></path>
                    <path d="M39.3461538,127.5 L47.6538462,127.5" id="Line-Copy-20"></path>
                    <path d="M39.3461538,117.5 L47.6538462,117.5" id="Line-Copy-19"></path>
                    <path d="M39.3461538,107.5 L47.6538462,107.5" id="Line-Copy-18"></path>
                    <path d="M39.3461538,98 L47.6538462,98" id="Line-Copy-17"></path>
                    <path d="M39.3461538,88 L47.6538462,88" id="Line-Copy-16"></path>
                    <path d="M39.3461538,78 L47.6538462,78" id="Line-Copy-15"></path>
                    <path d="M39.3461538,68 L47.6538462,68" id="Line-Copy-14"></path>
                    <path d="M57.4620692,62.8329163 L63.5379308,57.1670837" id="Line-Copy-11"></path>
                    <path d="M52.7623468,63.4837085 L48.2376532,56.5162915" id="Line-Copy-12"></path>
                    <path d="M53.5655879,62.0473833 L55.4344121,53.9526167" id="Line-Copy-13"></path>
                    <path d="M0.346153846,117.5 L8.65384615,117.5" id="Line-Copy-38"></path>
                    <path d="M0.346153846,107.5 L8.65384615,107.5" id="Line-Copy-37"></path>
                    <path d="M0.346153846,97.5 L8.65384615,97.5" id="Line-Copy-36"></path>
                    <path d="M0.346153846,87.5 L8.65384615,87.5" id="Line-Copy-35"></path>
                    <path d="M0.346153846,77.5 L8.65384615,77.5" id="Line-Copy-34"></path>
                    <path d="M0.346153846,67.5 L8.65384615,67.5" id="Line-Copy-33"></path>
                    <path d="M3.34615385,57.5 L11.6538462,57.5" id="Line-Copy-32"></path>
                    <path d="M3.34615385,48 L11.6538462,48" id="Line-Copy-31"></path>
                    <path d="M3.34615385,38 L11.6538462,38" id="Line-Copy-30"></path>
                    <path d="M6.34615385,28 L14.6538462,28" id="Line-Copy-29"></path>
                    <path d="M6.34615385,18 L14.6538462,18" id="Line-Copy-28"></path>
                    <path d="M24.4620692,12.8329163 L30.5379308,7.16708374" id="Line-Copy-27"></path>
                    <path d="M13.7623468,13.4837085 L9.23765324,6.51629149" id="Line-Copy-26"></path>
                    <path d="M20.5655879,9.04738335 L22.4344121,0.952616654" id="Line-Copy-25"></path>
                    <path d="M0.346153846,167.5 L8.65384615,167.5" id="Line-Copy-46"></path>
                    <path d="M0.346153846,158 L8.65384615,158" id="Line-Copy-45"></path>
                    <path d="M0.346153846,148 L8.65384615,148" id="Line-Copy-44"></path>
                    <path d="M0.346153846,138 L8.65384615,138" id="Line-Copy-43"></path>
                    <path d="M0.346153846,128 L8.65384615,128" id="Line-Copy-42"></path>
                </g>
                <polygon id="Path-1" stroke="#B8E986" stroke-width="3" points="105 379 259 385.5 273 1150.5 117 1152.5"></polygon>
                <polygon id="Path-2" stroke="#B8E986" stroke-width="3" points="446 1272 498 1269 516.5 1199.5 436 1199.5"></polygon>
                <path d="M583.5,1198.5 C583.5,1198.5 571.5,1212 581,1234 C590.5,1256 599.5,1262 599.5,1262 L646,1262 C646,1262 661.500006,1246 661.5,1230.5 C661.499994,1215 666,1199.5 666,1199.5 C666,1199.5 646.5,1213 623,1213 C599.5,1213 583.5,1198.5 583.5,1198.5 Z" id="Path-3" stroke="#B8E986" stroke-width="3"></path>
                <path d="M616,1177.5 C616,1177.5 615,1138.5 615,1130.5 C615,1122.5 599.5,1102 599.5,1086.5 C599.5,1071 600.5,1046.5 596.5,1036 C592.5,1025.5 584.5,1005.5 578,974.5 C571.5,943.5 567,904.5 567,899.5 C567,894.5 575,893.5 575,893.5 L583.5,901.5 C583.5,901.5 597.999999,952.5 598,963.5 C598.000001,974.5 604,1002 604,1002 C604,1002 609.999999,1028 610,1037.5 C610.000001,1047 622.499999,1075 622.5,1088 C622.500001,1101 623,1177.5 623,1177.5 L616,1177.5 Z" id="Path-4" stroke="#B8E986" stroke-width="3"></path>
                <path d="M563.499999,887.5 C563.499999,882.5 541,872.5 534,889 C527,905.5 526.5,917.999998 522.5,918 C518.5,918.000002 522.5,878.5 522.5,878.5 C522.5,878.5 539.461177,870.69359 550.69529,875 C561.929403,879.30641 565.5,887.5 565.5,887.5 C565.5,887.5 563.499999,892.5 563.499999,887.5 Z" id="Path-4-Copy-2" stroke="#B8E986" stroke-width="3"></path>
                <path d="M761,1189.5 C761,1189.50002 764.5,1185.5 764.5,1185.5 L760.5,1181.5 L767,1177.5 L764.5,1174.5 L770.5,1166.5 L768.5,1162.5 L777,1157 L777,1149 L786.5,1146 L786.5,1138 L792,1131.5 L799,1128 L798,1122.5 L808,1119 L806,1110.5 L816,1106 L816,1098.5 L824,1098.5 L824,1079 L830,1079.5 L831.5,1067.5 L838,1067.5 L840,1057 L845.5,1055.5 L851,1052 L866,1041.5" id="Path-5" stroke="#B8E986" stroke-width="3"></path>
                <polyline id="Path-6" stroke="#B8E986" stroke-width="3" points="760 1172.5 760.5 1114 776 1052 773.5 1045 783.5 1045 778 1037.5 787 1036 779.5 1024 787.5 1020 787.5 1004 794.5 1003 794.5 982 802 975.5 802 966.5 815 965.5 813 945.5 822 947.5 825 939.5 835 939.5 837 926.5 846 930.5 847.5 910.5 863 919 874.5 906 879.5 909 886.5 902.5 911 900.5 914 894.5 921 897 927.5 888 936.5 892 947 888.5 949 892.5 962 890.5 967 895 974.5 891.5 977.5 895.5 1021.5 897.5 1052.5 884 1053.5 868.5"></polyline>
                <path d="M1064.5,849 C1064.5,849 1079,879.5 1083.5,879.5 C1088,879.5 1093.11071,870.5 1085,861.5 C1076.88929,852.5 1064.5,849 1064.5,849 Z" id="Path-7" stroke="#B8E986" stroke-width="3"></path>
                <path d="M924.5,1004 C924.5,1004 949.5,1032 954,1032 C958.5,1032 953.110708,1025.5 945,1016.5 C936.889292,1007.5 924.5,1004 924.5,1004 Z" id="Path-7-Copy" stroke="#B8E986" stroke-width="3"></path>
                <path d="M843.367243,1014 C843.367243,1014 868.367243,1032.58852 872.867243,1032.58852 C877.367243,1032.58852 871.977951,1028.27333 863.867243,1022.29845 C855.756535,1016.32356 843.367243,1014 843.367243,1014 Z" id="Path-7-Copy-6" stroke="#B8E986" stroke-width="3" transform="translate(858.933622, 1023.294259) scale(-1, 1) rotate(-24.000000) translate(-858.933622, -1023.294259) "></path>
                <path d="M914.5,1014 C914.5,1014 924,1047 928.5,1047 C933,1047 943.110708,1035.5 935,1026.5 C926.889292,1017.5 914.5,1014 914.5,1014 Z" id="Path-7-Copy-2" stroke="#B8E986" stroke-width="3"></path>
                <path d="M894.5,1024 C894.5,1024 919.5,1052 924,1052 C928.5,1052 923.110708,1045.5 915,1036.5 C906.889292,1027.5 894.5,1024 894.5,1024 Z" id="Path-7-Copy-3" stroke="#B8E986" stroke-width="3"></path>
                <path d="M884.5,1034 C884.5,1034 897.5,1066 902,1066 C906.5,1066 907.897219,1043 899.78651,1034 C891.675802,1025 884.5,1034 884.5,1034 Z" id="Path-7-Copy-4" stroke="#B8E986" stroke-width="3"></path>
                <path d="M878.910993,1035 C878.910993,1035 864,1081 868.5,1081 C873,1081 899.110708,1067 891,1058 C882.889291,1049 878.910993,1035 878.910993,1035 Z" id="Path-7-Copy-5" stroke="#B8E986" stroke-width="3"></path>
                <path d="M1092,820.5 C1092,820.5 1100.5,841 1113,841 C1125.5,841 1124,829.5 1110,825 C1096,820.5 1099.5,822 1099.5,822 L1092,820.5 Z" id="Path-8" stroke="#B8E986" stroke-width="3"></path>
                <path d="M1059,844 C1059,844 1063.5,857 1055,860.5 C1046.5,864 1031,857.5 1045,848.5 C1059,839.5 1059,844 1059,844 Z" id="Path-9" stroke="#B8E986" stroke-width="3"></path>
                <path d="M1079,822 C1079,822 1095,800.5 1085.5,800.5 C1076,800.5 1057.5,798.5 1063.5,814.5 C1069.5,830.5 1073,840 1073,840 C1073,840 1052,836 1054.5,820 C1057,804 1060,806.5 1060,806.5" id="Path-10" stroke="#B8E986" stroke-width="3"></path>
                <circle id="Oval-7" stroke="#B8E986" stroke-width="3" cx="1069.5" cy="779.5" r="4.5"></circle>
                <circle id="Oval-7-Copy" stroke="#B8E986" stroke-width="3" cx="1059.5" cy="789.5" r="4.5"></circle>
                <circle id="Oval-7-Copy-2" stroke="#B8E986" stroke-width="3" cx="1069.5" cy="792.5" r="4.5"></circle>
                <circle id="Oval-7-Copy-3" stroke="#B8E986" stroke-width="3" cx="1067.5" cy="769.5" r="4.5"></circle>
                <circle id="Oval-7-Copy-4" stroke="#B8E986" stroke-width="3" cx="1097.5" cy="769.5" r="4.5"></circle>
                <circle id="Oval-7-Copy-5" stroke="#B8E986" stroke-width="3" cx="1097.5" cy="779.5" r="4.5"></circle>
                <circle id="Oval-7-Copy-6" stroke="#B8E986" stroke-width="3" cx="1097.5" cy="789.5" r="4.5"></circle>
                <circle id="Oval-7-Copy-7" stroke="#B8E986" stroke-width="3" cx="880.5" cy="985.5" r="4.5"></circle>
                <circle id="Oval-7-Copy-8" stroke="#B8E986" stroke-width="3" cx="892.5" cy="985.5" r="4.5"></circle>
                <circle id="Oval-7-Copy-9" stroke="#B8E986" stroke-width="3" cx="886.5" cy="994.5" r="4.5"></circle>
                <circle id="Oval-7-Copy-12" stroke="#B8E986" stroke-width="3" cx="920.5" cy="975.5" r="4.5"></circle>
                <circle id="Oval-7-Copy-11" stroke="#B8E986" stroke-width="3" cx="932.5" cy="975.5" r="4.5"></circle>
                <circle id="Oval-7-Copy-10" stroke="#B8E986" stroke-width="3" cx="926.5" cy="984.5" r="4.5"></circle>
                <path d="M447,1184 L467,1191 C467,1191 468,1119 470,1091.5 C472,1064 476.5,1016 465,1018.5 C453.5,1021 455.5,1031.5 455.5,1037.5 C455.5,1043.5 450,1070.5 452.5,1084.5 C455,1098.5 448,1109.5 448,1121 C448,1132.5 447,1184 447,1184 Z" id="Path-17" stroke="#B8E986" stroke-width="3"></path>
                <g id="Group" transform="translate(464.000000, 1027.000000)" stroke="#B8E986" stroke-width="3">
                    <path d="M0.346153846,100.5 L8.65384615,100.5" id="Line-Copy-59"></path>
                    <path d="M0.346153846,90.5 L8.65384615,90.5" id="Line-Copy-58"></path>
                    <path d="M0.346153846,80.5 L8.65384615,80.5" id="Line-Copy-57"></path>
                    <path d="M0.346153846,70.5 L8.65384615,70.5" id="Line-Copy-56"></path>
                    <path d="M0.346153846,60.5 L8.65384615,60.5" id="Line-Copy-55"></path>
                    <path d="M4.34615385,50.5 L12.6538462,50.5" id="Line-Copy-54"></path>
                    <path d="M4.34615385,40.5 L12.6538462,40.5" id="Line-Copy-53"></path>
                    <path d="M5.34615385,31 L13.6538462,31" id="Line-Copy-52"></path>
                    <path d="M5.34615385,21 L13.6538462,21" id="Line-Copy-41"></path>
                    <path d="M5.34615385,11 L13.6538462,11" id="Line-Copy-40"></path>
                    <path d="M5.34615385,1 L13.6538462,1" id="Line-Copy-39"></path>
                    <path d="M0.346153846,150.5 L8.65384615,150.5" id="Line-Copy-51"></path>
                    <path d="M0.346153846,141 L8.65384615,141" id="Line-Copy-50"></path>
                    <path d="M0.346153846,131 L8.65384615,131" id="Line-Copy-49"></path>
                    <path d="M0.346153846,121 L8.65384615,121" id="Line-Copy-48"></path>
                    <path d="M0.346153846,111 L8.65384615,111" id="Line-Copy-47"></path>
                </g>
                <path d="M497.5,1070 C491,1070.00003 490.515411,1112 492.5,1118 C494.484589,1124 487.5,1131 487.5,1152 C487.5,1173 487.5,1183 487.5,1183 L498,1188 L505.5,1186.5 C505.5,1186.5 503.5,1127.5 503.5,1120 C503.5,1112.5 507,1079 504,1074.5 C501,1070 504,1069.99997 497.5,1070 Z" id="Path-18" stroke="#B8E986" stroke-width="3"></path>
                <polyline id="Path-79" stroke="#B8E986" stroke-width="3" points="100 0.5 102.5 215.5 255.5 224.5 256.5 2.5"></polyline>
                <polyline id="Path-80" stroke="#B8E986" stroke-width="3" points="415.5 2.5 413.5 157 697 172 699.5 0.5"></polyline>
                <polyline id="Path-81" stroke="#B8E986" stroke-width="3" points="848 2.5 841.5 253.5 990.5 259 1000.5 5.5"></polyline>
                <polygon id="Path-82" stroke="#B8E986" stroke-width="3" points="414.5 287 689 294.5 680.5 1103 421 1110"></polygon>
                <polygon id="Path-83" stroke="#B8E986" stroke-width="3" points="839 404.5 974.5 410 956 1130.5 824.5 1131.5"></polygon>
                <path d="M721,1184.5 C721,1184.5 734,1202.5 764,1200.5 C794,1198.5 805,1186.5 805,1186.5 L793,1259.5 L734.5,1258 L721,1184.5 Z" id="Path-84" stroke="#B8E986" stroke-width="3"></path>
                <path d="M574,887.5 C574,887.5 566,883.5 564.5,872.5 C563,861.5 565,847 565,847 L574,887.5 Z" id="Path-171" stroke="#B8E986" stroke-width="3"></path>
                <path d="M578.5,888.5 C578.5,888.5 599,883.5 601.5,889.5 C604,895.5 616,920 616,920 L605,878 L578.5,888.5 Z" id="Path-172" stroke="#B8E986" stroke-width="3"></path>
                <g id="Group" transform="translate(503.000000, 506.000000) rotate(-10.000000) translate(-503.000000, -506.000000) translate(37.000000, 253.000000)" fill="#481475">
                    <text id="POP-UP" font-family="NewCicle-Gordita, New Cicle" font-size="235.923985" font-weight="bold">
                        <tspan x="3.83693077e-13" y="163">POP UP</tspan>
                        <tspan x="3.83693077e-13" y="372">INCUB</tspan>
                        <tspan x="560.319465" y="372" letter-spacing="-10">AT</tspan>
                        <tspan x="816.586452" y="372">E</tspan>
                    </text>
                    <path d="M212.5,110 C221.060414,110 228,103.060414 228,94.5 C228,85.9395864 221.060414,79 212.5,79 C203.939586,79 197,85.9395864 197,94.5 C197,103.060414 203.939586,110 212.5,110 Z" id="Oval-4"></path>
                    <path d="M240.5,310 C249.060414,310 256,303.060414 256,294.5 C256,285.939586 249.060414,279 240.5,279 C231.939586,279 225,285.939586 225,294.5 C225,303.060414 231.939586,310 240.5,310 Z" id="Oval-4-Copy"></path>
                </g>
                <path d="M637.5,177.5 L637.5,127.5" id="Line" stroke="#481475" stroke-width="17" stroke-linecap="square"></path>
                <path d="M696.923886,187.287893 L718.842443,142.348191" id="Line-Copy-60" stroke="#481475" stroke-width="17" stroke-linecap="square"></path>
                <path d="M734.476983,222.41 L773.334281,190.943981" id="Line-Copy-61" stroke="#481475" stroke-width="17" stroke-linecap="square"></path>
                <path d="M3.5,1309 L1101.5,1290.5" id="Path-175" stroke="#B8E986" stroke-width="3"></path>
                <g id="Group-3" transform="translate(153.000000, 1129.000000)" stroke-linecap="square" stroke-width="2" stroke="#481475">
                    <polygon id="Path-97" points="2.37037037 124.390625 1.77777778 101.53125 4.44444444 100.34375 2.66666667 48.09375 5.92592593 47.5 5.03703704 28.796875 7.7037037 25.53125 18.0740741 0 26.0740741 26.125 29.6296296 31.171875 31.1111111 49.578125 30.8148148 54.921875 39.7037037 53.4375 40 31.765625 49.1851852 10.984375 58.0740741 34.4375 56.8888889 42.15625 61.3333333 53.140625 62.5185185 78.078125 62.5185185 86.6875 91.5555556 85.203125 93.9259259 80.15625 97.4814815 85.5 101.333333 78.671875 111.407407 81.34375 111.703704 71.546875 114.962963 58.484375 117.037037 73.625 117.333333 81.640625 149.037037 81.046875 160.592593 97.375 162.37037 92.921875 162.962963 115.78125 176 119.34375 174.222222 120.828125 174.518519 131.515625 175.111111 148.4375 0 151.703125 0 124.09375"></polygon>
                    <path d="M49.1851852,3.265625 L49.1851852,11.578125" id="Line"></path>
                    <path d="M51.5555556,5.046875 L48,5.046875" id="Line-Copy-62"></path>
                </g>
                <text id="DEIN-INKUBATOR-FÜR-D" transform="translate(429.500000, 1337.500000) rotate(-1.000000) translate(-429.500000, -1337.500000) " font-family="NewCicle-Gordita, New Cicle" font-size="38" font-weight="bold" letter-spacing="2.50263429" fill="#B8E986">
                    <tspan x="29" y="1347">DEIN INKUBATOR FÜR DESIGN &amp; TECH &amp; MEDIA</tspan>
                </text>
            </g>
        </g>
    </g>
</svg>