<?xml version="1.0" encoding="utf-8"?>
<!-- Generator: Adobe Illustrator 19.1.0, SVG Export Plug-In . SVG Version: 6.00 Build 0)  -->
<svg version="1.1" id="Ebene_1" xmlns="http://www.w3.org/2000/svg" xmlns:xlink="http://www.w3.org/1999/xlink" x="0px" y="0px"
	 viewBox="-35 166.8 1120 1351" style="enable-background:new -35 166.8 1120 1351;" xml:space="preserve">
<style type="text/css">
	.st0{fill:none;stroke:#B8E986;stroke-width:3;}
	.st1{fill:none;stroke:#481475;stroke-width:2;stroke-linecap:square;}
	.st2{enable-background:new    ;}
	.st3{fill:#B8E986;}
</style>
<g id="Page-1">
	<g id="Artboard-1-Copy-6" transform="translate(-217.000000, -46.000000)">
		<g id="Group-4" transform="translate(214.000000, 46.000000)">
			<g id="Group-2" transform="translate(444.000000, 1010.000000)">
				<path id="Line" class="st0" d="M23.3,334.3h8.3"/>
				<path id="Line-Copy" class="st0" d="M23.3,324.3h8.3"/>
				<path id="Line-Copy-2" class="st0" d="M23.3,314.3h8.3"/>
				<path id="Line-Copy-3" class="st0" d="M23.3,304.3h8.3"/>
				<path id="Line-Copy-4" class="st0" d="M23.3,294.3h8.3"/>
				<path id="Line-Copy-5" class="st0" d="M23.3,284.3h8.3"/>
				<path id="Line-Copy-6" class="st0" d="M23.3,274.3h8.3"/>
				<path id="Line-Copy-7" class="st0" d="M23.3,264.8h8.3"/>
				<path id="Line-Copy-8" class="st0" d="M23.3,254.8h8.3"/>
				<path id="Line-Copy-9" class="st0" d="M23.3,244.8h8.3"/>
				<path id="Line-Copy-10" class="st0" d="M23.3,234.8h8.3"/>
				<path id="Line-Copy-24" class="st0" d="M4.3,334.3h8.3"/>
				<path id="Line-Copy-23" class="st0" d="M4.3,324.3h8.3"/>
				<path id="Line-Copy-22" class="st0" d="M4.3,314.3h8.3"/>
				<path id="Line-Copy-21" class="st0" d="M4.3,304.3h8.3"/>
				<path id="Line-Copy-20" class="st0" d="M4.3,294.3h8.3"/>
				<path id="Line-Copy-19" class="st0" d="M4.3,284.3h8.3"/>
				<path id="Line-Copy-18" class="st0" d="M4.3,274.3h8.3"/>
				<path id="Line-Copy-17" class="st0" d="M4.3,264.8h8.3"/>
				<path id="Line-Copy-16" class="st0" d="M4.3,254.8h8.3"/>
				<path id="Line-Copy-15" class="st0" d="M4.3,244.8h8.3"/>
				<path id="Line-Copy-14" class="st0" d="M4.3,234.8h8.3"/>
				<path id="Line-Copy-11" class="st0" d="M22.5,229.6l6.1-5.7"/>
				<path id="Line-Copy-12" class="st0" d="M17.8,230.3l-4.5-7"/>
				<path id="Line-Copy-13" class="st0" d="M18.6,228.8l1.9-8.1"/>
				<path id="Line-Copy-38" class="st0" d="M-34.7,284.3h8.3"/>
				<path id="Line-Copy-37" class="st0" d="M-34.7,274.3h8.3"/>
				<path id="Line-Copy-36" class="st0" d="M-34.7,264.3h8.3"/>
				<path id="Line-Copy-35" class="st0" d="M-34.7,254.3h8.3"/>
				<path id="Line-Copy-34" class="st0" d="M-34.7,244.3h8.3"/>
				<path id="Line-Copy-33" class="st0" d="M-34.7,234.3h8.3"/>
				<path id="Line-Copy-32" class="st0" d="M-31.7,224.3h8.3"/>
				<path id="Line-Copy-31" class="st0" d="M-31.7,214.8h8.3"/>
				<path id="Line-Copy-30" class="st0" d="M-31.7,204.8h8.3"/>
				<path id="Line-Copy-29" class="st0" d="M-28.7,194.8h8.3"/>
				<path id="Line-Copy-28" class="st0" d="M-28.7,184.8h8.3"/>
				<path id="Line-Copy-27" class="st0" d="M-10.5,179.6l6.1-5.7"/>
				<path id="Line-Copy-26" class="st0" d="M-21.2,180.3l-4.5-7"/>
				<path id="Line-Copy-25" class="st0" d="M-14.4,175.8l1.9-8.1"/>
				<path id="Line-Copy-46" class="st0" d="M-34.7,334.3h8.3"/>
				<path id="Line-Copy-45" class="st0" d="M-34.7,324.8h8.3"/>
				<path id="Line-Copy-44" class="st0" d="M-34.7,314.8h8.3"/>
				<path id="Line-Copy-43" class="st0" d="M-34.7,304.8h8.3"/>
				<path id="Line-Copy-42" class="st0" d="M-34.7,294.8h8.3"/>
			</g>
			<polygon id="Path-1" class="st0" points="70,545.8 224,552.3 238,1317.3 82,1319.3 			"/>
			<polygon id="Path-2" class="st0" points="411,1438.8 463,1435.8 481.5,1366.3 401,1366.3 			"/>
			<path id="Path-3" class="st0" d="M548.5,1365.3c0,0-12,13.5-2.5,35.5s18.5,28,18.5,28H611c0,0,15.5-16,15.5-31.5s4.5-31,4.5-31
				s-19.5,13.5-43,13.5S548.5,1365.3,548.5,1365.3z"/>
			<path id="Path-4" class="st0" d="M581,1344.3c0,0-1-39-1-47s-15.5-28.5-15.5-44s1-40-3-50.5s-12-30.5-18.5-61.5s-11-70-11-75
				s8-6,8-6l8.5,8c0,0,14.5,51,14.5,62s6,38.5,6,38.5s6,26,6,35.5s12.5,37.5,12.5,50.5s0.5,89.5,0.5,89.5H581z"/>
			<path id="Path-4-Copy-2" class="st0" d="M528.5,1054.3c0-5-22.5-15-29.5,1.5s-7.5,29-11.5,29s0-39.5,0-39.5s17-7.8,28.2-3.5
				c11.2,4.3,14.8,12.5,14.8,12.5S528.5,1059.3,528.5,1054.3z"/>
			<path id="Path-5" class="st0" d="M726,1356.3l3.5-4l-4-4l6.5-4l-2.5-3l6-8l-2-4l8.5-5.5v-8l9.5-3v-8l5.5-6.5l7-3.5l-1-5.5l10-3.5
				l-2-8.5l10-4.5v-7.5h8v-19.5l6,0.5l1.5-12h6.5l2-10.5l5.5-1.5l5.5-3.5l15-10.5"/>
			<polyline id="Path-6" class="st0" points="725,1339.3 725.5,1280.8 741,1218.8 738.5,1211.8 748.5,1211.8 743,1204.3 752,1202.8 
				744.5,1190.8 752.5,1186.8 752.5,1170.8 759.5,1169.8 759.5,1148.8 767,1142.3 767,1133.3 780,1132.3 778,1112.3 787,1114.3 
				790,1106.3 800,1106.3 802,1093.3 811,1097.3 812.5,1077.3 828,1085.8 839.5,1072.8 844.5,1075.8 851.5,1069.3 876,1067.3 
				879,1061.3 886,1063.8 892.5,1054.8 901.5,1058.8 912,1055.3 914,1059.3 927,1057.3 932,1061.8 939.5,1058.3 942.5,1062.3 
				986.5,1064.3 1017.5,1050.8 1018.5,1035.3 			"/>
			<path id="Path-7" class="st0" d="M1029.5,1015.8c0,0,14.5,30.5,19,30.5s9.6-9,1.5-18S1029.5,1015.8,1029.5,1015.8z"/>
			<path id="Path-7-Copy" class="st0" d="M889.5,1170.8c0,0,25,28,29.5,28s-0.9-6.5-9-15.5S889.5,1170.8,889.5,1170.8z"/>
			<path id="Path-7-Copy-6" class="st0" d="M841.9,1187.9c0,0-30.4,6.8-34.5,5s2.6-3.6,12.4-5.7
				C829.7,1185,841.9,1187.9,841.9,1187.9z"/>
			<path id="Path-7-Copy-2" class="st0" d="M879.5,1180.8c0,0,9.5,33,14,33s14.6-11.5,6.5-20.5S879.5,1180.8,879.5,1180.8z"/>
			<path id="Path-7-Copy-3" class="st0" d="M859.5,1190.8c0,0,25,28,29.5,28s-0.9-6.5-9-15.5S859.5,1190.8,859.5,1190.8z"/>
			<path id="Path-7-Copy-4" class="st0" d="M849.5,1200.8c0,0,13,32,17.5,32s5.9-23-2.2-32S849.5,1200.8,849.5,1200.8z"/>
			<path id="Path-7-Copy-5" class="st0" d="M843.9,1201.8c0,0-14.9,46-10.4,46s30.6-14,22.5-23S843.9,1201.8,843.9,1201.8z"/>
			<path id="Path-8" class="st0" d="M1057,987.3c0,0,8.5,20.5,21,20.5s11-11.5-3-16s-10.5-3-10.5-3L1057,987.3z"/>
			<path id="Path-9" class="st0" d="M1024,1010.8c0,0,4.5,13-4,16.5s-24-3-10-12S1024,1010.8,1024,1010.8z"/>
			<path id="Path-10" class="st0" d="M1044,988.8c0,0,16-21.5,6.5-21.5s-28-2-22,14s9.5,25.5,9.5,25.5s-21-4-18.5-20
				s5.5-13.5,5.5-13.5"/>
			<circle id="Oval-7" class="st0" cx="1034.5" cy="946.3" r="4.5"/>
			<circle id="Oval-7-Copy" class="st0" cx="1024.5" cy="956.3" r="4.5"/>
			<circle id="Oval-7-Copy-2" class="st0" cx="1034.5" cy="959.3" r="4.5"/>
			<circle id="Oval-7-Copy-3" class="st0" cx="1032.5" cy="936.3" r="4.5"/>
			<circle id="Oval-7-Copy-4" class="st0" cx="1062.5" cy="936.3" r="4.5"/>
			<circle id="Oval-7-Copy-5" class="st0" cx="1062.5" cy="946.3" r="4.5"/>
			<circle id="Oval-7-Copy-6" class="st0" cx="1062.5" cy="956.3" r="4.5"/>
			<circle id="Oval-7-Copy-7" class="st0" cx="845.5" cy="1152.3" r="4.5"/>
			<circle id="Oval-7-Copy-8" class="st0" cx="857.5" cy="1152.3" r="4.5"/>
			<circle id="Oval-7-Copy-9" class="st0" cx="851.5" cy="1161.3" r="4.5"/>
			<circle id="Oval-7-Copy-12" class="st0" cx="885.5" cy="1142.3" r="4.5"/>
			<circle id="Oval-7-Copy-11" class="st0" cx="897.5" cy="1142.3" r="4.5"/>
			<circle id="Oval-7-Copy-10" class="st0" cx="891.5" cy="1151.3" r="4.5"/>
			<path id="Path-17" class="st0" d="M412,1350.8l20,7c0,0,1-72,3-99.5s6.5-75.5-5-73s-9.5,13-9.5,19s-5.5,33-3,47s-4.5,25-4.5,36.5
				S412,1350.8,412,1350.8z"/>
			<g id="Group" transform="translate(464.000000, 1027.000000)">
				<path id="Line-Copy-59" class="st0" d="M-34.7,267.3h8.3"/>
				<path id="Line-Copy-58" class="st0" d="M-34.7,257.3h8.3"/>
				<path id="Line-Copy-57" class="st0" d="M-34.7,247.3h8.3"/>
				<path id="Line-Copy-56" class="st0" d="M-34.7,237.3h8.3"/>
				<path id="Line-Copy-55" class="st0" d="M-34.7,227.3h8.3"/>
				<path id="Line-Copy-54" class="st0" d="M-30.7,217.3h8.3"/>
				<path id="Line-Copy-53" class="st0" d="M-30.7,207.3h8.3"/>
				<path id="Line-Copy-52" class="st0" d="M-29.7,197.8h8.3"/>
				<path id="Line-Copy-41" class="st0" d="M-29.7,187.8h8.3"/>
				<path id="Line-Copy-40" class="st0" d="M-29.7,177.8h8.3"/>
				<path id="Line-Copy-39" class="st0" d="M-29.7,167.8h8.3"/>
				<path id="Line-Copy-51" class="st0" d="M-34.7,317.3h8.3"/>
				<path id="Line-Copy-50" class="st0" d="M-34.7,307.8h8.3"/>
				<path id="Line-Copy-49" class="st0" d="M-34.7,297.8h8.3"/>
				<path id="Line-Copy-48" class="st0" d="M-34.7,287.8h8.3"/>
				<path id="Line-Copy-47" class="st0" d="M-34.7,277.8h8.3"/>
			</g>
			<path id="Path-18" class="st0" d="M462.5,1236.8c-6.5,0-7,42-5,48s-5,13-5,34s0,31,0,31l10.5,5l7.5-1.5c0,0-2-59-2-66.5
				s3.5-41,0.5-45.5S469,1236.8,462.5,1236.8z"/>
			<polyline id="Path-79" class="st0" points="65,167.3 67.5,382.3 220.5,391.3 221.5,169.3 			"/>
			<polyline id="Path-80" class="st0" points="380.5,169.3 378.5,323.8 662,338.8 664.5,167.3 			"/>
			<polyline id="Path-81" class="st0" points="813,169.3 806.5,420.3 955.5,425.8 965.5,172.3 			"/>
			<polygon id="Path-82" class="st0" points="379.5,453.8 654,461.3 645.5,1269.8 386,1276.8 			"/>
			<polygon id="Path-83" class="st0" points="804,571.3 939.5,576.8 921,1297.3 789.5,1298.3 			"/>
			<path id="Path-84" class="st0" d="M686,1351.3c0,0,13,18,43,16s41-14,41-14l-12,73l-58.5-1.5L686,1351.3z"/>
			<path id="Path-171" class="st0" d="M539,1054.3c0,0-8-4-9.5-15s0.5-25.5,0.5-25.5L539,1054.3z"/>
			<path id="Path-172" class="st0" d="M543.5,1055.3c0,0,20.5-5,23,1s14.5,30.5,14.5,30.5l-11-42L543.5,1055.3z"/>
			<path id="Path-175" class="st0" d="M-31.5,1475.8l1098-18.5"/>
			<g id="Group-3" transform="translate(153.000000, 1129.000000)">
				<polygon id="Path-97" class="st1" points="-32.6,291.2 -33.2,268.3 -30.6,267.1 -32.3,214.9 -29.1,214.3 -30,195.6 -27.3,192.3 
					-16.9,166.8 -8.9,192.9 -5.4,198 -3.9,216.4 -4.2,221.7 4.7,220.2 5,198.5 14.2,177.8 23.1,201.2 21.9,208.9 26.3,219.9 
					27.5,244.9 27.5,253.5 56.6,252 58.9,246.9 62.5,252.3 66.3,245.5 76.4,248.1 76.7,238.3 80,225.3 82,240.4 82.3,248.4 
					114,247.8 125.6,264.2 127.4,259.7 128,282.6 141,286.1 139.2,287.6 139.5,298.3 140.1,315.2 -35,318.5 -35,290.9 				"/>
				<path id="Line_1_" class="st1" d="M14.2,170v8.3"/>
				<path id="Line-Copy-62" class="st1" d="M16.6,171.8H13"/>
			</g>
			<g class="st2">
				<path class="st3" d="M80.7,1494.8l8.3-0.1c1.1,0,2.1,0.3,3.1,0.8c1,0.6,1.8,1.3,2.5,2.3c0.7,1,1.3,2.1,1.7,3.5
					c0.4,1.3,0.7,2.7,0.7,4.3c0,1.5-0.2,2.9-0.5,4.3c-0.4,1.3-0.9,2.5-1.6,3.5c-0.7,1-1.5,1.8-2.4,2.4c-0.9,0.6-1.9,1-3,1l-8.4,0.1
					L80.7,1494.8z M82.9,1497l0.3,17.8c0.5,0,1,0,1.5,0c0.5,0,1,0,1.5-0.1c0.5,0,1.1,0,1.6,0c0.5,0,1.1,0,1.6,0
					c0.8,0,1.5-0.3,2.2-0.8s1.3-1.1,1.8-1.9c0.5-0.8,0.9-1.7,1.2-2.8c0.3-1.1,0.4-2.2,0.4-3.4c0-1.2-0.2-2.4-0.5-3.4
					c-0.3-1.1-0.7-2-1.2-2.8c-0.5-0.8-1.1-1.4-1.8-1.9c-0.7-0.4-1.4-0.7-2.2-0.7L82.9,1497z"/>
				<path class="st3" d="M113.1,1505.7l-9.4,0.2l0.1,8.5l10.9-0.2l0.1,2.2l-13.1,0.2l-0.4-22.1l13.1-0.2l0,2.1l-10.9,0.2l0.1,7.2
					l9.4-0.2L113.1,1505.7z"/>
				<path class="st3" d="M121.6,1516.2l-2.2,0l-0.4-22.1l2.2,0L121.6,1516.2z"/>
				<path class="st3" d="M127.5,1494l10.6,17.3l-0.3-17.4l2.2,0l0.4,22.1l-2,0l-10.6-17.4c0,1.3,0.1,2.7,0.1,4.1
					c0,1.4,0.1,2.8,0.1,4.1l0.2,9.3l-2.1,0l-0.4-22.1L127.5,1494z"/>
				<path class="st3" d="M157.7,1515.6l-2.2,0l-0.4-22.1l2.2,0L157.7,1515.6z"/>
				<path class="st3" d="M163.6,1493.4l10.6,17.3l-0.3-17.4l2.2,0l0.4,22.1l-2,0l-10.6-17.4c0,1.3,0.1,2.7,0.1,4.1
					c0,1.4,0.1,2.8,0.1,4.1l0.2,9.3l-2.1,0l-0.4-22.1L163.6,1493.4z"/>
				<path class="st3" d="M183,1493l0.2,10.8c1.5-1.8,3-3.7,4.5-5.5c1.5-1.8,3-3.6,4.5-5.5l2.8,0l-8.1,9.8c1.2,1.4,2.4,2.8,3.7,4.2
					c1.3,1.4,2.5,2.8,3.8,4.3c0.5,0.6,1.1,1.2,1.7,2c0.6,0.7,1.2,1.3,1.7,1.9l-2.8,0l-9.5-10.6c-0.1,0.2-0.3,0.4-0.4,0.5
					c-0.1,0.2-0.3,0.4-0.4,0.5c-0.3,0.3-0.5,0.6-0.7,0.9c-0.2,0.3-0.5,0.6-0.8,0.9l0.1,3.8c0,0.7,0,1.4,0.1,2.1c0,0.7,0,1.4,0.1,2
					l-2.2,0l-0.4-22.1L183,1493z"/>
				<path class="st3" d="M204,1509c0.1,0.5,0.3,1,0.7,1.4c0.4,0.5,0.8,0.9,1.4,1.2c0.5,0.4,1.2,0.6,1.9,0.8c0.7,0.2,1.5,0.3,2.2,0.3
					c0.7,0,1.5-0.1,2.1-0.4c0.7-0.2,1.3-0.5,1.8-0.9c0.5-0.4,1-0.8,1.3-1.3c0.3-0.5,0.6-0.9,0.6-1.4l-0.3-16.3l2.2,0l0.3,16.4
					c0,0.8-0.3,1.6-0.7,2.3c-0.4,0.7-1,1.4-1.7,1.9c-0.7,0.6-1.6,1-2.5,1.3s-2,0.5-3,0.5c-1.1,0-2.2-0.1-3.2-0.4
					c-1-0.3-1.9-0.7-2.6-1.2s-1.4-1.2-1.8-1.9c-0.5-0.7-0.7-1.5-0.8-2.3l-0.3-16.4l2.3,0L204,1509z"/>
				<path class="st3" d="M230.1,1514.3l-6.7,0.1l-0.4-22.1l7.2-0.1c0.8,0,1.6,0.2,2.4,0.5c0.7,0.3,1.4,0.7,1.9,1.2
					c0.6,0.5,1,1.1,1.3,1.8c0.3,0.7,0.5,1.4,0.5,2.1c0,1-0.2,1.9-0.7,2.7c-0.5,0.8-1.1,1.5-1.8,2c0.9,0.6,1.6,1.3,2.2,2.2
					c0.6,0.9,0.9,1.9,0.9,3c0,0.9-0.1,1.7-0.5,2.5s-0.8,1.5-1.3,2c-0.6,0.6-1.2,1.1-2,1.4c-0.8,0.4-1.6,0.6-2.5,0.6l0,0
					L230.1,1514.3z M225.2,1494.4l0.1,7.2l5.1-0.1c0.6,0,1.1-0.1,1.5-0.3s0.9-0.4,1.2-0.8c0.3-0.3,0.6-0.7,0.8-1.2
					c0.2-0.5,0.3-0.9,0.3-1.4c0-0.4-0.1-0.9-0.3-1.3c-0.2-0.4-0.5-0.8-0.9-1.1c-0.4-0.3-0.8-0.6-1.2-0.8s-1-0.3-1.5-0.3
					L225.2,1494.4z M230.6,1512.1c0.6,0,1.2-0.2,1.7-0.4c0.5-0.3,1-0.6,1.4-1c0.4-0.4,0.7-0.8,0.9-1.3s0.3-1,0.3-1.6
					c0-0.5-0.1-1-0.4-1.5c-0.2-0.5-0.5-0.9-0.9-1.3c-0.4-0.4-0.9-0.7-1.4-0.9c-0.5-0.2-1.1-0.4-1.7-0.4l-5.1,0.1l0.1,8.5
					L230.6,1512.1z"/>
				<path class="st3" d="M248.8,1491.9l1.7,0l8.5,22l-2.2,0l-3.5-8.7l-6.8,0.1c-0.5,1.4-1,2.9-1.6,4.4c-0.5,1.5-1.1,3-1.6,4.4
					l-2.2,0L248.8,1491.9z M252.5,1503c-0.2-0.6-0.4-1.2-0.7-1.8c-0.2-0.5-0.4-1.1-0.7-1.7l0,0c-0.1-0.3-0.3-0.7-0.4-0.9
					c-0.1-0.3-0.2-0.6-0.3-0.8c-0.1-0.3-0.2-0.6-0.3-0.9c-0.1-0.3-0.2-0.7-0.4-1c-0.2,0.5-0.3,1-0.5,1.4c-0.2,0.5-0.3,0.9-0.5,1.4
					c-0.3,0.8-0.5,1.5-0.8,2.1c-0.2,0.7-0.5,1.4-0.8,2.2L252.5,1503z"/>
				<path class="st3" d="M271.4,1493.6l0.2,9.8c0,1.7,0.1,3.4,0.1,5.1c0,1.7,0.1,3.4,0.1,5.1l-2.1,0l-0.4-20l-7,0.1l0-2.1l16-0.3
					l0,2.1L271.4,1493.6z"/>
				<path class="st3" d="M299.8,1510.3c-0.9,1-1.9,1.8-3.1,2.4c-1.2,0.6-2.4,0.8-3.8,0.9c-1.4,0-2.7-0.2-3.9-0.8
					c-1.2-0.6-2.3-1.3-3.3-2.3c-0.9-1-1.7-2.2-2.3-3.6c-0.6-1.4-0.9-2.9-0.9-4.5c0-1.6,0.2-3,0.7-4.4c0.5-1.4,1.2-2.6,2.1-3.6
					c0.9-1,1.9-1.8,3.2-2.5c1.2-0.6,2.5-0.9,3.9-0.9c1.4,0,2.8,0.2,4,0.8c1.2,0.6,2.3,1.3,3.2,2.3c0.9,1,1.6,2.2,2.2,3.5
					c0.5,1.4,0.8,2.8,0.8,4.4c0,1.7-0.2,3.2-0.7,4.6C301.5,1508,300.8,1509.2,299.8,1510.3z M298,1495.5c-0.7-0.8-1.5-1.3-2.5-1.7
					c-0.9-0.4-1.9-0.6-3-0.6c-1.1,0-2.1,0.3-3.1,0.8s-1.8,1.1-2.5,2c-0.7,0.8-1.2,1.8-1.6,2.9c-0.4,1.1-0.6,2.3-0.5,3.5
					c0,1.3,0.2,2.5,0.7,3.6c0.4,1.1,1,2.1,1.7,2.9c0.7,0.8,1.6,1.4,2.5,1.9s2,0.7,3.1,0.6c1.1,0,2.2-0.3,3.1-0.8
					c1-0.5,1.8-1.1,2.5-2c0.7-0.8,1.2-1.8,1.6-2.9c0.4-1.1,0.6-2.3,0.5-3.6c0-1.3-0.3-2.6-0.7-3.7
					C299.5,1497.2,298.8,1496.3,298,1495.5z"/>
				<path class="st3" d="M309.3,1503l0.2,10l-2.1,0l-0.4-22.1l6.5-0.1c0.9,0,1.7,0.1,2.5,0.4c0.8,0.3,1.5,0.7,2.1,1.2
					c0.6,0.5,1.1,1.1,1.4,1.8c0.4,0.7,0.5,1.4,0.6,2.2c0,0.8-0.1,1.6-0.5,2.3c-0.3,0.7-0.8,1.3-1.4,1.9c-0.6,0.5-1.3,1-2,1.3
					c-0.8,0.3-1.6,0.5-2.5,0.5l-2.1,0c0.6,0.7,1.2,1.3,1.8,2c0.6,0.7,1.2,1.3,1.9,2c0.9,1,1.9,2.1,3,3.3c1.1,1.2,2,2.2,2.9,3.2
					l-2.8,0L309.3,1503z M309.1,1492.9l0.1,7.2l4.4-0.1c0.6,0,1.1-0.1,1.6-0.3c0.5-0.2,1-0.5,1.3-0.8c0.4-0.3,0.7-0.7,0.9-1.2
					c0.2-0.4,0.3-0.9,0.3-1.4c0-0.5-0.1-0.9-0.4-1.4c-0.2-0.4-0.6-0.8-1-1.1c-0.4-0.3-0.9-0.6-1.4-0.8c-0.5-0.2-1.1-0.3-1.7-0.3
					L309.1,1492.9z"/>
				<path class="st3" d="M346.3,1501.6l-9.3,0.2l0.1,5.1c0,0.9,0,1.8,0.1,2.8c0,1,0,1.9,0.1,2.8l-2.1,0l-0.4-22.1l13.1-0.2l0,2.1
					l-10.9,0.2l0.1,7.2l9.3-0.2L346.3,1501.6z"/>
				<path class="st3" d="M354.7,1506.4c0.1,0.5,0.3,1,0.7,1.4c0.4,0.5,0.8,0.9,1.4,1.2c0.5,0.4,1.2,0.6,1.9,0.8
					c0.7,0.2,1.5,0.3,2.2,0.3c0.7,0,1.5-0.1,2.1-0.4c0.7-0.2,1.3-0.5,1.8-0.9c0.5-0.4,1-0.8,1.3-1.3c0.3-0.5,0.6-0.9,0.6-1.4
					l-0.3-16.3l2.2,0l0.3,16.4c0,0.8-0.3,1.6-0.7,2.3c-0.4,0.7-1,1.4-1.7,1.9c-0.7,0.6-1.6,1-2.5,1.3s-2,0.5-3,0.5
					c-1.1,0-2.2-0.1-3.2-0.4c-1-0.3-1.9-0.7-2.6-1.2s-1.4-1.2-1.8-1.9c-0.5-0.7-0.7-1.5-0.8-2.3l-0.3-16.4l2.3,0L354.7,1506.4z
					 M357.1,1488.4c0-0.4,0.1-0.7,0.4-0.9c0.3-0.2,0.6-0.4,0.9-0.4c0.3,0,0.6,0.1,0.9,0.3c0.3,0.2,0.4,0.5,0.4,0.9
					c0,0.3-0.1,0.6-0.4,0.9c-0.3,0.3-0.6,0.4-0.9,0.4c-0.4,0-0.7-0.1-0.9-0.4C357.2,1489,357.1,1488.7,357.1,1488.4z M361.2,1488.3
					c0-0.4,0.1-0.7,0.4-0.9c0.2-0.2,0.5-0.4,0.9-0.4c0.4,0,0.7,0.1,0.9,0.3c0.3,0.2,0.4,0.5,0.4,0.9c0,0.3-0.1,0.6-0.4,0.9
					c-0.3,0.3-0.6,0.4-0.9,0.4c-0.4,0-0.7-0.1-0.9-0.4C361.3,1488.9,361.2,1488.6,361.2,1488.3z"/>
				<path class="st3" d="M375.7,1501.8l0.2,10l-2.1,0l-0.4-22.1l6.5-0.1c0.9,0,1.7,0.1,2.5,0.4c0.8,0.3,1.5,0.7,2.1,1.2
					c0.6,0.5,1.1,1.1,1.4,1.8c0.4,0.7,0.5,1.4,0.6,2.2c0,0.8-0.1,1.6-0.5,2.3c-0.3,0.7-0.8,1.3-1.4,1.9c-0.6,0.5-1.3,1-2,1.3
					s-1.6,0.5-2.5,0.5l-2.1,0c0.6,0.7,1.2,1.3,1.8,2c0.6,0.7,1.2,1.3,1.9,2c0.9,1,1.9,2.1,3,3.3c1.1,1.2,2,2.2,2.9,3.2l-2.8,0
					L375.7,1501.8z M375.6,1491.7l0.1,7.2l4.4-0.1c0.6,0,1.1-0.1,1.6-0.3c0.5-0.2,1-0.5,1.3-0.8c0.4-0.3,0.7-0.7,0.9-1.2
					c0.2-0.4,0.3-0.9,0.3-1.4c0-0.5-0.1-0.9-0.4-1.4c-0.2-0.4-0.6-0.8-1-1.1c-0.4-0.3-0.9-0.6-1.4-0.8c-0.5-0.2-1.1-0.3-1.7-0.3
					L375.6,1491.7z"/>
				<path class="st3" d="M400.7,1489.2l8.3-0.1c1.1,0,2.1,0.3,3.1,0.8s1.8,1.3,2.5,2.3c0.7,1,1.3,2.1,1.7,3.5
					c0.4,1.3,0.7,2.7,0.7,4.3c0,1.5-0.2,2.9-0.5,4.3c-0.4,1.3-0.9,2.5-1.6,3.5s-1.5,1.8-2.4,2.4s-1.9,1-3,1l-8.4,0.1L400.7,1489.2z
					 M402.9,1491.4l0.3,17.8c0.5,0,1,0,1.5,0s1,0,1.5-0.1c0.5,0,1.1,0,1.6,0c0.5,0,1.1,0,1.6,0c0.8,0,1.5-0.3,2.2-0.8
					c0.7-0.5,1.3-1.1,1.8-1.9c0.5-0.8,0.9-1.7,1.2-2.8s0.4-2.2,0.4-3.4c0-1.2-0.2-2.4-0.5-3.4c-0.3-1.1-0.7-2-1.2-2.8
					c-0.5-0.8-1.1-1.4-1.8-1.9c-0.7-0.4-1.4-0.7-2.2-0.7L402.9,1491.4z"/>
				<path class="st3" d="M433.1,1500.1l-9.4,0.2l0.1,8.5l10.9-0.2l0.1,2.2l-13.1,0.2l-0.4-22.1l13.1-0.2l0,2.1l-10.9,0.2l0.1,7.2
					l9.4-0.2L433.1,1500.1z"/>
				<path class="st3" d="M441,1506.1c0.5,0.8,1.2,1.4,2,1.9c0.8,0.5,1.7,0.7,2.7,0.7c0.6,0,1.2-0.1,1.7-0.3c0.5-0.2,1-0.5,1.4-0.8
					c0.4-0.3,0.7-0.7,1-1.2c0.2-0.5,0.4-1,0.3-1.5c0-0.5-0.1-1-0.4-1.4c-0.2-0.5-0.6-0.9-1-1.2c-0.4-0.4-0.9-0.7-1.4-1
					c-0.5-0.3-1.1-0.4-1.7-0.5c-0.9-0.1-1.7-0.3-2.5-0.7c-0.8-0.4-1.5-0.8-2.1-1.4c-0.6-0.5-1.1-1.2-1.4-1.9
					c-0.4-0.7-0.5-1.4-0.6-2.2c0-0.9,0.2-1.7,0.5-2.4c0.4-0.7,0.8-1.4,1.5-1.9c0.6-0.6,1.3-1,2.2-1.3c0.8-0.3,1.7-0.5,2.7-0.5
					c1.3,0,2.4,0.2,3.4,0.7c1,0.5,1.9,1.1,2.8,2l-1.7,1.4c-0.6-0.7-1.2-1.2-2-1.5c-0.8-0.4-1.6-0.5-2.5-0.5c-0.6,0-1.2,0.1-1.8,0.3
					c-0.6,0.2-1.1,0.5-1.5,0.9c-0.4,0.4-0.8,0.8-1,1.3c-0.3,0.5-0.4,1-0.4,1.5s0.1,1,0.4,1.5c0.2,0.5,0.6,0.9,1,1.3
					c0.4,0.4,0.9,0.7,1.5,0.9c0.6,0.2,1.2,0.4,1.8,0.4c0.9,0.1,1.7,0.3,2.5,0.7s1.5,0.8,2,1.4c0.6,0.5,1,1.2,1.4,1.9
					c0.3,0.7,0.5,1.4,0.5,2.2c0,0.8-0.1,1.6-0.5,2.4c-0.3,0.7-0.8,1.4-1.4,1.9c-0.6,0.6-1.3,1-2.1,1.3c-0.8,0.3-1.7,0.5-2.6,0.5
					c-1.4,0-2.6-0.3-3.7-0.9c-1.1-0.6-2-1.4-2.7-2.4L441,1506.1z"/>
				<path class="st3" d="M459.2,1510.3l-2.2,0l-0.4-22.1l2.2,0L459.2,1510.3z"/>
				<path class="st3" d="M480,1507.2c-0.9,1-2,1.7-3.2,2.3c-1.2,0.6-2.4,0.9-3.8,0.9c-1.4,0-2.7-0.2-3.9-0.8
					c-1.2-0.6-2.3-1.4-3.3-2.4c-0.9-1-1.7-2.2-2.2-3.5c-0.6-1.4-0.8-2.8-0.9-4.3c0-1.6,0.2-3,0.7-4.4c0.5-1.4,1.2-2.6,2.1-3.6
					c0.9-1,2-1.9,3.2-2.5c1.2-0.6,2.5-0.9,3.9-1c1.3,0,2.6,0.3,3.9,0.8c1.2,0.6,2.4,1.4,3.4,2.4l-1.5,1.5c-0.8-0.8-1.7-1.5-2.7-1.9
					c-1-0.5-2-0.7-3.1-0.7c-1.1,0-2.1,0.3-3.1,0.8c-1,0.5-1.8,1.1-2.5,2c-0.7,0.8-1.3,1.8-1.7,2.9c-0.4,1.1-0.6,2.3-0.6,3.6
					c0,1.3,0.3,2.4,0.7,3.5s1,2.1,1.8,2.9c0.7,0.8,1.6,1.4,2.6,1.9c1,0.5,2,0.7,3.1,0.7c0.9,0,1.8-0.2,2.6-0.6
					c0.8-0.4,1.6-0.8,2.2-1.5l-0.1-5.4l-5.9,0.1l0-2.1l8-0.1l0.1,8.3L480,1507.2z"/>
				<path class="st3" d="M486.6,1487.7l10.6,17.3l-0.3-17.4l2.2,0l0.4,22.1l-2,0l-10.6-17.4c0,1.3,0.1,2.7,0.1,4.1
					c0,1.4,0.1,2.8,0.1,4.1l0.2,9.3l-2.1,0l-0.4-22.1L486.6,1487.7z"/>
				<path class="st3" d="M521.1,1509.2c-1,0-1.9-0.1-2.7-0.4c-0.8-0.3-1.5-0.8-2.1-1.3c-0.6-0.6-1.1-1.2-1.4-1.9
					c-0.4-0.7-0.5-1.5-0.6-2.3c0-1.2,0.4-2.4,1.2-3.5c0.8-1.1,2-2,3.7-2.8c0.1,0,0.2-0.1,0.3-0.1c0,0-0.1-0.1-0.1-0.2l0,0
					c0,0,0,0,0,0s0,0,0,0c-0.6-0.6-1-1.1-1.3-1.5c-0.3-0.4-0.6-0.8-0.7-1.2c-0.2-0.3-0.3-0.7-0.3-1c-0.1-0.3-0.1-0.6-0.1-0.9
					c0-0.6,0.1-1.2,0.3-1.7c0.2-0.6,0.6-1.1,1-1.5c0.4-0.4,1-0.8,1.6-1.1c0.6-0.3,1.3-0.4,2.1-0.4c0.7,0,1.4,0.1,2,0.3
					c0.6,0.2,1.1,0.5,1.6,0.9c0.4,0.4,0.8,0.9,1,1.4s0.4,1.1,0.4,1.7c0,0.9-0.2,1.8-0.8,2.7c-0.5,0.9-1.4,1.7-2.7,2.6
					c-0.1,0.1-0.2,0.1-0.3,0.2c-0.1,0.1-0.2,0.1-0.2,0.2c0.4,0.5,0.8,0.9,1.1,1.4c0.4,0.4,0.7,0.9,1.1,1.3c0.3,0.4,0.6,0.8,0.9,1.1
					c0.3,0.4,0.6,0.8,0.9,1.2c0.1-0.1,0.2-0.2,0.3-0.3l0,0.1c0,0,0-0.1,0.1-0.1c0,0,0-0.1,0-0.1s0,0,0-0.1c0-0.1,0.1-0.1,0.1-0.2
					c0,0,0-0.1,0.1-0.1c0,0,0-0.1,0-0.1c0.2-0.3,0.3-0.6,0.5-0.9c0.2-0.3,0.4-0.8,0.5-1.3l1.9,0.3c-0.3,1-0.6,1.8-1,2.5
					c-0.4,0.7-0.7,1.4-1.1,1.9c0.3,0.4,0.5,0.7,0.6,0.9c0.1,0.2,0.3,0.3,0.4,0.5v0c0.1,0.1,0.1,0.1,0.1,0.2c0.1,0.2,0.2,0.3,0.2,0.4
					c0.1,0.1,0.1,0.1,0.2,0.2c0.1,0.1,0.2,0.2,0.3,0.3c0.1,0.1,0.2,0.2,0.3,0.3l0.1,3c-0.4-0.3-0.8-0.7-1.2-1.2
					c-0.4-0.5-0.7-0.8-0.9-1c0-0.1-0.1-0.1-0.2-0.2c-0.1-0.1-0.3-0.3-0.5-0.5s-0.4-0.4-0.6-0.6c0,0-0.1-0.1-0.1-0.1
					c0,0-0.1,0.1-0.1,0c0,0,0,0,0,0.1c0,0,0,0.1,0,0.1c-0.7,1-1.6,1.8-2.7,2.3S522.3,1509.2,521.1,1509.2z M521.1,1507.3
					c0.9,0,1.8-0.2,2.6-0.8c0.9-0.5,1.6-1.1,2.2-1.9l0-0.1c-0.9-1.1-1.8-2.1-2.6-3.1c-0.4-0.5-0.9-1-1.3-1.6
					c-0.4-0.5-0.9-1.1-1.3-1.6c-1.5,0.8-2.6,1.7-3.3,2.5c-0.7,0.8-1,1.6-1,2.4c0,0.5,0.1,1,0.4,1.5c0.3,0.5,0.6,0.9,1,1.3
					c0.4,0.4,0.9,0.7,1.5,0.9S520.5,1507.3,521.1,1507.3z M524.7,1491.7c0-0.7-0.3-1.4-0.8-1.8c-0.6-0.5-1.2-0.7-2-0.7
					c-0.4,0-0.7,0.1-1.1,0.2s-0.7,0.4-0.9,0.6c-0.3,0.2-0.5,0.5-0.7,0.9c-0.2,0.3-0.2,0.7-0.2,1c0,0.4,0.1,0.8,0.3,1.1
					c0.2,0.4,0.5,0.7,0.8,1.1l1.3,1.5c0,0,0,0,0,0s0,0,0.1,0h0c0,0,0.1-0.1,0.1,0c0,0,0,0,0.1,0c0.5-0.3,1-0.6,1.4-1
					c0.4-0.4,0.7-0.7,1-1.1c0.3-0.4,0.5-0.7,0.6-1C524.7,1492.2,524.7,1491.9,524.7,1491.7z M520.5,1497.6c0,0.1,0,0.2,0,0.3
					s0.1,0.2,0.1,0.3c0.1,0.1,0.2,0.1,0.2,0.1c0,0,0.1,0,0.1-0.1c0,0,0.1-0.1,0.2-0.2c0.1-0.1,0.2-0.2,0.3-0.4L520.5,1497.6z
					 M526.1,1504.4l-0.1,0.2c0,0,0,0.1,0.1,0.1c0,0,0,0,0.1,0L526.1,1504.4z"/>
				<path class="st3" d="M554.6,1488.7l0.2,9.8c0,1.7,0.1,3.4,0.1,5.1c0,1.7,0.1,3.4,0.1,5.1l-2.1,0l-0.4-20l-7,0.1l0-2.1l16-0.3
					l0,2.1L554.6,1488.7z"/>
				<path class="st3" d="M577.7,1497.6l-9.4,0.2l0.1,8.5l10.9-0.2l0.1,2.2l-13.1,0.2l-0.4-22.1l13.1-0.2l0,2.1l-10.9,0.2l0.1,7.2
					l9.4-0.2L577.7,1497.6z"/>
				<path class="st3" d="M599.1,1490.5c-0.8-0.8-1.7-1.5-2.7-1.9c-1-0.5-2-0.7-3.1-0.7c-1.1,0-2.1,0.3-3,0.8c-1,0.5-1.8,1.1-2.5,2
					c-0.7,0.8-1.3,1.8-1.7,2.9c-0.4,1.1-0.6,2.3-0.6,3.5c0,1.2,0.2,2.4,0.7,3.5s1,2,1.7,2.9c0.7,0.8,1.6,1.5,2.5,1.9
					c1,0.5,2,0.7,3.2,0.7c1,0,2-0.3,3-0.8c0.9-0.5,1.8-1.2,2.6-2l1.5,1.4c-1,1.1-2.1,1.9-3.3,2.5c-1.2,0.6-2.5,1-3.8,1
					c-1.3,0-2.6-0.3-3.8-0.8c-1.2-0.6-2.3-1.4-3.3-2.4s-1.7-2.2-2.3-3.6c-0.6-1.4-0.9-2.8-0.9-4.4c0-1.5,0.2-2.9,0.7-4.3
					c0.5-1.4,1.2-2.6,2.1-3.6c0.9-1,2-1.9,3.2-2.5c1.2-0.6,2.5-1,3.9-1c1.3,0,2.6,0.3,3.9,0.8c1.3,0.6,2.4,1.4,3.4,2.4L599.1,1490.5
					z"/>
				<path class="st3" d="M607.1,1497.1l0.1,5.1c0,0.9,0,1.8,0.1,2.8c0,1,0,1.9,0.1,2.8l-2.2,0l-0.4-22.1l2.2,0l0.2,9.3l10.8-0.2
					l-0.2-9.3l2.1,0l0.4,22.1l-2.1,0l-0.2-10.7L607.1,1497.1z"/>
				<path class="st3" d="M641.9,1507.1c-1,0-1.9-0.1-2.7-0.5c-0.8-0.3-1.5-0.8-2.1-1.3c-0.6-0.6-1.1-1.2-1.4-1.9
					c-0.4-0.7-0.5-1.5-0.6-2.3c0-1.2,0.4-2.4,1.2-3.5c0.8-1.1,2-2,3.7-2.8c0.1,0,0.2-0.1,0.3-0.1c0,0-0.1-0.1-0.1-0.2l0,0
					c0,0,0,0,0,0s0,0,0,0c-0.6-0.6-1-1.1-1.3-1.5c-0.3-0.4-0.6-0.8-0.7-1.2c-0.2-0.3-0.3-0.7-0.3-1s-0.1-0.6-0.1-0.9
					c0-0.6,0.1-1.2,0.3-1.7c0.2-0.6,0.6-1.1,1-1.5c0.4-0.4,1-0.8,1.6-1.1c0.6-0.3,1.3-0.4,2.1-0.4c0.7,0,1.4,0.1,2,0.3
					c0.6,0.2,1.1,0.5,1.6,0.9c0.4,0.4,0.8,0.9,1,1.4c0.2,0.5,0.4,1.1,0.4,1.7c0,0.9-0.2,1.8-0.8,2.7c-0.5,0.9-1.4,1.7-2.7,2.6
					c-0.1,0.1-0.2,0.1-0.3,0.2c-0.1,0.1-0.2,0.1-0.2,0.2c0.4,0.5,0.8,0.9,1.1,1.4c0.4,0.4,0.7,0.9,1.1,1.3c0.3,0.4,0.6,0.8,0.9,1.1
					c0.3,0.4,0.6,0.8,0.9,1.2c0.1-0.1,0.2-0.2,0.3-0.3l0,0.1c0,0,0-0.1,0.1-0.1c0,0,0-0.1,0-0.1s0,0,0-0.1c0-0.1,0.1-0.1,0.1-0.2
					c0,0,0-0.1,0.1-0.1c0,0,0-0.1,0-0.1c0.2-0.3,0.3-0.6,0.5-0.9c0.2-0.3,0.4-0.8,0.5-1.3l1.9,0.3c-0.3,1-0.6,1.8-1,2.5
					c-0.4,0.7-0.7,1.4-1.1,1.9c0.3,0.4,0.5,0.7,0.6,0.9c0.1,0.2,0.3,0.3,0.4,0.5l0,0c0.1,0.1,0.1,0.1,0.1,0.2
					c0.1,0.2,0.2,0.3,0.2,0.4c0.1,0.1,0.1,0.1,0.2,0.2c0.1,0.1,0.2,0.2,0.3,0.3c0.1,0.1,0.2,0.2,0.3,0.3l0.1,3
					c-0.4-0.3-0.8-0.7-1.2-1.2c-0.4-0.5-0.7-0.8-0.9-1c0-0.1-0.1-0.1-0.2-0.2c-0.1-0.1-0.3-0.3-0.5-0.5c-0.2-0.2-0.4-0.4-0.6-0.6
					c0,0-0.1-0.1-0.1-0.1c0,0-0.1,0.1-0.1,0c0,0,0,0,0,0.1c0,0,0,0.1,0,0.1c-0.7,1-1.6,1.8-2.7,2.3
					C644.1,1506.9,643,1507.1,641.9,1507.1z M641.8,1505.2c0.9,0,1.8-0.2,2.6-0.8c0.9-0.5,1.6-1.1,2.2-1.9l0-0.1
					c-0.9-1.1-1.8-2.1-2.6-3.1c-0.4-0.5-0.9-1-1.3-1.6c-0.4-0.5-0.9-1.1-1.3-1.6c-1.5,0.8-2.6,1.7-3.3,2.5c-0.7,0.8-1,1.6-1,2.4
					c0,0.5,0.1,1,0.4,1.5c0.3,0.5,0.6,0.9,1,1.3c0.4,0.4,0.9,0.7,1.5,0.9C640.6,1505.1,641.2,1505.2,641.8,1505.2z M645.5,1489.6
					c0-0.7-0.3-1.3-0.8-1.8c-0.6-0.5-1.2-0.7-2-0.7c-0.4,0-0.7,0.1-1.1,0.2s-0.7,0.4-0.9,0.6c-0.3,0.2-0.5,0.5-0.7,0.9
					c-0.2,0.3-0.2,0.7-0.2,1c0,0.4,0.1,0.8,0.3,1.1c0.2,0.4,0.5,0.7,0.8,1.1l1.3,1.5c0,0,0,0,0,0s0,0,0.1,0l0,0c0,0,0.1-0.1,0.1,0
					c0,0,0,0,0.1,0c0.5-0.3,1-0.6,1.4-1c0.4-0.4,0.7-0.7,1-1.1c0.3-0.4,0.5-0.7,0.6-1C645.4,1490.1,645.5,1489.8,645.5,1489.6z
					 M641.2,1495.5c0,0.1,0,0.2,0,0.3s0.1,0.2,0.1,0.3c0.1,0.1,0.2,0.1,0.2,0.1c0,0,0.1,0,0.1,0c0,0,0.1-0.1,0.2-0.2
					c0.1-0.1,0.2-0.2,0.3-0.4L641.2,1495.5z M646.8,1502.3l-0.1,0.2c0,0,0,0.1,0.1,0.1c0,0,0,0,0.1,0L646.8,1502.3z"/>
				<path class="st3" d="M681.4,1484.3l2,0l0.4,22.1l-2.2,0l-0.3-17.6c-0.9,1.6-1.9,3.3-2.9,5.1c-1,1.8-1.9,3.5-2.8,5.1l-1.3,0
					l-6.1-9.9c0,1.3,0.1,2.7,0.1,4.1c0,1.4,0.1,2.8,0.1,4.2l0.2,9.2l-2.1,0l-0.4-22.1l2,0l7,11.3L681.4,1484.3z"/>
				<path class="st3" d="M700,1495.5l-9.4,0.2l0.1,8.5l10.9-0.2l0.1,2.2l-13.1,0.2l-0.4-22.1l13.1-0.2l0,2.1l-10.9,0.2l0.1,7.2
					l9.4-0.2L700,1495.5z"/>
				<path class="st3" d="M705.7,1483.9l8.3-0.1c1.1,0,2.1,0.3,3.1,0.8s1.8,1.3,2.5,2.3c0.7,1,1.3,2.1,1.7,3.5
					c0.4,1.3,0.7,2.7,0.7,4.3s-0.2,2.9-0.5,4.3c-0.4,1.3-0.9,2.5-1.6,3.5s-1.5,1.8-2.4,2.4c-0.9,0.6-1.9,1-3,1l-8.4,0.1
					L705.7,1483.9z M707.9,1486l0.3,17.8c0.5,0,1,0,1.5,0s1,0,1.5-0.1c0.5,0,1.1,0,1.6,0c0.5,0,1.1,0,1.6,0c0.8,0,1.5-0.3,2.2-0.8
					c0.7-0.5,1.3-1.1,1.8-1.9c0.5-0.8,0.9-1.8,1.2-2.8c0.3-1.1,0.4-2.2,0.4-3.4c0-1.2-0.2-2.4-0.5-3.4c-0.3-1.1-0.7-2-1.2-2.8
					c-0.5-0.8-1.1-1.4-1.8-1.9s-1.4-0.7-2.2-0.7L707.9,1486z"/>
				<path class="st3" d="M729,1505.6l-2.2,0l-0.4-22.1l2.2,0L729,1505.6z"/>
				<path class="st3" d="M740.5,1483.3l1.7,0l8.5,22l-2.2,0l-3.5-8.7l-6.8,0.1c-0.5,1.4-1,2.9-1.6,4.4c-0.5,1.5-1.1,3-1.6,4.4
					l-2.2,0L740.5,1483.3z M744.1,1494.4c-0.2-0.6-0.4-1.2-0.7-1.8c-0.2-0.5-0.4-1.1-0.7-1.7v0c-0.1-0.3-0.3-0.7-0.4-0.9
					c-0.1-0.3-0.2-0.6-0.3-0.8c-0.1-0.3-0.2-0.6-0.3-0.9c-0.1-0.3-0.2-0.7-0.4-1c-0.2,0.5-0.3,1-0.5,1.4c-0.2,0.5-0.3,0.9-0.5,1.4
					c-0.3,0.8-0.5,1.5-0.8,2.1c-0.2,0.7-0.5,1.4-0.8,2.2L744.1,1494.4z"/>
			</g>
		</g>
	</g>
</g>
</svg>
