<?xml version="1.0" encoding="utf-8"?>
<!-- Generator: Adobe Illustrator 19.1.0, SVG Export Plug-In . SVG Version: 6.00 Build 0)  -->
<svg version="1.1" id="Ebene_1" xmlns="http://www.w3.org/2000/svg" xmlns:xlink="http://www.w3.org/1999/xlink" x="0px" y="0px"
	 viewBox="136.9 -534.4 1370.1 1392.1" style="enable-background:new 136.9 -534.4 1370.1 1392.1;" xml:space="preserve">
<style type="text/css">
	.st0{fill:#B8E986;}
	.st1{fill:#481475;}
</style>
<title>Group 4</title>
<desc>Created with Sketch.</desc>
<g id="Page-1">
	<g id="Group-4">
		<g id="Group-2" transform="translate(441.000000, 1010.000000)">
			<polygon id="Line" class="st0" points="319.8,-365.9 328.2,-365.9 328.2,-368.9 319.8,-368.9 			"/>
			<polygon id="Line-Copy" class="st0" points="319.8,-375.9 328.2,-375.9 328.2,-378.9 319.8,-378.9 			"/>
			<polygon id="Line-Copy-2" class="st0" points="319.8,-385.9 328.2,-385.9 328.2,-388.9 319.8,-388.9 			"/>
			<polygon id="Line-Copy-3" class="st0" points="319.8,-395.9 328.2,-395.9 328.2,-398.9 319.8,-398.9 			"/>
			<polygon id="Line-Copy-4" class="st0" points="319.8,-405.9 328.2,-405.9 328.2,-408.9 319.8,-408.9 			"/>
			<polygon id="Line-Copy-5" class="st0" points="319.8,-415.9 328.2,-415.9 328.2,-418.9 319.8,-418.9 			"/>
			<polygon id="Line-Copy-6" class="st0" points="319.8,-425.9 328.2,-425.9 328.2,-428.9 319.8,-428.9 			"/>
			<polygon id="Line-Copy-7" class="st0" points="319.8,-435.4 328.2,-435.4 328.2,-438.4 319.8,-438.4 			"/>
			<polygon id="Line-Copy-8" class="st0" points="319.8,-445.4 328.2,-445.4 328.2,-448.4 319.8,-448.4 			"/>
			<polygon id="Line-Copy-9" class="st0" points="319.8,-455.4 328.2,-455.4 328.2,-458.4 319.8,-458.4 			"/>
			<polygon id="Line-Copy-10" class="st0" points="319.8,-465.4 328.2,-465.4 328.2,-468.4 319.8,-468.4 			"/>
			<polygon id="Line-Copy-24" class="st0" points="300.8,-365.9 309.2,-365.9 309.2,-368.9 300.8,-368.9 			"/>
			<polygon id="Line-Copy-23" class="st0" points="300.8,-375.9 309.2,-375.9 309.2,-378.9 300.8,-378.9 			"/>
			<polygon id="Line-Copy-22" class="st0" points="300.8,-385.9 309.2,-385.9 309.2,-388.9 300.8,-388.9 			"/>
			<polygon id="Line-Copy-21" class="st0" points="300.8,-395.9 309.2,-395.9 309.2,-398.9 300.8,-398.9 			"/>
			<polygon id="Line-Copy-20" class="st0" points="300.8,-405.9 309.2,-405.9 309.2,-408.9 300.8,-408.9 			"/>
			<polygon id="Line-Copy-19" class="st0" points="300.8,-415.9 309.2,-415.9 309.2,-418.9 300.8,-418.9 			"/>
			<polygon id="Line-Copy-18" class="st0" points="300.8,-425.9 309.2,-425.9 309.2,-428.9 300.8,-428.9 			"/>
			<polygon id="Line-Copy-17" class="st0" points="300.8,-435.4 309.2,-435.4 309.2,-438.4 300.8,-438.4 			"/>
			<polygon id="Line-Copy-16" class="st0" points="300.8,-445.4 309.2,-445.4 309.2,-448.4 300.8,-448.4 			"/>
			<polygon id="Line-Copy-15" class="st0" points="300.8,-455.4 309.2,-455.4 309.2,-458.4 300.8,-458.4 			"/>
			<polygon id="Line-Copy-14" class="st0" points="300.8,-465.4 309.2,-465.4 309.2,-468.4 300.8,-468.4 			"/>
			<polygon id="Line-Copy-11" class="st0" points="320,-470.9 326.1,-476.6 324,-478.8 317.9,-473.1 			"/>
			<polygon id="Line-Copy-12" class="st0" points="315.5,-472.2 311,-479.2 308.5,-477.5 313,-470.6 			"/>
			<polygon id="Line-Copy-13" class="st0" points="316.5,-472.5 318.4,-480.6 315.5,-481.3 313.6,-473.2 			"/>
			<polygon id="Line-Copy-38" class="st0" points="261.8,-415.9 270.2,-415.9 270.2,-418.9 261.8,-418.9 			"/>
			<polygon id="Line-Copy-37" class="st0" points="261.8,-425.9 270.2,-425.9 270.2,-428.9 261.8,-428.9 			"/>
			<polygon id="Line-Copy-36" class="st0" points="261.8,-435.9 270.2,-435.9 270.2,-438.9 261.8,-438.9 			"/>
			<polygon id="Line-Copy-35" class="st0" points="261.8,-445.9 270.2,-445.9 270.2,-448.9 261.8,-448.9 			"/>
			<polygon id="Line-Copy-34" class="st0" points="261.8,-455.9 270.2,-455.9 270.2,-458.9 261.8,-458.9 			"/>
			<polygon id="Line-Copy-33" class="st0" points="261.8,-465.9 270.2,-465.9 270.2,-468.9 261.8,-468.9 			"/>
			<polygon id="Line-Copy-32" class="st0" points="264.8,-475.9 273.2,-475.9 273.2,-478.9 264.8,-478.9 			"/>
			<polygon id="Line-Copy-31" class="st0" points="264.8,-485.4 273.2,-485.4 273.2,-488.4 264.8,-488.4 			"/>
			<polygon id="Line-Copy-30" class="st0" points="264.8,-495.4 273.2,-495.4 273.2,-498.4 264.8,-498.4 			"/>
			<polygon id="Line-Copy-29" class="st0" points="267.8,-505.4 276.2,-505.4 276.2,-508.4 267.8,-508.4 			"/>
			<polygon id="Line-Copy-28" class="st0" points="267.8,-515.4 276.2,-515.4 276.2,-518.4 267.8,-518.4 			"/>
			<polygon id="Line-Copy-27" class="st0" points="287,-520.9 293.1,-526.6 291,-528.8 284.9,-523.1 			"/>
			<polygon id="Line-Copy-26" class="st0" points="276.5,-522.2 272,-529.2 269.5,-527.5 274,-520.6 			"/>
			<polygon id="Line-Copy-25" class="st0" points="283.5,-525.5 285.4,-533.6 282.5,-534.3 280.6,-526.2 			"/>
			<polygon id="Line-Copy-46" class="st0" points="261.8,-365.9 270.2,-365.9 270.2,-368.9 261.8,-368.9 			"/>
			<polygon id="Line-Copy-45" class="st0" points="261.8,-375.4 270.2,-375.4 270.2,-378.4 261.8,-378.4 			"/>
			<polygon id="Line-Copy-44" class="st0" points="261.8,-385.4 270.2,-385.4 270.2,-388.4 261.8,-388.4 			"/>
			<polygon id="Line-Copy-43" class="st0" points="261.8,-395.4 270.2,-395.4 270.2,-398.4 261.8,-398.4 			"/>
			<polygon id="Line-Copy-42" class="st0" points="261.8,-405.4 270.2,-405.4 270.2,-408.4 261.8,-408.4 			"/>
		</g>
		<path id="Path-1" class="st0" d="M365-154.3l151,6.4l13.9,762.1l-153,2L365-154.3z M363.6-157.4l-1.6-0.1v1.6l12,773.5v1.5h1.5
			l156-2h1.5v-1.5l-14-765v-1.4l-1.4-0.1L363.6-157.4L363.6-157.4L363.6-157.4z"/>
		<path id="Path-2" class="st0" d="M704.6,738.6l52-3l1.1-0.1l0.3-1l18.5-69.5l0.5-1.9h-2h-80.5h-1.7l0.2,1.7l10,72.5l0.2,1.4
			L704.6,738.6L704.6,738.6L704.6,738.6z M705.8,735.6l-9.6-69.4H773l-17.7,66.6L705.8,735.6z"/>
		<path id="Path-3" class="st0" d="M840.9,662.6c-0.2,0.3-0.6,0.7-1.1,1.4c-0.8,1.1-1.5,2.4-2.2,3.9c-4.2,8.8-4.7,19.5,0.6,31.8
			c4.2,9.7,8.6,17.2,13,22.6c1.6,1.9,3,3.4,4.3,4.6c0.8,0.7,1.4,1.2,1.7,1.4l0.4,0.3h0.5h46.4h0.6l0.4-0.5c0,0,0.1-0.1,0.2-0.2
			c0.1-0.2,0.3-0.3,0.5-0.6c0.5-0.6,1.1-1.3,1.8-2.1c1.9-2.2,3.7-4.7,5.4-7.3c4.6-7.1,7.6-14.2,7.9-20.9c0-0.5,0-1,0-1.5
			c0-6.7,0.8-13.8,2.2-21c0.5-2.5,1-4.9,1.5-6.9c0.2-0.7,0.4-1.4,0.5-1.9c0.1-0.3,0.2-0.6,0.2-0.7l1.2-4.1l-3.5,2.4
			c-0.1,0.1-0.4,0.3-0.8,0.5c-0.7,0.4-1.5,1-2.5,1.5c-2.7,1.6-5.8,3.1-9.1,4.6c-9.6,4.1-19.7,6.6-29.7,6.6s-19.4-2.7-27.9-7.1
			c-3-1.6-5.6-3.2-7.9-4.9c-0.8-0.6-1.5-1.1-2.1-1.6c-0.3-0.3-0.6-0.5-0.7-0.6l-1.1-1L840.9,662.6L840.9,662.6L840.9,662.6z
			 M844,667.1c2.4,1.7,5.2,3.5,8.3,5.1c8.9,4.6,18.7,7.4,29.3,7.4c10.5,0,21-2.6,30.9-6.9c3.5-1.5,9.4-4.7,9.4-4.7s-0.6,3.4-1.1,6
			c-1.4,7.4-2.3,14.7-2.3,21.6c0,0.4,0,0.9,0,1.3c-0.4,6.1-3.1,12.7-7.5,19.4c-1.7,2.5-3.4,4.9-5.2,7.1c-0.6,0.7-1.2,1.4-1.7,2
			c-0.1,0.1-0.2,0.2-0.2,0.2s-45.2,0.1-45.3,0c-0.3-0.2-0.7-0.5-1.1-0.9c-1.2-1.1-2.5-2.5-4-4.3c-4.2-5.2-8.5-12.4-12.6-21.9
			c-4.9-11.4-4.4-21.3-0.6-29.3c0.6-1.3,2-3.5,2-3.5S843.1,666.5,844,667.1z"/>
		<path id="Path-4" class="st0" d="M876,640.9c0,0-0.1-2.9-0.1-4.5c-0.1-4.7-0.2-9.6-0.3-14.3c0-1.3-0.1-2.5-0.1-3.7
			c-0.3-11.5-0.4-19.6-0.4-22.8c0-2.1-0.8-4.8-2.5-8.7c-0.7-1.5-1.4-3.1-2.5-5.3c-0.2-0.4-0.4-0.8-0.7-1.4c0,0-0.6-1.1-0.7-1.4
			c-0.6-1.2-1-2.1-1.4-3c-2-4.2-3.4-7.4-4.6-10.6c-2-5.2-3-9.7-3-13.6c0-2.1,0-3.6,0.1-8.4c0.1-5.9,0.1-9,0-12.6
			c-0.1-14.5-1-24.2-3.2-30.1c-6.6-17.3-9-24-12.9-38.4c-2-7.3-3.8-14.9-5.5-22.8c-5.3-25.5-11-66.9-11-74.7c0-1.5,1.1-2.6,3.1-3.5
			c0.8-0.3,1.6-0.6,2.5-0.8c0.5-0.1,0.9-0.2,1.1-0.2l-1.2-0.4l8.5,8l-0.4-0.7c0,0.1,0.1,0.3,0.2,0.6c0.1,0.5,0.3,1,0.5,1.6
			c0.5,1.8,1,3.8,1.6,5.9c1.7,6.2,3.4,12.5,5,18.7c0.5,1.8,0.9,3.5,1.3,5.2c3.7,14.9,5.9,25.5,5.9,29.6c0,3.8,0.7,9.8,1.9,17.3
			c0.3,2.1,0.7,4.2,1.1,6.4c0.7,3.6,1.4,7.2,2.1,10.7c0.2,1.2,0.5,2.3,0.7,3.3c0.1,0.3,0.1,0.6,0.2,0.9c0.1,0.3,0.1,0.3,0.1,0.3
			c0,0.1,0,0.1,0.1,0.3c0.1,0.2,0.1,0.5,0.2,0.8c0.2,0.9,0.4,1.9,0.7,3.1c0.7,3.2,1.4,6.6,2.1,9.9c0.4,1.8,0.7,3.6,1,5.3
			c1.3,7.1,2,12.6,2,15.8c0,4.1,1,7.7,6.3,24.4c0.4,1.2,0.7,2.1,1,3.1c3.5,11.3,5.2,18.2,5.2,23c0,5.2,0.1,20.9,0.2,43.8
			c0,1.9,0,3.8,0,5.8c0.1,9.1,0.1,18.5,0.2,27.7c0,3.2,0,6.2,0.1,8.8c0,1.1,0,1.8,0,1.8L876,640.9z M873,642.7v1.5h1.5h7h1.5v-1.5
			c0-0.1,0-0.1,0-0.9c0-1,0-1,0-2.5c0-2.6,0-5.6-0.1-8.8c-0.1-9.2-0.1-18.6-0.2-27.7c0-2,0-3.9,0-5.8c-0.1-22.9-0.2-38.6-0.2-43.8
			s-1.7-12.3-5.3-23.9c-0.3-0.9-0.6-1.9-1-3.1c-5.1-16.1-6.2-19.8-6.2-23.5c0-3.4-0.7-9.1-2-16.3c-0.3-1.7-0.6-3.5-1-5.3
			c-0.7-3.4-1.4-6.8-2.1-10c-0.2-1.1-0.5-2.2-0.7-3.1c-0.1-0.3-0.1-0.6-0.2-0.8c-0.1-0.2-0.1-0.2-0.1-0.3c0,0,0,0-0.1-0.3
			s-0.1-0.6-0.2-0.9c-0.2-1-0.4-2.1-0.7-3.3c-0.7-3.4-1.4-7-2.1-10.6c-0.4-2.2-0.8-4.3-1.1-6.3c-1.2-7.3-1.9-13.1-1.9-16.8
			c0-4.5-2.2-15.1-6-30.3c-0.4-1.7-0.9-3.4-1.3-5.2c-1.6-6.2-3.3-12.6-5-18.8c-0.6-2.2-1.1-4.2-1.6-5.9c-0.2-0.6-0.3-1.2-0.5-1.6
			c-0.1-0.3-0.1-0.5-0.2-0.6l-0.1-0.4l-0.3-0.3l-8.5-8l-0.5-0.5l-0.7,0.1c-0.3,0-0.8,0.1-1.4,0.3c-1,0.2-2,0.6-3,1
			c-3,1.3-4.9,3.3-4.9,6.2c0,8.1,5.7,49.7,11,75.3c1.7,8,3.5,15.7,5.6,23c2.3,8.3,4.7,15.9,7.3,23.4c1,2.9,2,5.7,3.2,8.6
			c0.4,1.1,0.8,2.2,1.4,3.6c0.2,0.4,0.3,0.8,0.6,1.6c0.2,0.6,0.4,1.1,0.6,1.5c2.1,5.4,2.9,14.9,3,29c0,3.6,0,6.7,0,12.5
			c0,4.7-0.1,6.3-0.1,8.4c0,4.3,1.1,9.1,3.2,14.6c1.2,3.3,2.7,6.6,4.7,10.8c0.4,0.9,0.9,1.8,1.5,3c0.2,0.3,0.7,1.4,0.7,1.4
			c0.3,0.6,0.5,1,0.7,1.4c1.1,2.2,1.8,3.8,2.5,5.2c1.5,3.5,2.3,5.9,2.3,7.5c0,3.2,0.2,11.3,0.4,22.8c0,1.2,0.1,2.4,0.1,3.7
			c0.1,4.7,0.2,9.6,0.3,14.3c0,1.7,0.1,3.2,0.1,4.5c0,0.8,0,0.8,0,1.3C873,642.6,873,642.6,873,642.7L873,642.7L873,642.7z"/>
		<path id="Path-4-Copy-2" class="st0" d="M815.7,345.4c0,0-3.6-1.2-5.5-1.6c-8.4-1.4-15.6,1.7-19,9.7c-2,4.7-3.6,9.3-5.2,14.7
			c-0.3,0.9-0.5,1.9-0.9,3c-0.1,0.3-0.4,1.5-0.4,1.4c-0.2,0.5-0.3,0.9-0.4,1.3c-0.6,2-1,3.3-1.4,4.4c-0.6,1.7-1.5,3-1.5,3
			s0,0.1-0.1-0.3c-0.2-0.9-0.4-2.3-0.5-4.2c-0.2-3.3-0.1-7.9,0.2-13.4c0.2-3,0.4-6.2,0.6-9.5c0.2-2.6,0.4-5,0.6-7.3
			c0.1-0.8,0.2-2.1,0.2-2.1s0.4-0.1,0.9-0.3c1.4-0.5,2.9-1.1,4.6-1.6c4.2-1.3,8.3-2.1,12.1-2.3c3.3-0.1,6.2,0.2,8.6,1.2
			C811.8,342.7,815.7,345.4,815.7,345.4z M820.5,352.6c0,1.5,0.1,2.4,0.6,3c1,1.3,2.2,0.8,3-0.2c0.2-0.3,0.4-0.6,0.6-1
			c0.1-0.3,0.3-0.6,0.4-0.9c0.1-0.2,0.1-0.3,0.2-0.4l0.2-0.6l-0.3-0.6c-0.2-0.6-0.7-1.5-1.5-2.6c-1.3-1.9-3-3.7-5.1-5.5
			c-2.5-2.1-5.5-3.9-9-5.2c-2.9-1.1-6.2-1.5-9.8-1.4c-4.1,0.2-8.5,1.1-12.9,2.4c-1.7,0.5-3.3,1.1-4.8,1.7c-0.5,0.2-1,0.4-1.4,0.6
			c-0.2,0.1-0.4,0.2-0.5,0.2l-0.8,0.4l0.1,1c0,0.1,0,0.4-0.1,0.8c-0.1,0.6-0.1,1.4-0.2,2.2c-0.2,2.3-0.4,4.8-0.6,7.3
			c-0.3,3.3-0.5,6.5-0.6,9.5c-0.3,5.6-0.4,10.3-0.2,13.7c0.3,5.1,0.9,7.6,3.2,7.6c2.2,0,3.5-1.7,4.8-5.2c0.4-1.2,0.8-2.5,1.4-4.6
			c0.1-0.4,0.2-0.8,0.4-1.3c0,0.1,0.3-1.1,0.4-1.4c0.3-1.2,0.6-2.1,0.9-3c1.6-5.3,3.1-9.8,5.1-14.4c2.8-6.6,8.6-9.1,15.8-7.9
			c2.9,0.5,5.8,1.5,7.9,2.9C819.4,350.9,820.5,352.1,820.5,352.6L820.5,352.6L820.5,352.6z"/>
		<path id="Path-5" class="st0" d="M1020.6,655.6L1020.6,655.6L1020.6,655.6L1020.6,655.6L1020.6,655.6L1020.6,655.6
			C1020.7,655.6,1020.7,655.6,1020.6,655.6c0.1-0.1,0.1-0.1,0.2-0.2c0.2-0.2,0.2-0.2,0.4-0.5c0.5-0.6,0.5-0.6,1.2-1.4l0,0
			c1.3-1.5,1.3-1.5,1.8-2l0.9-1.1l-1-1l-2.7-2.7l4.9-3l1.5-0.9l-1.1-1.3l-1.7-2.1l5.3-7.1l0.6-0.7l-0.4-0.8l-1.4-2.8l7.4-4.8
			l0.7-0.4V622v-6.9l8.5-2.7l1-0.3V611v-7.5l5.1-6.1l6.5-3.1l1-0.5l-0.2-1.1l-0.8-4.2l8.8-3.1l1.3-0.4l-0.3-1.3l-1.7-7.3l8.9-4
			l0.9-0.4v-1v-6h6.5h1.5v-1.5v-17.9l4.4,0.4l1.4,0.1l0.2-1.4l1.3-10.7h5.2h1.2l0.2-1.2l1.8-9.6l4.6-1.3l0.2-0.1l0.2-0.1l5.5-3.5
			l15.1-10.5l-1.7-2.5l-15,10.5l-5.3,3.3l-5.3,1.4l-0.9,0.2l-0.2,0.9l-1.8,9.3h-5.3h-1.3l-0.2,1.3l-1.3,10.6l-4.6-0.4l-1.6-0.1v1.6
			v18h-6.5h-1.5v1.5v6.5l-9.1,4.1l-1.1,0.5l0.3,1.2l1.7,7.2l-8.7,3.1l-1.2,0.4l0.2,1.3l0.8,4.4l-6,3l-0.3,0.1l-0.2,0.2l-5.5,6.5
			l-0.4,0.4v0.5v6.9l-8.5,2.7l-1,0.3v1.1v7.2l-7.8,5.1l-1.1,0.7l0.6,1.2l1.6,3.2l-5.4,7.3l-0.7,0.9l0.8,0.9l1.4,1.7l-5,3.1l-1.6,1
			l1.3,1.3l3,3c0,0,0.5-0.6-0.8,0.9l0,0c-0.7,0.8-0.7,0.8-1.2,1.4c-0.2,0.3-0.2,0.3-0.4,0.5c-0.1,0.1-0.1,0.1-0.1,0.1l0,0l0,0l0,0
			l0,0l0,0l0,0L1020.6,655.6L1020.6,655.6z"/>
		<polygon id="Path-6" class="st0" points="1020,637.6 1020.5,579.1 1020.5,579.5 1036,517.5 1036.1,517.1 1035.9,516.6 
			1034.1,511.6 1042,511.6 1045,511.6 1043.2,509.2 1039.1,503.6 1045.7,502.6 1048,502.2 1046.8,500.3 1040.1,489.7 1046.7,486.5 
			1047.5,486.1 1047.5,485.1 1047.5,470.4 1053.2,469.6 1054.5,469.4 1054.5,468.1 1054.5,447.8 1061.5,441.8 1062,441.3 
			1062,440.6 1062,433 1073.6,432.1 1075.1,432 1075,430.5 1073.2,412.5 1080.2,414.1 1081.4,414.4 1081.9,413.2 1084.5,406.1 
			1093.5,406.1 1094.8,406.1 1095,404.9 1096.7,393.8 1103.9,397 1105.8,397.9 1106,395.7 1107.3,378.1 1120.8,385.4 1121.8,386 
			1122.6,385.1 1133.3,373.1 1137.2,375.4 1138.2,376 1139,375.2 1145.6,369.1 1169.6,367.1 1170.5,367.1 1170.8,366.3 
			1173.2,361.5 1179,363.5 1180.1,363.9 1180.7,363 1186.5,355 1194.4,358.5 1194.9,358.7 1195.5,358.6 1204.7,355.5 1206.2,358.3 
			1206.6,359.3 1207.7,359.1 1220,357.2 1224.5,361.2 1225.2,361.9 1226.1,361.5 1232.5,358.5 1234.8,361.5 1235.2,362.1 
			1235.9,362.1 1279.9,364.1 1280.3,364.1 1280.6,364 1311.6,350.5 1312.4,350.1 1312.5,349.2 1313.5,333.7 1310.5,333.5 
			1309.6,348.1 1279.7,361.1 1236.8,359.2 1234.2,355.7 1233.5,354.8 1232.4,355.3 1225.8,358.4 1221.5,354.5 1221,354 
			1220.3,354.1 1208.4,356 1206.8,353 1206.3,351.8 1205,352.2 1195.1,355.5 1186.6,351.8 1185.5,351.3 1184.8,352.3 1178.9,360.3 
			1173,358.2 1171.8,357.8 1171.2,359 1168.5,364.2 1144.9,366.1 1144.4,366.2 1144,366.5 1137.8,372.3 1133.8,369.8 1132.7,369.2 
			1131.9,370.1 1121.2,382.2 1106.7,374.3 1104.7,373.2 1104.5,375.5 1103.2,393.4 1096.1,390.3 1094.3,389.5 1094,391.4 
			1092.2,403.1 1083.5,403.1 1082.5,403.1 1082.1,404.1 1079.6,410.9 1071.8,409.2 1069.8,408.7 1070,410.8 1071.9,429.3 
			1060.4,430.1 1059,430.2 1059,431.6 1059,439.9 1052,446 1051.5,446.4 1051.5,447.1 1051.5,466.8 1045.8,467.6 1044.5,467.8 
			1044.5,469.1 1044.5,484.2 1037.3,487.8 1035.9,488.5 1036.7,489.9 1043,500 1036.3,501.2 1033.8,501.6 1035.3,503.5 1039,508.6 
			1032,508.6 1029.9,508.6 1030.6,510.6 1033.1,517.6 1033,516.8 1017.5,578.8 1017.5,578.9 1017.5,579.1 1017,637.6 		"/>
		<path id="Path-7" class="st0" d="M1321.6,314.8c0,0.1,0.1,0.2,0.2,0.3c0.1,0.3,0.3,0.6,0.5,1c0.5,1,1.1,2.2,1.7,3.5
			c1.8,3.6,3.7,7.2,5.5,10.5c0.8,1.5,1.6,2.9,2.4,4.2c4.6,7.8,7.6,11.8,10.1,11.8c3.1,0,6-2.9,6.9-6.8c1.1-4.4-0.3-9.3-4.3-13.7
			c-2-2.3-4.4-4.3-7.1-6.1c-3.1-2.1-6.4-3.8-9.7-5.2c-1.2-0.5-2.2-0.9-3.2-1.2c-0.6-0.2-1-0.3-1.3-0.4l-3.2-0.9L1321.6,314.8
			L1321.6,314.8L1321.6,314.8z M1324.4,313.5l-1.8,2.1c0.2,0.1,0.6,0.2,1.1,0.4c0.9,0.3,1.9,0.7,3,1.1c3.1,1.3,6.2,2.9,9.1,4.9
			c2.5,1.7,4.7,3.6,6.5,5.6c3.4,3.7,4.5,7.7,3.6,11c-0.7,2.7-2.5,4.5-4,4.5c-0.8,0-3.9-4.1-7.5-10.4c-0.8-1.3-1.5-2.7-2.3-4.1
			c-1.8-3.3-3.7-6.9-5.4-10.4c-0.6-1.2-1.2-2.4-1.7-3.4c-0.2-0.4-0.3-0.7-0.5-1C1324.4,313.7,1324.4,313.5,1324.4,313.5
			L1324.4,313.5L1324.4,313.5z"/>
		<path id="Path-7-Copy" class="st0" d="M1181.9,470.1c0.1,0.1,0.1,0.2,0.3,0.3c0.2,0.3,0.5,0.6,0.8,0.9c0.9,1,1.8,2,2.9,3.2
			c3,3.3,6.1,6.6,9.1,9.7c0.7,0.7,1.4,1.4,2,2.1c8,8.1,13,12.4,15.5,12.4c1.8,0,3.1-0.9,3.1-2.7c0-1.1-0.6-2.4-1.6-4
			c-1.6-2.5-4.4-5.8-9.4-11.3c-2-2.3-4.4-4.3-7.1-6.1c-3.1-2.1-6.4-3.8-9.7-5.2c-1.2-0.5-2.2-0.9-3.2-1.2c-0.6-0.2-1-0.3-1.3-0.4
			l-5-1.4L1181.9,470.1L1181.9,470.1L1181.9,470.1z M1195.8,477c2.5,1.7,4.7,3.6,6.5,5.6c4.9,5.4,7.6,8.6,9.1,10.9
			c0.8,1.2,1.2,2,1.2,2.4c0-0.1,0.1-0.2,0.2-0.4c0,0-0.1,0-0.4,0c-0.4,0-2.2-1.2-4.7-3.3c-2.4-2-5.3-4.8-8.7-8.2
			c-0.7-0.7-1.3-1.4-2-2.1c-3-3.1-9.1-9.6-9.1-9.6S1192.9,475,1195.8,477z"/>
		<path id="Path-7-Copy-6" class="st0" d="M1127,486.5c0,0-3.1,0.6-4.7,0.9s-3.1,0.6-4.6,0.8c-8.7,1.5-14.9,2.2-16.2,1.6
			c-0.3-0.1-0.5-0.3-0.5-0.3c0.2,0.2,0.2,0.6,0.1,0.9c0,0.1,0,0.1,0.1,0c0.3-0.2,0.7-0.4,1.2-0.6c2-0.8,5.3-1.6,11.2-2.9
			c1.5-0.3,3.1-0.5,4.8-0.7C1122.3,486,1127,486.5,1127,486.5z M1135.8,487.7l6.3-1.4l-6.3-1.5c-0.1,0-0.2,0-0.3-0.1
			c-0.3-0.1-0.5-0.1-0.9-0.2c-0.9-0.2-2-0.4-3.1-0.5c-4.4-0.7-9-1-13.2-0.7c-1.8,0.1-3.6,0.4-5.2,0.7c-6.1,1.3-9.5,2.2-11.7,3.1
			c-1.6,0.6-2.6,1.2-3,2.2c-0.7,1.5,0.3,2.6,1.9,3.3c2.1,0.9,8.2,0.3,17.9-1.4c1.5-0.3,3-0.5,4.6-0.9c3.1-0.6,6.1-1.2,9.1-1.8
			c1-0.2,2-0.4,2.8-0.6c0.3-0.1,0.5-0.1,0.8-0.2C1135.7,487.7,1135.7,487.7,1135.8,487.7L1135.8,487.7L1135.8,487.7z"/>
		<path id="Path-7-Copy-2" class="st0" d="M1171.6,479.5c0,0.1,0.1,0.2,0.1,0.4c0.1,0.3,0.2,0.7,0.3,1.1c0.3,1.1,0.7,2.4,1.1,3.8
			c1.2,3.9,2.5,7.8,3.8,11.4c1,2.8,2,5.3,2.9,7.5c2.8,6.7,4.8,10,7.2,10c3,0,7.1-3.4,9.3-7.7c2.7-5.2,2.4-10.8-1.7-15.3
			c-2-2.3-4.4-4.3-7.1-6.1c-3.1-2.1-6.4-3.8-9.7-5.2c-1.2-0.5-2.2-0.9-3.2-1.2c-0.6-0.2-1-0.3-1.3-0.4l-2.6-0.7L1171.6,479.5
			L1171.6,479.5L1171.6,479.5z M1175.3,481.5c0,0,0.9,0.4,1.4,0.6c3.1,1.3,6.2,2.9,9.1,4.9c2.5,1.7,4.7,3.6,6.5,5.6
			c3.2,3.5,3.4,7.8,1.3,11.9c-1.8,3.4-5,6.1-6.6,6.1c0.1,0,0.1,0,0.1,0c-0.1,0-0.2-0.1-0.3-0.3c-0.3-0.3-0.8-0.9-1.2-1.6
			c-0.9-1.5-1.9-3.6-3-6.3c-0.9-2.1-1.8-4.6-2.8-7.4c-1.3-3.6-2.5-7.4-3.7-11.3C1175.6,482.6,1175.3,481.5,1175.3,481.5z"/>
		<path id="Path-7-Copy-3" class="st0" d="M1151.9,490.1c0.1,0.1,0.1,0.2,0.3,0.3c0.2,0.3,0.5,0.6,0.8,0.9c0.9,1,1.8,2,2.9,3.2
			c3,3.3,6.1,6.6,9.1,9.7c0.7,0.7,1.4,1.4,2,2.1c8,8.1,13,12.4,15.5,12.4c1.8,0,3.1-0.9,3.1-2.7c0-1.1-0.6-2.4-1.6-4
			c-1.6-2.5-4.4-5.8-9.4-11.3c-2-2.3-4.4-4.3-7.1-6.1c-3.1-2.1-6.4-3.8-9.7-5.2c-1.2-0.5-2.2-0.9-3.2-1.2c-0.6-0.2-1-0.3-1.3-0.4
			l-5-1.4L1151.9,490.1L1151.9,490.1L1151.9,490.1z M1158.4,492.8c2.6,1.2,5.1,2.6,7.5,4.2c2.5,1.7,4.7,3.6,6.5,5.6
			c4.9,5.4,7.6,8.6,9.1,10.9c0.8,1.2,1.3,2.1,1,2.1c-0.4,0-2.2-1.2-4.7-3.3c-2.4-2-5.3-4.8-8.7-8.2c-0.7-0.7-1.3-1.4-2-2.1
			C1164.2,499,1157.8,492.5,1158.4,492.8z"/>
		<path id="Path-7-Copy-4" class="st0" d="M1141.6,499.7c0,0.1,0.1,0.2,0.1,0.4c0.1,0.3,0.3,0.6,0.4,1c0.5,1.1,1,2.3,1.5,3.6
			c1.6,3.8,3.3,7.5,5,11.1c0.8,1.8,1.7,3.4,2.5,5c4,7.9,6.8,11.9,9.3,11.9c3.5,0,5.2-6.2,5.1-14.1c-0.1-8.2-2.2-15.9-6.2-20.4
			c-5.1-5.6-10.5-5.6-15.1-2.2c-1.1,0.8-2,1.7-2.4,2.3l-0.5,0.7L1141.6,499.7L1141.6,499.7L1141.6,499.7z M1144.8,499.4
			c0,0,0.8-0.8,1.3-1.1c3.5-2.6,7.2-2.6,11.1,1.8c3.4,3.8,5.3,10.9,5.5,18.4c0,3.3-0.3,6.3-0.9,8.5c-0.5,1.8-1.1,2.6-1.2,2.6
			c-0.7,0-3.5-4-6.7-10.2c-0.8-1.5-1.6-3.2-2.4-4.9c-1.7-3.5-3.3-7.2-4.9-10.9c-0.6-1.3-1.1-2.5-1.5-3.6
			C1144.8,499.6,1144.8,499.4,1144.8,499.4z"/>
		<path id="Path-7-Copy-5" class="st0" d="M1136,499.7c0,0.1-0.1,0.2-0.1,0.4c-0.1,0.3-0.2,0.7-0.4,1.1c-0.4,1.2-0.8,2.6-1.3,4.1
			c-1.3,4.3-2.6,8.7-3.9,13c-0.4,1.5-0.9,3-1.3,4.5c-1.8,6.5-3.1,11.9-3.8,15.9c-0.4,2.3-0.6,4.2-0.6,5.5c0,2.1,0.6,3.4,2.3,3.4
			c2.9,0,11.1-4,16.9-8.4c7.9-6,11.2-12.1,6.7-17.1c-1.9-2.1-3.7-4.7-5.4-7.5c-1.9-3.3-3.5-6.7-4.8-10.2c-0.5-1.2-0.9-2.4-1.2-3.4
			c-0.1-0.4-0.2-0.7-0.3-0.9c0-0.2-0.1-0.3-0.1-0.3l-1.3-4.7L1136,499.7L1136,499.7L1136,499.7z M1137.5,504.9c0,0,0.1,0.3,0.2,0.5
			c1.4,3.6,3.1,7.3,5,10.7c1.8,3,3.7,5.8,5.7,8.1c2.8,3.1,0.3,7.6-6.3,12.7c-5.3,4.1-13,7.8-15.1,7.8c0.4,0,0.7,0.2,0.8,0.4
			c-0.1-0.1-0.1-0.4-0.1-0.9c0-1.1,0.2-2.8,0.6-4.9c0.7-3.9,2-9.2,3.8-15.7c0.4-1.5,0.8-2.9,1.3-4.5c1.2-4.3,2.5-8.7,3.9-12.9
			C1137.5,504.7,1137.5,504.9,1137.5,504.9z"/>
		<path id="Path-8" class="st0" d="M1349.1,286.2c0.1,0.2,0.2,0.5,0.4,0.9c0.3,0.7,0.7,1.5,1.2,2.4c1.3,2.5,2.7,4.9,4.4,7.2
			c4.9,6.8,10.3,10.9,16.4,10.9c6.7,0,10.7-3.3,9.9-8.1c-0.7-4.4-5.4-8.6-12.5-10.9c-5.1-1.6-8.2-2.6-9.8-3
			c-0.8-0.2-1.2-0.3-1.5-0.3c-0.1,0-0.1,0-0.3,0c-0.3,0.1-0.3,0.1-0.8,0.5c-0.7,0.8-0.5,1.6,0,2.1c0.2,0.2,0.3,0.3,0.5,0.4
			c0,0,0,0,0.1,0c0.1,0.1,0.2,0.1,0.3,0.1l0.9-2.8l-7.5-1.5l-2.8-0.6L1349.1,286.2L1349.1,286.2L1349.1,286.2z M1351.9,285.1l-1.7,2
			l7.5,1.5l14.1,2.8l-13.2-5.7c0,0-0.1,0-0.1-0.1l0,0c0.1,0,0.1,0.1,0.3,0.2c0.1,0.2,0.1,0.2,0.3,0.6c0.1,0.7,0.1,0.7-0.3,1.5
			c-0.5,0.4-0.5,0.4-0.8,0.4c-0.2,0-0.2,0-0.3,0c-0.1,0,0.2,0.1,0.7,0.2c1.5,0.4,4.7,1.4,9.7,3c6,1.9,9.9,5.4,10.4,8.5
			c0.4,2.6-1.9,4.6-7,4.6c-4.9,0-9.6-3.6-14-9.6c-1.6-2.2-3-4.5-4.2-6.9c-0.4-0.8-0.8-1.6-1.1-2.3
			C1352.1,285.5,1351.9,285.2,1351.9,285.1L1351.9,285.1L1351.9,285.1z"/>
		<path id="Path-9" class="st0" d="M1316.1,309.6c0,0.1,0.1,0.3,0.2,0.5c0.1,0.4,0.3,1,0.4,1.5c0.5,2,0.7,4.1,0.5,6
			c-0.3,3.2-1.6,5.5-4.2,6.6c-3.7,1.5-9.1,0.9-12-1.1c-2.7-2-2.2-4.7,3.4-8.2c4.6-3,8-4.6,10.1-5.2
			C1315.2,309.5,1315.7,309.5,1316.1,309.6c0.1-0.1,0.1-0.1,0-0.1c-0.1-0.1-0.1-0.2-0.1-0.4v0.3L1316.1,309.6L1316.1,309.6
			L1316.1,309.6z M1318.9,308.6l0.1,0.5c0-0.4-0.1-1-0.5-1.5c-1.9-2.4-6.6-1.2-15.8,4.7c-7.1,4.6-8.2,9.8-3.5,13.2
			c3.7,2.7,10.3,3.4,14.9,1.5c3.8-1.6,5.7-4.8,6.1-9.1c0.2-2.2,0-4.6-0.6-6.9C1319.3,309.9,1319.1,309.1,1318.9,308.6L1318.9,308.6
			L1318.9,308.6z"/>
		<path id="Path-10" class="st0" d="M1338.7,288c0.1-0.1,0.2-0.3,0.4-0.6c0.3-0.5,0.7-1,1.1-1.6c1.1-1.6,2.3-3.4,3.3-5.1
			c0.8-1.3,1.5-2.5,2.1-3.7c1.7-3.2,2.7-5.9,2.8-8c0.2-3-1.3-5-4.5-5c-0.8,0-1.3,0-3.1,0c-2.8-0.1-4.2-0.1-5.9,0
			c-5.6,0.2-9.6,1-12.3,3c-3.6,2.7-4.4,7-2.1,13c2.6,7,5,13.3,7,18.7c0.7,1.9,1.3,3.6,1.9,5c0.2,0.5,0.3,0.9,0.5,1.3
			c0.1,0.4,0.1,0.4,0.2,0.4l1.7-2c-0.1,0-0.4-0.1-0.7-0.2c-0.6-0.1-1.3-0.3-2-0.6c-2.1-0.7-4.2-1.5-6.1-2.6
			c-6.2-3.5-9.4-8.3-8.4-14.9c0.3-2.2,0.7-4.1,1.1-5.7c0.8-3.5,1.6-5.5,2.4-6.4c0.2-0.2,0.3-0.3,0.2-0.3c-0.1,0-0.3,0-0.4,0
			s-0.1-0.1-0.2-0.1l1.9-2.3c-0.1-0.1-0.3-0.2-0.5-0.3c-2.5-1.1-4.7,1.6-6.4,8.8c-0.4,1.7-0.8,3.7-1.1,5.9c-1.3,8,2.7,14,9.9,18
			c2.1,1.2,4.4,2.1,6.7,2.9c0.8,0.3,1.5,0.5,2.2,0.6c0.4,0.1,0.7,0.2,0.9,0.2l2.6,0.5l-0.9-2.5c0-0.1,0-0.1-0.2-0.4
			c-0.1-0.4-0.3-0.8-0.5-1.3c-0.5-1.4-1.1-3.1-1.9-5c-2-5.5-4.4-11.8-7-18.8c-1.8-4.9-1.3-7.8,1.1-9.6c2.1-1.6,5.6-2.3,10.6-2.4
			c1.6-0.1,3.1,0,5.8,0c1.8,0,2.3,0,3.1,0c1.3,0,1.6,0.4,1.5,1.7c-0.1,1.6-1,4-2.5,6.8c-0.6,1.1-1.3,2.3-2,3.5c-1,1.7-2.1,3.4-3.2,5
			c-0.4,0.6-0.7,1.1-1.1,1.5c-0.2,0.3-0.3,0.4-0.4,0.5L1338.7,288L1338.7,288z"/>
		<path id="Oval-7" class="st0" d="M1328,250.6c3.3,0,6-2.7,6-6s-2.7-6-6-6s-6,2.7-6,6S1324.7,250.6,1328,250.6L1328,250.6
			L1328,250.6z M1328,247.6c-1.7,0-3-1.3-3-3s1.3-3,3-3s3,1.3,3,3S1329.7,247.6,1328,247.6L1328,247.6L1328,247.6z"/>
		<path id="Oval-7-Copy" class="st0" d="M1318,260.6c3.3,0,6-2.7,6-6s-2.7-6-6-6s-6,2.7-6,6C1312,257.9,1314.7,260.6,1318,260.6
			L1318,260.6L1318,260.6z M1318,257.6c-1.7,0-3-1.3-3-3s1.3-3,3-3s3,1.3,3,3C1321,256.3,1319.7,257.6,1318,257.6L1318,257.6
			L1318,257.6z"/>
		<path id="Oval-7-Copy-2" class="st0" d="M1328,263.6c3.3,0,6-2.7,6-6s-2.7-6-6-6s-6,2.7-6,6C1322,260.9,1324.7,263.6,1328,263.6
			L1328,263.6L1328,263.6z M1328,260.6c-1.7,0-3-1.3-3-3s1.3-3,3-3s3,1.3,3,3S1329.7,260.6,1328,260.6L1328,260.6L1328,260.6z"/>
		<path id="Oval-7-Copy-3" class="st0" d="M1326,240.6c3.3,0,6-2.7,6-6s-2.7-6-6-6s-6,2.7-6,6S1322.7,240.6,1326,240.6L1326,240.6
			L1326,240.6z M1326,237.6c-1.7,0-3-1.3-3-3s1.3-3,3-3s3,1.3,3,3S1327.7,237.6,1326,237.6L1326,237.6L1326,237.6z"/>
		<path id="Oval-7-Copy-4" class="st0" d="M1356,240.6c3.3,0,6-2.7,6-6s-2.7-6-6-6s-6,2.7-6,6S1352.7,240.6,1356,240.6L1356,240.6
			L1356,240.6z M1356,237.6c-1.7,0-3-1.3-3-3s1.3-3,3-3s3,1.3,3,3S1357.7,237.6,1356,237.6L1356,237.6L1356,237.6z"/>
		<path id="Oval-7-Copy-5" class="st0" d="M1356,250.6c3.3,0,6-2.7,6-6s-2.7-6-6-6s-6,2.7-6,6S1352.7,250.6,1356,250.6L1356,250.6
			L1356,250.6z M1356,247.6c-1.7,0-3-1.3-3-3s1.3-3,3-3s3,1.3,3,3S1357.7,247.6,1356,247.6L1356,247.6L1356,247.6z"/>
		<path id="Oval-7-Copy-6" class="st0" d="M1356,260.6c3.3,0,6-2.7,6-6s-2.7-6-6-6s-6,2.7-6,6C1350,257.9,1352.7,260.6,1356,260.6
			L1356,260.6L1356,260.6z M1356,257.6c-1.7,0-3-1.3-3-3s1.3-3,3-3s3,1.3,3,3C1359,256.3,1357.7,257.6,1356,257.6L1356,257.6
			L1356,257.6z"/>
		<path id="Oval-7-Copy-7" class="st0" d="M1139,456.6c3.3,0,6-2.7,6-6s-2.7-6-6-6s-6,2.7-6,6S1135.7,456.6,1139,456.6L1139,456.6
			L1139,456.6z M1139,453.6c-1.7,0-3-1.3-3-3s1.3-3,3-3s3,1.3,3,3S1140.7,453.6,1139,453.6L1139,453.6L1139,453.6z"/>
		<path id="Oval-7-Copy-8" class="st0" d="M1151,456.6c3.3,0,6-2.7,6-6s-2.7-6-6-6s-6,2.7-6,6S1147.7,456.6,1151,456.6L1151,456.6
			L1151,456.6z M1151,453.6c-1.7,0-3-1.3-3-3s1.3-3,3-3s3,1.3,3,3S1152.7,453.6,1151,453.6L1151,453.6L1151,453.6z"/>
		<path id="Oval-7-Copy-9" class="st0" d="M1145,465.6c3.3,0,6-2.7,6-6s-2.7-6-6-6s-6,2.7-6,6S1141.7,465.6,1145,465.6L1145,465.6
			L1145,465.6z M1145,462.6c-1.7,0-3-1.3-3-3s1.3-3,3-3s3,1.3,3,3S1146.7,462.6,1145,462.6L1145,462.6L1145,462.6z"/>
		<path id="Oval-7-Copy-12" class="st0" d="M1179,446.6c3.3,0,6-2.7,6-6s-2.7-6-6-6s-6,2.7-6,6S1175.7,446.6,1179,446.6L1179,446.6
			L1179,446.6z M1179,443.6c-1.7,0-3-1.3-3-3s1.3-3,3-3s3,1.3,3,3S1180.7,443.6,1179,443.6L1179,443.6L1179,443.6z"/>
		<path id="Oval-7-Copy-11" class="st0" d="M1191,446.6c3.3,0,6-2.7,6-6s-2.7-6-6-6s-6,2.7-6,6S1187.7,446.6,1191,446.6L1191,446.6
			L1191,446.6z M1191,443.6c-1.7,0-3-1.3-3-3s1.3-3,3-3s3,1.3,3,3S1192.7,443.6,1191,443.6L1191,443.6L1191,443.6z"/>
		<path id="Oval-7-Copy-10" class="st0" d="M1185,455.6c3.3,0,6-2.7,6-6s-2.7-6-6-6s-6,2.7-6,6S1181.7,455.6,1185,455.6L1185,455.6
			L1185,455.6z M1185,452.6c-1.7,0-3-1.3-3-3s1.3-3,3-3s3,1.3,3,3S1186.7,452.6,1185,452.6L1185,452.6L1185,452.6z"/>
		<path id="Path-17" class="st0" d="M705,650.5l20,7l2,0.7v-2.1c0-0.1,0-0.1,0-0.3c0-0.4,0-0.4,0-0.9c0-1,0-2.2,0.1-3.5
			c0.1-3.8,0.1-7.9,0.2-12.5c0.2-12.9,0.5-25.8,0.9-37.8c0.5-19.6,1.2-35,1.9-44.4c0.2-2.1,0.8-10.3,0.9-12.1
			c0.4-5.9,0.8-10.6,1-15.2c0.8-14.1,0.9-24.8,0.1-32.7c-1-10.3-3.7-15.7-8.8-14.6c-7.1,1.6-10.2,6-10.7,12.7
			c-0.1,1.5-0.1,2.8,0,5.3c0.1,1.4,0.1,1.9,0.1,2.5c0,1-0.2,2.8-0.6,5.8c-0.1,1.2-1,7.5-1.3,9.5c-0.6,4.4-1,8.1-1.3,11.7
			c-0.7,8.5-0.8,15.3,0.1,20.3c1.2,6.5,0.5,11.5-2,21.2c-1.4,5.4-1.8,7.2-2.2,9.9c-0.3,1.8-0.4,3.5-0.4,5.1c0,4.5-0.1,15.2-0.4,30.3
			c0,1.8-0.1,3.6-0.1,5.4c-0.1,6.3-0.2,12.7-0.3,19c0,2.2-0.1,4.2-0.1,6c0,1,0,1,0,1.7c0,0.5,0,0.5,0,0.6v1.1L705,650.5L705,650.5
			L705,650.5z M707,648.1c0-0.3,0-0.5,0-1.2c0-1.8,0.1-3.8,0.1-6c0.1-6.3,0.2-12.7,0.3-19c0-1.9,0.1-3.7,0.1-5.4
			c0.3-15.1,0.4-25.9,0.4-30.4c0-1.5,0.1-3,0.4-4.7c0.4-2.6,0.8-4.3,2.1-9.6c2.6-10.1,3.3-15.5,2-22.5c-0.8-4.7-0.8-11.2-0.1-19.5
			c0.3-3.5,0.7-7.2,1.3-11.6c0.2-1.9,1.1-8.3,1.3-9.5c0.4-3.1,0.6-5,0.6-6.2c0-0.7,0-1.1-0.1-2.6c-0.1-2.3-0.1-3.6,0-5
			c0.4-5.5,2.7-8.8,8.4-10c2.5-0.5,4.4,3.4,5.2,12c0.8,7.7,0.7,18.3-0.1,32.2c-0.3,4.5-0.6,9.2-1,15.1c-0.1,1.8-0.7,10-0.9,12.1
			c-0.7,9.5-1.3,24.9-1.9,44.6c-0.3,12-0.6,24.9-0.9,37.8c-0.1,4.5-0.2,8.7-0.2,12.5c0,1,0,1.8,0,2.6C724,654.3,707,648.2,707,648.1
			z"/>
		<g id="Group" transform="translate(461.000000, 1026.000000)">
			<polygon id="Line-Copy-59" class="st0" points="261.8,-431.9 270.2,-431.9 270.2,-434.9 261.8,-434.9 			"/>
			<polygon id="Line-Copy-58" class="st0" points="261.8,-441.9 270.2,-441.9 270.2,-444.9 261.8,-444.9 			"/>
			<polygon id="Line-Copy-57" class="st0" points="261.8,-451.9 270.2,-451.9 270.2,-454.9 261.8,-454.9 			"/>
			<polygon id="Line-Copy-56" class="st0" points="261.8,-461.9 270.2,-461.9 270.2,-464.9 261.8,-464.9 			"/>
			<polygon id="Line-Copy-55" class="st0" points="261.8,-471.9 270.2,-471.9 270.2,-474.9 261.8,-474.9 			"/>
			<polygon id="Line-Copy-54" class="st0" points="265.8,-481.9 274.2,-481.9 274.2,-484.9 265.8,-484.9 			"/>
			<polygon id="Line-Copy-53" class="st0" points="265.8,-491.9 274.2,-491.9 274.2,-494.9 265.8,-494.9 			"/>
			<polygon id="Line-Copy-52" class="st0" points="266.8,-501.4 275.2,-501.4 275.2,-504.4 266.8,-504.4 			"/>
			<polygon id="Line-Copy-41" class="st0" points="266.8,-511.4 275.2,-511.4 275.2,-514.4 266.8,-514.4 			"/>
			<polygon id="Line-Copy-40" class="st0" points="266.8,-521.4 275.2,-521.4 275.2,-524.4 266.8,-524.4 			"/>
			<polygon id="Line-Copy-39" class="st0" points="266.8,-531.4 275.2,-531.4 275.2,-534.4 266.8,-534.4 			"/>
			<polygon id="Line-Copy-51" class="st0" points="261.8,-381.9 270.2,-381.9 270.2,-384.9 261.8,-384.9 			"/>
			<polygon id="Line-Copy-50" class="st0" points="261.8,-391.4 270.2,-391.4 270.2,-394.4 261.8,-394.4 			"/>
			<polygon id="Line-Copy-49" class="st0" points="261.8,-401.4 270.2,-401.4 270.2,-404.4 261.8,-404.4 			"/>
			<polygon id="Line-Copy-48" class="st0" points="261.8,-411.4 270.2,-411.4 270.2,-414.4 261.8,-414.4 			"/>
			<polygon id="Line-Copy-47" class="st0" points="261.8,-421.4 270.2,-421.4 270.2,-424.4 261.8,-424.4 			"/>
		</g>
		<path id="Path-18" class="st0" d="M756,533.6c-4.3,0-6.3,8.6-7.2,23.2c-0.7,11.2-0.3,23.5,0.8,26.8c0.4,1.3,0.4,2.7-0.1,4.8
			c-0.3,1.2-1.9,6.6-2.2,7.7c-1.8,6.6-2.7,12.9-2.7,21c0,18.6,0,18.6,0,27.6c0,2.8,0,2.8,0,3.4v0.9l0.9,0.4l10.5,5l0.5,0.2l0.5-0.1
			l7.5-1.5l1.2-0.2v-1.3c0-0.1,0-0.1,0-0.7c0-0.8,0-1.2-0.1-1.9c-0.1-2-0.1-4.3-0.2-6.8c-0.2-7.1-0.5-14.2-0.7-21.1
			c0-1.1-0.1-2.2-0.1-3.2c-0.6-17.9-0.9-29.7-0.9-32.8c0-1.2,0.1-3,0.3-5.9c0.1-1.7,0.6-8.5,0.6-9c0.2-2.7,0.3-5,0.4-7.2
			c0.8-13.9,0.6-21.7-1-24.2c-0.5-0.7-0.8-1.3-1-1.9c-0.1-0.3-0.5-1.3-0.5-1.3C761.5,533.7,760.9,533.6,756,533.6L756,533.6
			L756,533.6z M756,536.6c3.4,0,3.4,0,3.4,0.1c0,0,0.3,0.9,0.5,1.4c0.3,0.8,0.7,1.5,1.3,2.4c1.1,1.6,1.2,9.7,0.5,22.3
			c-0.1,2.2-0.3,4.5-0.4,7.2c0,0.6-0.5,7.4-0.6,9c-0.2,3-0.3,4.9-0.3,6.1c0,3.1,0.3,15,0.9,32.9c0,1.1,0.1,2.1,0.1,3.2
			c0.2,6.9,0.5,14,0.7,21.1c0.1,2.5,0.3,8.1,0.3,8.1l-5.8,1.2l-9.2-4.4c0,0,0,0.4,0-2.4c0-9.1,0-9.1,0-27.6c0-7.8,0.9-13.9,2.6-20.2
			c0.3-1.1,1.9-6.5,2.2-7.8c0.6-2.6,0.7-4.5,0.1-6.4c-0.9-2.8-1.3-14.9-0.6-25.7c0.4-6,1-11.1,1.8-14.8c0.5-2,1-3.5,1.5-4.5
			C755.6,536.9,755.9,536.6,756,536.6L756,536.6L756,536.6z"/>
		<polygon id="Path-79" class="st0" points="357,-534.4 359.5,-319.4 359.5,-318 360.9,-317.9 513.9,-308.9 515.5,-308.8 
			515.5,-310.4 516.5,-532.4 513.5,-532.4 512.5,-312 362.5,-320.8 360,-534.4 		"/>
		<polygon id="Path-80" class="st0" points="672.5,-532.4 670.5,-377.9 670.5,-376.4 671.9,-376.4 955.4,-361.4 957,-361.3 
			957,-362.8 959.5,-534.3 956.5,-534.4 954,-364.5 673.5,-379.3 675.5,-532.4 		"/>
		<polygon id="Path-81" class="st0" points="1105,-532.4 1098.5,-281.4 1098.5,-279.9 1099.9,-279.9 1248.9,-274.4 1250.4,-274.3 
			1250.5,-275.8 1260.5,-529.3 1257.5,-529.4 1247.6,-277.4 1101.5,-282.8 1108,-532.3 		"/>
		<path id="Path-82" class="st0" d="M674.5-246.3l271.5,7.4l-8.5,805.6L681,573.6L674.5-246.3z M673-249.4h-1.6v1.6l6.5,823v1.5h1.5
			l259.5-7h1.4v-1.4l8.5-808.5v-1.5h-1.5L673-249.4L673-249.4L673-249.4z"/>
		<path id="Path-83" class="st0" d="M1099-128.8l132.5,5.4l-18.5,719l1.5-1.5l-131.5,1l1.5,1.5L1099-128.8z M1097.6-131.9l-1.5-0.1
			v1.5l-14.5,727v1.5h1.5l131.5-1h1.5v-1.5l18.5-720.5v-1.5l-1.5-0.1L1097.6-131.9L1097.6-131.9L1097.6-131.9z"/>
		<path id="Path-84" class="st0" d="M981.9,654.4c0,0,3.7,3.1,6,4.6c9.2,5.9,20.7,9.1,34.7,8.2c12.3-0.8,22.3-3.3,30.4-7
			c3.3-1.5,8.4-4.8,8.4-4.8l-11.1,67.7l-56-1.4L981.9,654.4z M980.7,648.8l-3.9-5.4l1.2,6.5l13.5,73.5l0.2,1.2h1.2l58.5,1.5h1.3
			l0.2-1.3l12-73l0.8-5l-3.4,3.7c-0.1,0.1-0.2,0.3-0.5,0.5c-0.5,0.5-1.1,1-1.9,1.5c-2.2,1.6-4.9,3.2-8.2,4.7
			c-7.7,3.5-17.5,5.9-29.4,6.7c-13.4,0.9-24.3-2.1-32.9-7.7c-2.6-1.7-4.9-3.5-6.7-5.4c-0.6-0.6-1.2-1.2-1.6-1.7
			C980.9,649.1,980.8,648.8,980.7,648.8L980.7,648.8L980.7,648.8z"/>
		<path id="Path-171" class="st0" d="M830.2,349c-0.5-0.5-0.9-0.9-1.4-1.5c-2.2-2.7-3.7-6-4.3-10.1c-0.3-2-0.4-4.2-0.5-6.5
			c-0.1-3,0-6.2,0.2-9.4C824.2,320.1,830.7,349.5,830.2,349z M831.8,354l2.8,1.4l-0.7-3.1l-9-40.5l-1.8-8.1L822,312
			c0,0.1,0,0.2,0,0.4c0,0.3-0.1,0.6-0.1,1c-0.1,1.1-0.3,2.3-0.4,3.6c-0.4,4.8-0.6,9.6-0.5,14.1c0.1,2.5,0.2,4.7,0.5,6.8
			c0.6,4.7,2.4,8.5,5,11.6c1.1,1.4,2.4,2.5,3.6,3.4C830.8,353.4,831.5,353.8,831.8,354L831.8,354L831.8,354z"/>
		<path id="Path-172" class="st0" d="M837.4,355.1c0.1,0,0.2,0,0.3-0.1c0.3-0.1,0.6-0.1,1-0.2c1-0.2,2.2-0.4,3.4-0.7
			c2.3-0.4,4.5-0.7,6.6-0.8c5.6-0.4,9.2,0.3,9.9,1.9c1,2.3,3.4,7.5,6.8,14.7c0.1,0.2,0.1,0.2,0.2,0.5c1.6,3.4,3.4,7,5.1,10.6
			c0.6,1.3,1.2,2.4,1.7,3.5c0.2,0.4,0.3,0.6,0.5,1c0.1,0.3,0.1,0.3,0.2,0.3l2.8-1l-11-42l-0.4-1.6l-1.6,0.6l-26.5,10.5L837.4,355.1
			L837.4,355.1L837.4,355.1z M849.7,350.2l12.8-5.1c0,0,7.5,27.3,5.9,23.9c-0.1-0.2-0.1-0.2-0.2-0.5c-3.4-7.1-5.8-12.3-6.8-14.5
			C860,350.7,849.7,350.2,849.7,350.2z"/>
		<polygon id="Path-175" class="st0" points="262,775.6 1360,757.1 1360,754.1 262,772.6 		"/>
		<path class="st1" d="M589.6,713l-1.8-0.5l-12.3-3.4l-0.6-22.1l-0.1-4.9l-1.8,4.5l-1.1,2.7l-10.5-14.8l-0.3-0.4h-0.5l-30.7,0.6
			l-0.3-7l-2.1-15.2l-0.7-5.1l-1.3,5l-3.3,13.1v0.2l-0.3,8.5l-8.9-2.3l-0.7-0.2l-0.4,0.7l-3.1,5.4l-2.7-4l-1-1.5l-0.8,1.6l-2.1,4.5
			l-27.4,1.4v-7.6l-1.2-25V647l-0.1-0.2l-4.3-10.7l1.1-7.4v-0.3l-0.1-0.2l-8.8-23.3v-4.8h1.4v-2h-1.4v-0.8v-1h-2v1v0.8h0.1h-1v2h1
			h0.2v4.7l-9.1,20.6l-0.1,0.2v0.2l-0.3,20.8l-6.8,1.1l0.2-4.1v-0.1l-1.5-18.4v-0.3l-0.2-0.2l-3.5-4.9l-8-26l-0.8-2.7l-1.1,2.6
			L418.2,619l-2.6,3.1l-0.2,0.3v0.4l0.8,17.8l-2.4,0.4l-0.8,0.2v0.9l1.8,51.6l-2.1,0.9l-0.6,0.3v0.7l0.6,21.7l-1.2-0.2l-1.1-0.1v1.1
			v27.6v1h1l175.1-3.3h1v-1l-0.6-16.9l-0.3-10.2l1.4-1.2L589.6,713z M412.5,744.8v-25.5l1.2,0.2l1.2,0.1v-1.2l-0.6-22.1l2.1-1
			l0.6-0.3v-0.7l-1.7-51.4l2.4-0.4l0.9-0.2v-0.9l-0.9-18.3l2.4-3l0.1-0.1l0.1-0.1l9.3-22.9l7.2,23.4v0.2l0.1,0.1l3.4,4.8l1.5,18.1
			l-0.3,5.3l-0.1,1.2l1.2-0.2l8.9-1.5l0.8-0.1v-0.8l0.3-21.5l8.1-18.4l7.9,20.9l-1.1,7.5v0.3l0.1,0.3l4.4,10.8l1.2,24.8v8.6v1.1
			l1.1-0.1l29-1.5h0.6l0.3-0.5l1.6-3.4l2.6,3.9l0.9,1.4l0.8-1.4l3.5-6.2l9.3,2.5l1.2,0.3v-1.3l0.3-9.7l2-7.9l1.4,10l0.3,7.9v1h1
			l31.2-0.6l11.2,15.9l1.1,1.5l0.7-1.6l0.5,18v0.7l0.7,0.2l11.2,3.1l-0.3,0.3l-0.4,0.3v0.5l0.3,10.7l0.6,15.9L412.5,744.8z"/>
		<path id="DESIGN" class="st0" d="M979.3,787.2v22.2h1.9c0.6,0,1.3,0,1.9,0c0.7,0,1.3,0,2,0s1.3,0,2,0c1,0,1.9-0.3,2.7-0.9
			s1.6-1.4,2.2-2.4c0.6-1,1.1-2.2,1.5-3.5s0.5-2.8,0.5-4.3s-0.2-2.9-0.5-4.3c-0.4-1.3-0.9-2.5-1.5-3.5s-1.4-1.8-2.3-2.4
			c-0.9-0.6-1.8-0.9-2.8-0.9L979.3,787.2L979.3,787.2z M976.6,784.5H987c1.4,0,2.6,0.4,3.8,1.1c1.2,0.7,2.2,1.7,3.1,2.9
			c0.9,1.2,1.6,2.7,2.1,4.4s0.8,3.4,0.8,5.3s-0.3,3.7-0.8,5.3c-0.5,1.7-1.2,3.1-2.1,4.4c-0.9,1.2-1.9,2.2-3.1,3
			c-1.2,0.7-2.4,1.1-3.8,1.2h-10.4V784.5z M1016.9,798.8h-11.7v10.6h13.7v2.7h-16.4v-27.6h16.4v2.6h-13.7v9h11.7V798.8z
			 M1026.6,806.5c0.7,1,1.5,1.8,2.5,2.4s2.1,0.9,3.4,0.9c0.7,0,1.5-0.1,2.1-0.4c0.7-0.2,1.3-0.6,1.8-1s0.9-0.9,1.2-1.5
			c0.3-0.6,0.5-1.2,0.5-1.9c0-0.6-0.1-1.2-0.4-1.8s-0.7-1.1-1.2-1.6s-1.1-0.9-1.7-1.2c-0.7-0.3-1.4-0.6-2.1-0.7
			c-1.1-0.2-2.2-0.5-3.2-0.9c-1-0.5-1.8-1-2.6-1.7s-1.3-1.5-1.7-2.4c-0.4-0.9-0.6-1.8-0.6-2.8c0-1.1,0.2-2.1,0.7-3s1.1-1.7,1.9-2.4
			s1.7-1.2,2.8-1.6c1.1-0.4,2.2-0.6,3.4-0.6c1.6,0,3,0.3,4.3,0.9c1.3,0.6,2.4,1.5,3.4,2.6l-2.2,1.8c-0.7-0.8-1.5-1.5-2.4-1.9
			s-2-0.7-3.1-0.7c-0.8,0-1.5,0.1-2.2,0.4c-0.7,0.3-1.3,0.6-1.9,1c-0.5,0.4-1,1-1.3,1.5s-0.5,1.2-0.5,1.9s0.1,1.3,0.4,1.9
			c0.3,0.6,0.7,1.2,1.2,1.7s1.1,0.9,1.8,1.2c0.7,0.3,1.4,0.5,2.2,0.6c1.1,0.1,2.2,0.4,3.1,0.9c1,0.5,1.8,1.1,2.5,1.8
			s1.3,1.5,1.7,2.4c0.4,0.9,0.6,1.8,0.6,2.8s-0.2,2-0.7,2.9c-0.4,0.9-1,1.7-1.8,2.4s-1.7,1.2-2.7,1.6c-1,0.4-2.1,0.6-3.3,0.6
			c-1.7,0-3.2-0.4-4.6-1.2s-2.5-1.8-3.3-3.1L1026.6,806.5z M1049.4,812.1h-2.7v-27.6h2.7V812.1z M1075.4,808.7
			c-1.2,1.2-2.5,2.1-4,2.8s-3.1,1-4.7,1c-1.7,0-3.4-0.4-4.9-1.1c-1.5-0.7-2.9-1.7-4-3s-2.1-2.8-2.7-4.5c-0.7-1.7-1-3.5-1-5.4
			s0.3-3.8,1-5.5s1.6-3.2,2.7-4.5s2.5-2.3,4-3s3.2-1.1,4.9-1.1c1.7,0,3.3,0.4,4.8,1.1c1.5,0.7,3,1.8,4.2,3.1l-1.9,1.9
			c-1-1.1-2.1-1.9-3.4-2.5c-1.2-0.6-2.5-0.9-3.8-0.9c-1.4,0-2.6,0.3-3.9,0.9s-2.3,1.4-3.2,2.4c-0.9,1-1.6,2.2-2.2,3.6
			c-0.5,1.4-0.8,2.9-0.8,4.5s0.3,3.1,0.8,4.4s1.3,2.6,2.2,3.6c0.9,1,2,1.8,3.2,2.4c1.2,0.6,2.5,0.9,3.9,0.9c1.2,0,2.3-0.2,3.3-0.6
			c1-0.4,2-1,2.8-1.8v-6.8h-7.3V798h10v10.3V808.7z M1084.1,784.5l12.9,21.8v-21.8h2.7v27.6h-2.5l-12.9-21.9c0,1.7,0,3.4,0,5.1
			c0,1.7,0,3.5,0,5.2v11.6h-2.7v-27.6L1084.1,784.5L1084.1,784.5z"/>
		<path id="TECH" class="st0" d="M690.2,787.1v12.2c0,2.1,0,4.2,0,6.4s0,4.3,0,6.4h-2.7v-25h-8.7v-2.6h20v2.6H690.2z M718.9,798.8
			h-11.7v10.6h13.7v2.7h-16.4v-27.6h16.4v2.6h-13.7v9h11.7V798.8z M745.7,790.4c-1-1.1-2.1-1.9-3.4-2.5c-1.2-0.6-2.5-0.9-3.8-0.9
			s-2.6,0.3-3.8,0.9c-1.2,0.6-2.3,1.4-3.2,2.4s-1.6,2.2-2.1,3.6c-0.5,1.4-0.8,2.8-0.8,4.4c0,1.5,0.2,3,0.7,4.4s1.2,2.6,2.1,3.6
			c0.9,1,1.9,1.9,3.1,2.5c1.2,0.6,2.5,0.9,3.9,0.9c1.3,0,2.6-0.3,3.7-0.9s2.3-1.4,3.3-2.4l1.9,1.8c-1.3,1.3-2.6,2.3-4.2,3.1
			c-1.5,0.8-3.1,1.1-4.8,1.1s-3.2-0.4-4.8-1.1s-2.9-1.8-4-3c-1.2-1.3-2.1-2.8-2.8-4.5s-1-3.6-1-5.5s0.3-3.6,1-5.3s1.6-3.2,2.7-4.5
			c1.1-1.3,2.5-2.3,4-3.1s3.2-1.1,4.9-1.1s3.3,0.4,4.9,1.1c1.6,0.8,3,1.8,4.2,3.1L745.7,790.4z M755.7,798.8v6.4c0,1.1,0,2.3,0,3.5
			s0,2.3,0,3.4H753v-27.6h2.7v11.6h13.6v-11.6h2.6v27.6h-2.6v-13.3H755.7z"/>
		<path id="MEDIA" class="st0" d="M848.8,785.5h2.5v27.6h-2.7v-22c-1.2,2-2.4,4.1-3.7,6.3s-2.5,4.3-3.6,6.3h-1.7l-7.4-12.5
			c0,1.7,0,3.4,0,5.2s0,3.5,0,5.2v11.6h-2.7v-27.6h2.4l8.5,14.3L848.8,785.5z M871.8,799.8h-11.7v10.6h13.7v2.7h-16.3v-27.6h16.4
			v2.6h-13.7v9h11.7v2.7H871.8z M881.9,788.2v22.2h1.9c0.6,0,1.3,0,1.9,0c0.7,0,1.3,0,2,0s1.3,0,2,0c1,0,1.9-0.3,2.7-0.9
			c0.9-0.6,1.6-1.4,2.2-2.4c0.6-1,1.1-2.2,1.5-3.5s0.5-2.8,0.5-4.3s-0.2-2.9-0.5-4.3c-0.4-1.3-0.9-2.5-1.5-3.5s-1.4-1.8-2.3-2.4
			c-0.9-0.6-1.8-0.9-2.8-0.9L881.9,788.2L881.9,788.2z M879.2,785.5h10.3c1.4,0,2.6,0.4,3.8,1.1c1.2,0.7,2.2,1.7,3.1,2.9
			c0.9,1.2,1.6,2.7,2.1,4.4s0.8,3.4,0.8,5.3s-0.3,3.7-0.8,5.3c-0.5,1.7-1.2,3.1-2.1,4.4c-0.9,1.2-1.9,2.2-3.1,3
			c-1.2,0.7-2.4,1.1-3.8,1.2h-10.4L879.2,785.5z M907.9,813.1h-2.7v-27.6h2.7V813.1z M927.1,799.4c-0.3-0.8-0.5-1.5-0.8-2.2
			s-0.5-1.4-0.8-2.1l0,0c-0.2-0.4-0.3-0.8-0.4-1.2c-0.1-0.4-0.3-0.7-0.4-1.1c-0.1-0.3-0.3-0.7-0.4-1.1c-0.1-0.4-0.3-0.8-0.5-1.3
			c-0.2,0.6-0.4,1.2-0.6,1.8c-0.2,0.6-0.4,1.1-0.6,1.7c-0.4,0.9-0.7,1.8-1,2.6s-0.6,1.7-1,2.8L927.1,799.4L927.1,799.4z
			 M922.7,785.5h2.1l10.2,27.6h-2.8l-4.2-11h-8.5c-0.6,1.8-1.3,3.6-2,5.5s-1.4,3.7-2.1,5.5h-2.8L922.7,785.5z"/>
	</g>
</g>
<path class="st0" d="M1254.7,118.4"/>
</svg>
