<?xml version="1.0" encoding="utf-8"?>
<!-- Generator: Adobe Illustrator 19.1.0, SVG Export Plug-In . SVG Version: 6.00 Build 0)  -->
<svg version="1.1" id="Ebene_1" xmlns="http://www.w3.org/2000/svg" xmlns:xlink="http://www.w3.org/1999/xlink" x="0px" y="0px"
	 viewBox="-399 627.8 393 428" style="enable-background:new -399 627.8 393 428;" xml:space="preserve">
<style type="text/css">
	.st0{filter:url(#Adobe_OpacityMaskFilter);}
	.st1{fill:#FFFFFF;}
	.st2{mask:url(#mask-2_1_);}
	.st3{fill:none;stroke:#B8E986;stroke-width:30;}
	.st4{fill:#B8E986;}
	.st5{fill:#84D446;}
</style>
<g id="Page-1_1_">
	<defs>
		<filter id="Adobe_OpacityMaskFilter" filterUnits="userSpaceOnUse" x="-414" y="647.8" width="423" height="423">
			<feColorMatrix  type="matrix" values="1 0 0 0 0  0 1 0 0 0  0 0 1 0 0  0 0 0 1 0"/>
		</filter>
	</defs>
	<mask maskUnits="userSpaceOnUse" x="-414" y="647.8" width="423" height="423" id="mask-2_1_">
		<g class="st0">
			<path id="path-1_2_" class="st1" d="M-202.5,1055.8C-94,1055.8-6,967.8-6,859.3s-88-196.5-196.5-196.5S-399,750.8-399,859.3
				S-311,1055.8-202.5,1055.8z"/>
		</g>
	</mask>
	<g id="now-closed-copy" class="st2">
		<g id="Oval-11_1_">
			<path id="path-1_1_" class="st3" d="M-202.5,1055.8C-94,1055.8-6,967.8-6,859.3s-88-196.5-196.5-196.5S-399,750.8-399,859.3
				S-311,1055.8-202.5,1055.8z"/>
		</g>
		<path id="NOW_1_" class="st4" d="M-325.3,788.7l51.8,60.5l-11.9-67.6l8.4-1.5l15.2,85.7l-7.7,1.4l-52-60.9
			c0.9,5.2,1.9,10.5,2.9,15.9c1,5.4,2,10.8,2.9,16l6.3,36l-8.3,1.5l-15.2-85.7L-325.3,788.7z M-205,785.3c-3.2-2.5-6.7-4.2-10.6-5.2
			c-3.9-0.9-7.9-1-11.9-0.3c-4.3,0.8-8.1,2.4-11.5,4.8c-3.4,2.5-6.2,5.5-8.4,9.2c-2.2,3.6-3.7,7.7-4.6,12.2c-0.8,4.5-0.8,9.2,0,14.1
			c0.9,5,2.5,9.5,4.8,13.5c2.3,4,5.2,7.4,8.5,10.1c3.3,2.7,7,4.6,11.1,5.8c4,1.2,8.2,1.4,12.5,0.6c4.4-0.8,8.3-2.4,11.7-4.9
			c3.4-2.5,6.3-5.6,8.5-9.2c2.2-3.7,3.7-7.8,4.5-12.4s0.8-9.3-0.1-14.3c-0.9-5.1-2.6-9.7-5.1-13.9
			C-198.2,791.2-201.3,787.9-205,785.3L-205,785.3z M-188.8,841.8c-2.9,4.5-6.4,8.2-10.6,11.1c-4.2,2.9-9,4.8-14.3,5.7
			c-5.3,0.9-10.5,0.7-15.6-0.7c-5.1-1.4-9.8-3.7-14.1-7c-4.3-3.3-8-7.4-11-12.4c-3.1-5-5.1-10.6-6.2-16.8c-1.1-6-1-11.9,0.1-17.5
			c1.1-5.6,3.1-10.7,5.9-15.2c2.8-4.5,6.4-8.4,10.8-11.5c4.4-3.1,9.3-5.1,14.7-6.1c5.5-1,10.9-0.7,16,0.7c5.2,1.4,9.8,3.8,14,7.1
			c4.2,3.3,7.7,7.4,10.6,12.3c2.9,4.9,4.9,10.4,6,16.5c1.1,6.4,1.1,12.6,0,18.3S-185.7,837.1-188.8,841.8L-188.8,841.8z
			 M-108.1,838.8l-7.8,1.4l-17.5-29.4c-0.4,2.8-0.9,5.6-1.5,8.4c-0.5,2.8-1.1,5.6-1.6,8.4c-0.5,2.6-1,5.5-1.5,8.4
			c-0.5,3-1,5.8-1.5,8.3l-7.7,1.4l-46.9-80.1l8.8-1.6l39.3,67c0.4-2.4,0.9-4.9,1.3-7.5c0.4-2.6,0.9-5.1,1.3-7.5l3-17.1
			c-1.7-3-3.5-6.1-5.4-9.3c-1.8-3.2-3.7-6.4-5.5-9.5c-1.9-3.3-3.8-6.6-5.8-10.2c-2-3.5-3.9-6.8-5.7-9.9l8.7-1.5l18.5,31.6
			c1.7,3,3.4,5.9,5.1,8.8c1.7,2.8,3.4,5.6,5.1,8.5c1,1.6,1.9,3.2,2.7,4.6c0.9,1.5,1.7,2.9,2.5,4.3c0.8,1.4,1.6,2.8,2.5,4.4
			c0.9,1.5,1.8,3.1,2.9,4.8c0.8-4.9,1.7-9.8,2.6-14.7c0.9-4.9,1.8-9.8,2.7-14.9c1.4-7.7,2.8-15.6,4.2-23.5
			c1.5-7.9,2.9-15.7,4.3-23.3l8.9-1.6L-108.1,838.8z M-284.6,907.8c-2.5-1.9-5.2-3.2-8-4c-2.8-0.8-5.6-0.9-8.4-0.4
			c-2.8,0.5-5.4,1.6-7.7,3.3c-2.3,1.7-4.2,3.8-5.8,6.3c-1.5,2.5-2.6,5.3-3.2,8.4c-0.6,3.1-0.6,6.3,0,9.6c0.6,3.3,1.6,6.3,3.2,9
			c1.6,2.7,3.5,5,5.7,6.9s4.8,3.2,7.6,4.1c2.8,0.8,5.7,1,8.7,0.5c2.8-0.5,5.3-1.6,7.6-3.3s4.3-3.8,6.2-6.4l4.7,3.2
			c-2.2,3.2-4.7,5.9-7.6,8.1c-2.9,2.2-6.2,3.6-9.7,4.2c-3.5,0.6-7,0.4-10.5-0.6c-3.5-1-6.7-2.7-9.6-4.9c-2.9-2.3-5.5-5.1-7.6-8.5
			s-3.5-7.1-4.3-11.2c-0.7-3.9-0.7-7.8,0.1-11.7c0.8-3.8,2.1-7.3,4-10.4c1.9-3.1,4.4-5.8,7.3-8c2.9-2.2,6.3-3.6,10-4.2
			c3.6-0.6,7.1-0.4,10.7,0.6c3.6,1,6.9,2.7,10,5L-284.6,907.8z M-262.6,945.4l27.5-4.8l1.1,5.7l-33.1,5.8l-10.4-58.5l5.6-1
			L-262.6,945.4z M-197.2,891.6c-2.2-1.7-4.6-2.9-7.3-3.5c-2.7-0.6-5.4-0.7-8.2-0.2c-2.9,0.5-5.6,1.6-7.9,3.3
			c-2.3,1.7-4.2,3.8-5.7,6.2c-1.5,2.5-2.5,5.2-3.1,8.3c-0.6,3.1-0.6,6.3,0,9.6c0.6,3.4,1.7,6.4,3.3,9.2c1.6,2.7,3.5,5,5.8,6.9
			c2.3,1.8,4.8,3.2,7.5,3.9c2.8,0.8,5.6,0.9,8.5,0.4c3-0.5,5.7-1.6,8-3.3c2.3-1.7,4.3-3.8,5.8-6.3c1.5-2.5,2.5-5.3,3.1-8.4
			s0.5-6.4-0.1-9.8c-0.6-3.5-1.8-6.7-3.5-9.5C-192.5,895.7-194.6,893.4-197.2,891.6L-197.2,891.6z M-186.1,930.1
			c-2,3.1-4.4,5.6-7.3,7.6c-2.9,2-6.1,3.3-9.7,3.9c-3.6,0.6-7.2,0.5-10.6-0.5c-3.5-1-6.7-2.6-9.6-4.8c-2.9-2.2-5.4-5.1-7.5-8.5
			c-2.1-3.4-3.5-7.2-4.2-11.5c-0.7-4.1-0.7-8.1,0.1-11.9c0.8-3.8,2.1-7.3,4.1-10.4c1.9-3.1,4.4-5.7,7.3-7.8c3-2.1,6.3-3.5,10-4.2
			c3.8-0.7,7.4-0.5,10.9,0.5c3.5,1,6.7,2.6,9.5,4.8s5.3,5,7.2,8.4s3.3,7.1,4.1,11.2c0.8,4.4,0.8,8.6,0,12.5
			C-182.5,923.4-184,927-186.1,930.1L-186.1,930.1z M-168.3,922.4c1.8,1.9,3.8,3.3,6.2,4.1c2.3,0.9,4.8,1.1,7.5,0.6
			c1.6-0.3,3-0.8,4.4-1.6c1.3-0.8,2.5-1.7,3.4-2.7c0.9-1.1,1.6-2.3,2.1-3.6s0.5-2.7,0.3-4.1c-0.2-1.3-0.8-2.5-1.6-3.6
			c-0.8-1.1-1.9-2.1-3.1-2.9c-1.2-0.8-2.6-1.5-4.1-1.9c-1.5-0.5-3.1-0.7-4.7-0.7c-2.4,0.1-4.8-0.2-7-0.8c-2.3-0.6-4.3-1.5-6.1-2.7
			c-1.8-1.2-3.3-2.7-4.6-4.4c-1.2-1.7-2-3.6-2.4-5.6c-0.4-2.3-0.3-4.5,0.3-6.6c0.6-2.1,1.6-4,3-5.8c1.4-1.7,3.2-3.2,5.2-4.4
			c2.1-1.2,4.4-2,6.9-2.5c3.4-0.6,6.5-0.5,9.4,0.3c2.9,0.8,5.6,2.2,8.2,4.2l-3.9,4.5c-1.8-1.5-3.7-2.6-5.9-3.2
			c-2.1-0.6-4.4-0.7-6.8-0.3c-1.6,0.3-3.2,0.8-4.6,1.6s-2.6,1.8-3.6,2.9c-1,1.1-1.7,2.4-2.2,3.8c-0.5,1.4-0.6,2.8-0.4,4.2
			c0.2,1.4,0.8,2.7,1.6,3.9s1.9,2.2,3.1,3.1c1.3,0.9,2.7,1.5,4.3,1.9c1.6,0.4,3.2,0.5,5,0.4c2.4-0.1,4.7,0.1,7,0.8
			c2.2,0.7,4.2,1.6,6,2.8c1.8,1.2,3.2,2.7,4.4,4.4c1.2,1.7,1.9,3.6,2.3,5.6c0.4,2.2,0.3,4.4-0.3,6.5c-0.6,2.1-1.6,4-3,5.8
			c-1.4,1.7-3.1,3.2-5.1,4.4c-2,1.2-4.3,2-6.8,2.5c-3.6,0.6-7,0.4-10.2-0.7s-5.9-2.9-8.2-5.3L-168.3,922.4z M-104,894.3l-24.8,4.4
			l4,22.4l28.9-5.1l1.1,5.7l-34.6,6.1l-10.4-58.5l34.6-6.1l1,5.6l-28.9,5.1l3.3,19l24.8-4.4L-104,894.3z M-92.5,867l8.3,47l4-0.7
			c1.4-0.2,2.7-0.5,4-0.8c1.4-0.2,2.8-0.5,4.2-0.8c1.4-0.3,2.8-0.5,4.1-0.8c2-0.4,3.8-1.4,5.4-3s2.9-3.5,3.9-5.9c1-2.4,1.6-5,1.9-8
			s0.1-6-0.5-9.3c-0.6-3.2-1.5-6.2-2.7-8.9c-1.3-2.7-2.8-5-4.5-6.8c-1.7-1.9-3.6-3.3-5.7-4.1c-2-0.9-4.1-1.2-6.2-0.9L-92.5,867z
			 M-99.3,862.2l21.9-3.9c2.9-0.5,5.7-0.1,8.5,0.9c2.8,1.1,5.3,2.8,7.7,5.1c2.4,2.3,4.4,5.1,6.1,8.4c1.7,3.3,2.9,7,3.6,11
			s0.8,7.9,0.4,11.6c-0.5,3.7-1.4,7-2.7,10c-1.4,2.9-3.2,5.4-5.4,7.4c-2.2,2-4.7,3.3-7.6,4l-22.1,3.9L-99.3,862.2z"/>
	</g>
	<polygon class="st4" points="-21.4,713 -33,707.3 -23.6,698.4 -17.5,692.6 -29.2,680.2 -35.3,686.1 -49.2,699.2 -66.2,690.7 
		-73.8,686.9 -81.4,702.1 -73.8,705.9 -62.3,711.7 -71.6,720.5 -77.8,726.4 -66,738.7 -59.9,732.9 -46.1,719.7 -29,728.2 -21.4,732 
		-13.8,716.8 	"/>
	<path id="Combined-Shape_1_" class="st5" d="M-55.5,728.8l-3.7,3.6l-6.2,5.9l-11.7-12.3l6.2-5.9l3.6-3.5L-55.5,728.8z"/>
</g>
</svg>
