<?xml version="1.0" encoding="utf-8"?>
<!-- Generator: Adobe Illustrator 19.1.0, SVG Export Plug-In . SVG Version: 6.00 Build 0)  -->
<svg version="1.1" id="Ebene_1" xmlns="http://www.w3.org/2000/svg" xmlns:xlink="http://www.w3.org/1999/xlink" x="0px" y="0px"
	 viewBox="-399 627.8 429.6 437.6" style="enable-background:new -399 627.8 429.6 437.6;" xml:space="preserve">
<style type="text/css">
	.st0{fill:#B8E986;}
	.st1{fill:#84D446;}
	.st2{enable-background:new    ;}
	.st3{fill:#481475;}
</style>
<g id="Page-1_1_">
	<g id="now-closed-copy">
		<g id="Oval-11_1_">
			<g id="path-1_1_">
				<path class="st0" d="M-202.5,676.8c48.7,0,94.6,19,129,53.5C-39,764.7-20,810.5-20,859.3c0,48.7-19,94.6-53.5,129
					c-34.5,34.5-80.3,53.5-129,53.5s-94.6-19-129-53.5C-366,953.8-385,908-385,859.3c0-48.7,19-94.6,53.5-129
					C-297.1,695.8-251.2,676.8-202.5,676.8 M-202.5,662.8c-108.5,0-196.5,88-196.5,196.5s88,196.5,196.5,196.5S-6,967.8-6,859.3
					S-94,662.8-202.5,662.8L-202.5,662.8z"/>
			</g>
		</g>
	</g>
	<polygon class="st0" points="-21.4,713 -33,707.3 -23.6,698.4 -17.5,692.6 -29.2,680.2 -35.3,686.1 -49.2,699.2 -66.2,690.7 
		-73.8,686.9 -81.4,702.1 -73.8,705.9 -62.3,711.7 -71.6,720.5 -77.8,726.4 -66,738.7 -59.9,732.9 -46.1,719.7 -29,728.2 -21.4,732 
		-13.8,716.8 	"/>
	<path id="Combined-Shape_1_" class="st1" d="M-55.5,728.8l-3.7,3.6l-6.2,5.9L-77.1,726l6.2-5.9l3.6-3.5L-55.5,728.8z"/>
</g>
<g id="Page-1">
	<g class="st2">
		<path class="st3" d="M-266.4,1005.8h-13.7l-0.1-45.6h14.8c1.7,0,3.3,0.4,4.8,1c1.5,0.6,2.8,1.5,4,2.5s2,2.3,2.7,3.7
			c0.7,1.4,1,2.8,1,4.4c0,2.1-0.5,3.9-1.5,5.6c-1,1.7-2.2,3.1-3.8,4.2c1.8,1.2,3.3,2.7,4.5,4.7c1.1,1.9,1.7,4,1.7,6.2
			c0,1.8-0.3,3.5-1,5.1c-0.7,1.6-1.6,3-2.8,4.2s-2.6,2.1-4.2,2.8c-1.6,0.7-3.4,1.1-5.3,1.1h0.1L-266.4,1005.8z M-275.7,964.6v14.8
			h10.4c1.1,0,2.2-0.3,3.2-0.6c1-0.4,1.8-0.9,2.5-1.5s1.3-1.5,1.7-2.4c0.4-0.9,0.6-1.9,0.6-3c0-0.9-0.2-1.8-0.6-2.6
			c-0.4-0.8-1-1.6-1.7-2.2s-1.6-1.2-2.5-1.6c-1-0.4-2-0.7-3.2-0.8H-275.7z M-265.3,1001.3c1.2,0,2.4-0.3,3.5-0.8
			c1.1-0.5,2-1.2,2.8-1.9c0.8-0.8,1.4-1.7,1.9-2.7c0.5-1,0.7-2.1,0.7-3.3c0-1.1-0.2-2.2-0.7-3.2c-0.5-1-1.1-1.9-1.9-2.7
			c-0.8-0.8-1.7-1.4-2.8-1.9c-1.1-0.5-2.3-0.8-3.5-0.9h-10.4v17.5H-265.3z"/>
		<path class="st3" d="M-242.4,1005.8h-4.5l-0.1-45.6h4.5L-242.4,1005.8z"/>
		<path class="st3" d="M-234.6,996.5c1.1,1.7,2.5,3,4.1,4c1.6,1,3.5,1.5,5.6,1.5c1.2,0,2.4-0.2,3.5-0.6s2.1-0.9,3-1.6
			c0.9-0.7,1.5-1.5,2-2.4c0.5-0.9,0.8-2,0.8-3.1c0-1-0.2-2-0.7-2.9c-0.5-0.9-1.1-1.8-1.9-2.6c-0.8-0.8-1.8-1.5-2.9-2
			c-1.1-0.5-2.2-0.9-3.4-1.2c-1.8-0.3-3.6-0.8-5.2-1.5c-1.6-0.8-3-1.7-4.3-2.9c-1.2-1.1-2.2-2.4-2.9-3.9c-0.7-1.5-1.1-3-1.1-4.6
			c0-1.8,0.4-3.5,1.1-5c0.7-1.5,1.8-2.8,3.1-4c1.3-1.1,2.8-2,4.5-2.6c1.7-0.6,3.6-1,5.6-1c2.6,0,5,0.5,7.1,1.5
			c2.1,1,3.9,2.4,5.6,4.3l-3.6,2.9c-1.1-1.4-2.5-2.4-4-3.2c-1.5-0.8-3.2-1.2-5.1-1.2c-1.3,0-2.5,0.2-3.7,0.6c-1.2,0.4-2.2,1-3.1,1.7
			c-0.9,0.7-1.6,1.6-2.2,2.5c-0.5,1-0.8,2-0.8,3.1c0,1.1,0.2,2.2,0.7,3.2c0.5,1,1.1,1.9,1.9,2.7c0.8,0.8,1.8,1.5,3,2
			c1.1,0.5,2.4,0.8,3.7,1c1.8,0.2,3.6,0.7,5.2,1.5c1.6,0.8,3,1.8,4.2,2.9c1.2,1.1,2.1,2.4,2.7,3.9c0.7,1.5,1,3,1,4.5
			c0,1.7-0.4,3.3-1.1,4.8c-0.7,1.5-1.7,2.8-3,4c-1.3,1.1-2.8,2-4.4,2.6c-1.7,0.6-3.5,1-5.4,1c-2.8,0-5.4-0.6-7.6-1.9
			c-2.3-1.3-4.1-3-5.5-5.1L-234.6,996.5z"/>
		<path class="st3" d="M-157.8,960.2h4.2v45.6h-4.5l-0.1-36.2c-2,3.3-4,6.7-6.1,10.3c-2.1,3.6-4.1,7.1-5.9,10.3h-2.8l-12.2-20.6
			c0,2.8,0,5.6,0,8.5c0,2.9,0,5.8,0,8.6v19.1h-4.4l-0.1-45.6h4l14,23.5L-157.8,960.2z"/>
		<path class="st3" d="M-113.6,1000c-1.9,2.1-4.1,3.6-6.5,4.7c-2.4,1.1-5.1,1.6-7.9,1.6c-2.8,0-5.5-0.6-8-1.8s-4.7-2.8-6.6-4.9
			c-1.9-2.1-3.4-4.6-4.5-7.4c-1.1-2.9-1.7-5.9-1.7-9.2c0-3.2,0.5-6.2,1.6-9c1.1-2.8,2.6-5.2,4.4-7.3c1.9-2.1,4.1-3.7,6.6-4.9
			c2.5-1.2,5.2-1.8,8.1-1.8c2.9,0,5.7,0.6,8.2,1.8c2.5,1.2,4.7,2.8,6.6,4.9c1.8,2.1,3.3,4.5,4.4,7.3c1.1,2.8,1.6,5.8,1.6,9
			c0,3.4-0.6,6.6-1.6,9.5C-110,995.4-111.6,997.9-113.6,1000z M-116.8,969.4c-1.4-1.6-3.1-2.8-5-3.6c-1.9-0.8-4-1.3-6.1-1.3
			c-2.3,0-4.4,0.5-6.4,1.5s-3.7,2.3-5.2,4c-1.5,1.7-2.6,3.6-3.5,5.9c-0.8,2.2-1.3,4.7-1.3,7.3c0,2.6,0.4,5.1,1.3,7.4
			c0.8,2.3,2,4.3,3.5,6c1.5,1.7,3.2,3,5.2,4c2,1,4.1,1.5,6.4,1.5c2.3,0,4.5-0.5,6.5-1.5c2-1,3.7-2.3,5.2-4c1.5-1.7,2.6-3.7,3.5-6
			c0.8-2.3,1.3-4.7,1.3-7.4c0-2.7-0.5-5.3-1.4-7.6C-113.9,973.1-115.1,971.1-116.8,969.4z"/>
		<path class="st3" d="M-98,985.2v20.6h-4.4l-0.1-45.6h13.4c1.8,0,3.6,0.3,5.2,0.9c1.6,0.6,3,1.4,4.2,2.5c1.2,1.1,2.2,2.3,2.9,3.7
			c0.7,1.4,1.1,3,1.1,4.6c0,1.7-0.4,3.2-1.1,4.6c-0.7,1.4-1.7,2.7-2.9,3.8c-1.2,1.1-2.6,2-4.2,2.6c-1.6,0.6-3.3,0.9-5.2,0.9h-4.4
			c1.2,1.4,2.4,2.7,3.7,4.1c1.3,1.4,2.5,2.8,3.8,4.2c1.9,2.2,3.9,4.5,6,6.9c2.1,2.5,4.1,4.7,5.9,6.7h-5.7L-98,985.2z M-98,964.5
			v14.8h9c1.2,0,2.3-0.2,3.4-0.6c1.1-0.4,2-0.9,2.8-1.6c0.8-0.7,1.4-1.5,1.9-2.4c0.5-0.9,0.7-1.9,0.7-2.9c0-1-0.2-1.9-0.7-2.8
			c-0.5-0.9-1.1-1.7-1.9-2.4c-0.8-0.7-1.8-1.2-2.8-1.6c-1.1-0.4-2.2-0.6-3.5-0.6H-98z"/>
		<path class="st3" d="M-37.1,1000c-2,2-4.2,3.5-6.6,4.6c-2.4,1.1-5,1.7-7.8,1.7c-2.9,0-5.5-0.6-8.1-1.8c-2.5-1.2-4.7-2.9-6.6-5
			s-3.4-4.6-4.5-7.4s-1.6-5.8-1.6-9c0-3.2,0.5-6.2,1.6-9s2.6-5.3,4.5-7.4s4.1-3.8,6.6-5c2.5-1.2,5.2-1.8,8.1-1.8
			c2.8,0,5.4,0.6,8,1.8c2.5,1.2,4.9,2.9,7,5.1l-3.1,3.1c-1.7-1.8-3.5-3.1-5.6-4.1c-2-1-4.1-1.5-6.3-1.5c-2.2,0-4.4,0.5-6.4,1.5
			s-3.7,2.3-5.2,4c-1.5,1.7-2.7,3.7-3.6,5.9c-0.9,2.3-1.3,4.7-1.3,7.3c0,2.6,0.4,5,1.3,7.3c0.9,2.3,2.1,4.3,3.6,6
			c1.5,1.7,3.2,3,5.2,4c2,1,4.1,1.5,6.4,1.5c1.9,0,3.8-0.4,5.5-1.1c1.7-0.7,3.3-1.7,4.6-3v-11.2h-12.1v-4.4h16.5v17L-37.1,1000z"/>
		<path class="st3" d="M-7.7,983.8H-27v17.5h22.5l0.1,4.5h-27l-0.1-45.6h27v4.4H-27v14.8h19.3V983.8z"/>
		<path class="st3" d="M4.8,960.2L26,996.2v-35.9h4.5l0.1,45.6h-4.1L5.2,969.7c0,2.8,0,5.6,0,8.5c0,2.9,0,5.7,0,8.5v19.1H0.8
			l-0.1-45.6H4.8z"/>
	</g>
	<g class="st2">
		<path class="st3" d="M-256.8,1042.8h-19.2v10.5c0,1.8,0,3.8,0,5.7c0,2,0,3.9,0,5.7h-4.4l-0.1-45.6h27v4.3h-22.5v14.8h19.2V1042.8z
			"/>
		<path class="st3" d="M-244.2,1044.2v20.6h-4.4l-0.1-45.6h13.4c1.8,0,3.6,0.3,5.2,0.9c1.6,0.6,3,1.4,4.2,2.5
			c1.2,1.1,2.2,2.3,2.9,3.7c0.7,1.4,1.1,3,1.1,4.6c0,1.7-0.4,3.2-1.1,4.6c-0.7,1.4-1.7,2.7-2.9,3.8c-1.2,1.1-2.6,2-4.2,2.6
			c-1.6,0.6-3.3,0.9-5.2,0.9h-4.4c1.2,1.4,2.4,2.7,3.7,4.1c1.3,1.4,2.5,2.8,3.8,4.2c1.9,2.2,3.9,4.5,6,6.9c2.1,2.5,4.1,4.7,5.9,6.7
			h-5.7L-244.2,1044.2z M-244.2,1023.5v14.8h9c1.2,0,2.3-0.2,3.4-0.6c1.1-0.4,2-0.9,2.8-1.6c0.8-0.7,1.4-1.5,1.9-2.4
			c0.5-0.9,0.7-1.9,0.7-2.9c0-1-0.2-1.9-0.7-2.8c-0.5-0.9-1.1-1.7-1.9-2.4c-0.8-0.7-1.8-1.2-2.8-1.6c-1.1-0.4-2.2-0.6-3.5-0.6
			H-244.2z"/>
		<path class="st3" d="M-212.8,1052.9c0.2,1,0.6,2,1.4,2.9c0.7,0.9,1.6,1.8,2.8,2.5c1.1,0.7,2.4,1.3,3.9,1.8c1.5,0.4,3,0.7,4.6,0.7
			c1.5,0,3-0.2,4.4-0.7c1.4-0.4,2.7-1,3.8-1.8c1.1-0.7,2-1.6,2.7-2.5c0.7-0.9,1.2-1.9,1.4-2.9v-33.7h4.5v33.8
			c-0.1,1.7-0.6,3.3-1.5,4.8s-2.1,2.8-3.7,3.9c-1.5,1.1-3.3,2-5.3,2.7s-4.1,1-6.3,1c-2.3,0-4.5-0.3-6.6-1s-3.8-1.5-5.4-2.7
			c-1.6-1.1-2.8-2.4-3.7-3.9s-1.5-3.1-1.6-4.8v-33.8h4.7V1052.9z M-207.2,1015.9c0-0.7,0.3-1.4,0.8-1.8c0.5-0.5,1.2-0.7,1.9-0.7
			c0.7,0,1.3,0.2,1.9,0.7c0.5,0.5,0.8,1.1,0.8,1.8c0,0.7-0.3,1.3-0.8,1.8c-0.6,0.5-1.2,0.8-1.9,0.8c-0.7,0-1.4-0.3-1.9-0.8
			S-207.2,1016.6-207.2,1015.9z M-198.8,1015.9c0-0.7,0.3-1.4,0.8-1.8c0.5-0.5,1.1-0.7,1.9-0.7s1.4,0.2,1.9,0.7
			c0.5,0.5,0.8,1.1,0.8,1.8c0,0.7-0.3,1.3-0.8,1.8s-1.2,0.8-1.9,0.8s-1.4-0.3-1.9-0.8C-198.6,1017.2-198.8,1016.6-198.8,1015.9z"/>
		<path class="st3" d="M-173.2,1042.8v10.5c0,1.8,0,3.8,0,5.7c0,2,0,3.9,0,5.7h-4.5l-0.1-45.6h4.5v19.1h22.3v-19.1h4.4l0.1,45.6
			h-4.4l-0.1-22H-173.2z"/>
		<path class="st3" d="M-119.7,1052.9c0.2,1,0.6,2,1.4,2.9c0.7,0.9,1.6,1.8,2.8,2.5c1.1,0.7,2.4,1.3,3.9,1.8c1.5,0.4,3,0.7,4.6,0.7
			c1.5,0,3-0.2,4.4-0.7c1.4-0.4,2.7-1,3.8-1.8c1.1-0.7,2-1.6,2.7-2.5c0.7-0.9,1.2-1.9,1.4-2.9v-33.7h4.5v33.8
			c-0.1,1.7-0.6,3.3-1.5,4.8s-2.1,2.8-3.7,3.9c-1.5,1.1-3.3,2-5.3,2.7s-4.1,1-6.3,1c-2.3,0-4.5-0.3-6.6-1c-2-0.7-3.8-1.5-5.4-2.7
			c-1.6-1.1-2.8-2.4-3.7-3.9s-1.5-3.1-1.6-4.8v-33.8h4.7V1052.9z"/>
		<path class="st3" d="M-53.7,1019.2h4.2v45.6H-54l-0.1-36.2c-2,3.3-4,6.7-6.1,10.3c-2.1,3.6-4.1,7.1-5.9,10.3h-2.8l-12.2-20.6
			c0,2.8,0,5.6,0,8.5c0,2.9,0,5.8,0,8.6v19.1h-4.4l-0.1-45.6h4l14,23.5L-53.7,1019.2z"/>
		<path class="st3" d="M-27.3,1028.6l10.6-8.7h3.7l0.1,44.9h-4.4l-0.1-38.8c-0.7,0.5-1.3,1-2,1.6c-0.7,0.6-1.4,1.2-2,1.7
			c-0.9,0.7-1.9,1.6-3.1,2.5c-1.1,0.9-2.1,1.7-2.9,2.4V1028.6z"/>
		<path class="st3" d="M-6.7,1042.4c0-3.2,0.4-6.1,1.3-8.9s2.1-5.2,3.6-7.3c1.5-2.1,3.3-3.7,5.3-4.9c2-1.2,4.2-1.8,6.5-1.8
			c2.3,0,4.4,0.6,6.5,1.8c2,1.2,3.8,2.8,5.3,4.9c1.5,2.1,2.7,4.5,3.6,7.3c0.9,2.8,1.3,5.7,1.3,8.9s-0.4,6.1-1.3,8.9
			c-0.9,2.8-2,5.2-3.6,7.3s-3.3,3.7-5.3,4.9c-2,1.2-4.2,1.8-6.5,1.8c-2.3,0-4.5-0.6-6.5-1.8c-2-1.2-3.8-2.9-5.3-4.9
			c-1.5-2.1-2.7-4.5-3.6-7.3C-6.2,1048.6-6.7,1045.6-6.7,1042.4z M-2.2,1042.4c0,2.6,0.3,5,1,7.3c0.7,2.2,1.5,4.2,2.7,5.9
			c1.1,1.7,2.4,3,3.9,4c1.5,1,3.1,1.5,4.7,1.5c1.7,0,3.3-0.5,4.8-1.5c1.5-1,2.8-2.3,3.9-4c1.1-1.7,2-3.6,2.6-5.9s1-4.7,1-7.3
			c0-2.5-0.3-4.9-1-7.2c-0.6-2.2-1.5-4.2-2.6-5.8c-1.1-1.7-2.4-3-3.9-4s-3.1-1.5-4.8-1.5c-1.7,0-3.3,0.5-4.7,1.5
			c-1.5,1-2.8,2.3-3.9,4c-1.1,1.7-2,3.6-2.7,5.8C-1.9,1037.5-2.2,1039.9-2.2,1042.4z"/>
	</g>
	<path id="NOW" class="st0" d="M-297.6,854.8c-2.5-1.9-5.2-3.2-8-4c-2.8-0.8-5.6-0.9-8.4-0.4c-2.8,0.5-5.4,1.6-7.7,3.3
		c-2.3,1.7-4.2,3.8-5.8,6.3c-1.5,2.5-2.6,5.3-3.2,8.4c-0.6,3.1-0.6,6.3,0,9.6c0.6,3.3,1.6,6.3,3.2,9c1.6,2.7,3.5,5,5.7,6.9
		c2.2,1.9,4.8,3.2,7.6,4.1c2.8,0.8,5.7,1,8.7,0.5c2.8-0.5,5.3-1.6,7.6-3.3s4.3-3.8,6.2-6.4l4.7,3.2c-2.2,3.2-4.7,5.9-7.6,8.1
		c-2.9,2.2-6.2,3.6-9.7,4.2c-3.5,0.6-7,0.4-10.5-0.6c-3.5-1-6.7-2.7-9.6-4.9c-2.9-2.3-5.5-5.1-7.6-8.5s-3.5-7.1-4.3-11.2
		c-0.7-3.9-0.7-7.8,0.1-11.7c0.8-3.8,2.1-7.3,4-10.4c1.9-3.1,4.4-5.8,7.3-8c2.9-2.2,6.3-3.6,10-4.2c3.6-0.6,7.1-0.4,10.7,0.6
		c3.6,1,6.9,2.7,10,5L-297.6,854.8z M-275.6,892.4l27.5-4.8l1.1,5.7l-33.1,5.8l-10.4-58.5l5.6-1L-275.6,892.4z M-210.2,838.6
		c-2.2-1.7-4.6-2.9-7.3-3.5c-2.7-0.6-5.4-0.7-8.2-0.2c-2.9,0.5-5.6,1.6-7.9,3.3c-2.3,1.7-4.2,3.8-5.7,6.2s-2.5,5.2-3.1,8.3
		c-0.6,3.1-0.6,6.3,0,9.6c0.6,3.4,1.7,6.4,3.3,9.2c1.6,2.7,3.5,5,5.8,6.9c2.3,1.8,4.8,3.2,7.5,3.9c2.8,0.8,5.6,0.9,8.5,0.4
		c3-0.5,5.7-1.6,8-3.3s4.3-3.8,5.8-6.3c1.5-2.5,2.5-5.3,3.1-8.4s0.5-6.4-0.1-9.8c-0.6-3.5-1.8-6.7-3.5-9.5
		C-205.5,842.7-207.6,840.4-210.2,838.6L-210.2,838.6z M-199.1,877.1c-2,3.1-4.4,5.6-7.3,7.6c-2.9,2-6.1,3.3-9.7,3.9
		c-3.6,0.6-7.2,0.5-10.6-0.5s-6.7-2.6-9.6-4.8c-2.9-2.2-5.4-5.1-7.5-8.5c-2.1-3.4-3.5-7.2-4.2-11.5c-0.7-4.1-0.7-8.1,0.1-11.9
		s2.1-7.3,4.1-10.4c1.9-3.1,4.4-5.7,7.3-7.8c3-2.1,6.3-3.5,10-4.2c3.8-0.7,7.4-0.5,10.9,0.5s6.7,2.6,9.5,4.8s5.3,5,7.2,8.4
		c2,3.4,3.3,7.1,4.1,11.2c0.8,4.4,0.8,8.6,0,12.5C-195.5,870.4-197,874-199.1,877.1L-199.1,877.1z M-181.3,869.4
		c1.8,1.9,3.8,3.3,6.2,4.1c2.3,0.9,4.8,1.1,7.5,0.6c1.6-0.3,3-0.8,4.4-1.6c1.3-0.8,2.5-1.7,3.4-2.7c0.9-1.1,1.6-2.3,2.1-3.6
		c0.4-1.3,0.5-2.7,0.3-4.1c-0.2-1.3-0.8-2.5-1.6-3.6s-1.9-2.1-3.1-2.9s-2.6-1.5-4.1-1.9c-1.5-0.5-3.1-0.7-4.7-0.7
		c-2.4,0.1-4.8-0.2-7-0.8s-4.3-1.5-6.1-2.7c-1.8-1.2-3.3-2.7-4.6-4.4c-1.2-1.7-2-3.6-2.4-5.6c-0.4-2.3-0.3-4.5,0.3-6.6
		c0.6-2.1,1.6-4,3-5.8c1.4-1.7,3.2-3.2,5.2-4.4c2.1-1.2,4.4-2,6.9-2.5c3.4-0.6,6.5-0.5,9.4,0.3c2.9,0.8,5.6,2.2,8.2,4.2l-3.9,4.5
		c-1.8-1.5-3.7-2.6-5.9-3.2c-2.1-0.6-4.4-0.7-6.8-0.3c-1.6,0.3-3.2,0.8-4.6,1.6s-2.6,1.8-3.6,2.9c-1,1.1-1.7,2.4-2.2,3.8
		s-0.6,2.8-0.4,4.2c0.2,1.4,0.8,2.7,1.6,3.9s1.9,2.2,3.1,3.1c1.3,0.9,2.7,1.5,4.3,1.9c1.6,0.4,3.2,0.5,5,0.4c2.4-0.1,4.7,0.1,7,0.8
		s4.2,1.6,6,2.8s3.2,2.7,4.4,4.4s1.9,3.6,2.3,5.6c0.4,2.2,0.3,4.4-0.3,6.5c-0.6,2.1-1.6,4-3,5.8s-3.1,3.2-5.1,4.4
		c-2,1.2-4.3,2-6.8,2.5c-3.6,0.6-7,0.4-10.2-0.7c-3.2-1.1-5.9-2.9-8.2-5.3L-181.3,869.4z M-117,841.3l-24.8,4.4l4,22.4l28.9-5.1
		l1.1,5.7l-34.6,6.1l-10.4-58.5l34.6-6.1l1,5.6l-28.9,5.1l3.3,19l24.8-4.4L-117,841.3z M-105.5,814l8.3,47l4-0.7
		c1.4-0.2,2.7-0.5,4-0.8c1.4-0.2,2.8-0.5,4.2-0.8c1.4-0.3,2.8-0.5,4.1-0.8c2-0.4,3.8-1.4,5.4-3c1.6-1.6,2.9-3.5,3.9-5.9
		c1-2.4,1.6-5,1.9-8s0.1-6-0.5-9.3s-1.5-6.2-2.7-8.9s-2.8-5-4.5-6.8s-3.6-3.3-5.7-4.1c-2-0.9-4.1-1.2-6.2-0.9L-105.5,814z
		 M-112.3,809.2l21.9-3.9c2.9-0.5,5.7-0.1,8.5,0.9c2.8,1.1,5.3,2.8,7.7,5.1c2.4,2.3,4.4,5.1,6.1,8.4c1.7,3.3,2.9,7,3.6,11
		c0.7,4,0.8,7.9,0.4,11.6c-0.5,3.7-1.4,7-2.7,10c-1.4,2.9-3.2,5.4-5.4,7.4s-4.7,3.3-7.6,4l-22.1,3.9L-112.3,809.2z"/>
</g>
</svg>
