<?xml version="1.0" encoding="utf-8"?>
<!-- Generator: Adobe Illustrator 19.1.0, SVG Export Plug-In . SVG Version: 6.00 Build 0)  -->
<svg version="1.1" id="Ebene_1" xmlns="http://www.w3.org/2000/svg" xmlns:xlink="http://www.w3.org/1999/xlink" x="0px" y="0px"
	 viewBox="48 -195.4 691 671" style="enable-background:new 48 -195.4 691 671;" xml:space="preserve">
<style type="text/css">
	.st0{filter:url(#Adobe_OpacityMaskFilter);}
	.st1{fill:#FFFFFF;}
	.st2{mask:url(#mask-2);}
	.st3{fill:#481475;}
</style>
<title>Components</title>
<desc>Created with Sketch.</desc>
<g id="Page-1">
	<defs>
		<filter id="Adobe_OpacityMaskFilter" filterUnits="userSpaceOnUse" x="351.7" y="71.6" width="126.1" height="134">
			<feColorMatrix  type="matrix" values="1 0 0 0 0  0 1 0 0 0  0 0 1 0 0  0 0 0 1 0"/>
		</filter>
	</defs>
	<mask maskUnits="userSpaceOnUse" x="351.7" y="71.6" width="126.1" height="134" id="mask-2">
		<g class="st0">
			<circle id="path-1" class="st1" cx="388.5" cy="5.1" r="200.5"/>
		</g>
		<g>
			<circle id="path-3" class="st1" cx="248.5" cy="275.1" r="200.5"/>
		</g>
		<g>
			<circle id="path-5" class="st1" cx="538.5" cy="275.1" r="200.5"/>
		</g>
		<g>
			<path id="path-7" class="st1" d="M351.7,202.3c11.9,2.2,24.3,3.4,36.8,3.4c15.9,0,31.3-1.8,46.1-5.3
				c-9.6-23.8-23.6-45.4-41.1-63.7C375.6,155.4,361.3,177.7,351.7,202.3L351.7,202.3z"/>
		</g>
	</mask>
	<g id="Components" class="st2">
		<path id="path-7_2_" class="st3" d="M393.5,151.6c10.8,12.6,19.8,26.5,26.9,41.4c-10.5,1.8-21.2,2.7-31.9,2.7
			c-7.5,0-15.1-0.4-22.6-1.3C373.2,178.9,382.4,164.6,393.5,151.6 M393.5,136.7c-17.9,18.8-32.2,41-41.8,65.6
			c11.9,2.2,24.3,3.4,36.8,3.4c15.9,0,31.3-1.8,46.1-5.3C425,176.5,411,154.9,393.5,136.7L393.5,136.7z"/>
		<path id="Oval-4" class="st3" d="M395.4,185.1c5.9,0,10.6-4.8,10.6-10.6s-4.8-10.6-10.6-10.6c-5.9,0-10.6,4.8-10.6,10.6
			S389.5,185.1,395.4,185.1z"/>
		<path id="LOGO" class="st3" d="M446.6,142.5l26.6-21.6l4.5-3.7l-7.3-9.1l-4.5,3.7l-26.6,21.6l-4.5,3.7l7.3,9.1L446.6,142.5z
			 M422.8,121.1l15-30.8l2.6-5.2L429.9,80l-2.6,5.2l-15,30.8l-2.6,5.2l10.5,5.1L422.8,121.1z M392.2,111.7V77.5v-5.8h-11.7v5.8v34.3
			v5.8h11.7V111.7z"/>
	</g>
</g>
</svg>
