<?xml version="1.0" encoding="UTF-8" standalone="no"?>
<svg width="149px" height="167px" viewBox="0 0 149 167" version="1.1" xmlns="http://www.w3.org/2000/svg" xmlns:xlink="http://www.w3.org/1999/xlink">
    <!-- Generator: Sketch 3.8.2 (29753) - http://www.bohemiancoding.com/sketch -->
    <title>EGG 1</title>
    <desc>Created with Sketch.</desc>
    <defs></defs>
    <g id="Page-1" stroke="none" stroke-width="1" fill="none" fill-rule="evenodd">
        <g id="EGG-1" fill="#FFFFFF">
            <path d="M125.983408,143.738689 C119.22022,151.131011 111.474127,156.79313 102.744896,160.725216 C94.0156645,164.657302 84.6181197,166.623316 74.5519793,166.623316 C64.485839,166.623316 54.9703334,164.500021 46.0051771,160.253368 C37.0400209,156.006715 29.1366464,150.147995 22.2948166,142.677031 C15.4529868,135.206068 10.0267894,126.359007 6.01606162,116.135583 C2.00533382,105.912159 0,94.9024833 0,83.1062251 C0,71.6245337 1.96601355,60.8900997 5.89809963,50.9026011 C9.83018571,40.9151024 15.1384223,32.1860023 21.8229686,24.7150387 C28.507515,17.2440752 36.3715692,11.3460345 45.4153672,7.02073983 C54.4591652,2.69544514 64.1712721,0.532830233 74.5519793,0.532830233 C85.08997,0.532830233 94.8807175,2.69544514 103.924516,7.02073983 C112.968314,11.3460345 120.793047,17.2047549 127.398952,24.5970767 C134.004857,31.9893986 139.195132,40.7184987 142.969935,50.7846391 C146.744738,60.8507795 148.632111,71.6245337 148.632111,83.1062251 C148.632111,95.3743337 146.666097,106.659251 142.734011,116.961317 C138.801925,127.263383 133.218447,136.189084 125.983408,143.738689 Z M114.423133,34.2699601 C109.390063,28.6077562 103.413381,24.2825264 96.49291,21.2941409 C89.5724385,18.3057555 82.2588681,16.8115852 74.5519793,16.8115852 C66.3732403,16.8115852 58.7451077,18.5416771 51.6673528,22.0019129 C44.5895978,25.4621486 38.4163153,30.1805812 33.1473199,36.157352 C27.8783246,42.1341229 23.7496961,49.1331311 20.7613107,57.1545867 C17.7729253,65.1760423 16.278755,73.8265019 16.278755,83.1062251 C16.278755,92.5432317 17.7729253,101.350972 20.7613107,109.529711 C23.7496961,117.70845 27.8783246,124.82542 33.1473199,130.880832 C38.4163153,136.936245 44.5895978,141.693997 51.6673528,145.154233 C58.7451077,148.614469 66.3732403,150.344561 74.5519793,150.344561 C82.8880018,150.344561 90.6340952,148.614469 97.7904919,145.154233 C104.946889,141.693997 111.159491,136.936245 116.428487,130.880832 C121.697482,124.82542 125.826111,117.70845 128.814496,109.529711 C131.802881,101.350972 133.297052,92.5432317 133.297052,83.1062251 C133.297052,73.3546516 131.6456,64.271669 128.342648,55.8570048 C125.039696,47.4423406 120.399904,40.246731 114.423133,34.2699601 Z" id="Combined-Shape"></path>
            <polygon id="Line" points="110.35175 39.268305 102.874428 34.0260521 99.7545365 42.6084665 90.1838461 69.0342614 68.3559082 46.1666925 61.8288584 39.3287694 57.1922632 47.566582 42.1910545 74.3972137 13.5201885 60.6850604 7.47981152 73.3149396 41.9798115 89.8149396 47.8879132 92.6405534 51.1001345 86.933418 64.8105052 62.7283979 87.8195304 86.8333075 95.6080549 94.9927874 99.4618377 84.3915335 109.771844 55.9596495 132.981583 72.231695 141.018417 60.768305"></polygon>
        </g>
    </g>
</svg>