<?xml version="1.0" encoding="UTF-8" standalone="no"?>
<svg width="241px" height="195px" viewBox="0 0 241 195" version="1.1" xmlns="http://www.w3.org/2000/svg" xmlns:xlink="http://www.w3.org/1999/xlink">
    <!-- Generator: Sketch 3.8.2 (29753) - http://www.bohemiancoding.com/sketch -->
    <title>EGG 2</title>
    <desc>Created with Sketch.</desc>
    <defs></defs>
    <g id="Page-1" stroke="none" stroke-width="1" fill="none" fill-rule="evenodd">
        <g id="EGG-2" fill="#FFFFFF">
            <polygon id="Line-Copy-61" points="58.1614854 123.560705 47.4630387 110.349223 8.60574067 141.815243 19.3041873 155.026724"></polygon>
            <polygon id="Line-Copy-60" points="69.0056535 187.031761 90.9242109 142.092059 94.6503656 134.452309 79.3708668 127 75.6447121 134.639749 53.7261547 179.579452 50 187.219201 65.2794988 194.671511"></polygon>
            <polygon id="Line-Copy-64" points="150.924211 142.092059 135.644712 134.639749 113.726155 179.579452 129.005654 187.031761"></polygon>
            <polygon id="Line-Copy-65" transform="translate(222.325183, 150.835755) scale(-1, 1) translate(-222.325183, -150.835755) " points="240.924211 132.092059 225.644712 124.639749 203.726155 169.579452 219.005654 177.031761"></polygon>
            <polygon id="Line" points="182 141.5 165 141.5 165 191.5 182 191.5"></polygon>
            <polygon id="Line-Copy-63" transform="translate(24.750000, 83.500000) rotate(90.000000) translate(-24.750000, -83.500000) " points="33.25 107.75 33.25 67.75 33.25 59.25 16.25 59.25 16.25 67.75 16.25 107.75"></polygon>
            <path d="M128.872669,156.9995 C126.574414,158.378089 124.198491,159.619993 121.744896,160.725216 C113.015664,164.657302 103.61812,166.623316 93.5519793,166.623316 C83.485839,166.623316 73.9703334,164.500021 65.0051771,160.253368 C56.0400209,156.006715 48.1366464,150.147995 41.2948166,142.677031 C34.4529868,135.206068 29.0267894,126.359007 25.0160616,116.135583 C21.0053338,105.912159 19,94.9024833 19,83.1062251 C19,71.6245337 20.9660136,60.8900997 24.8980996,50.9026011 C28.8301857,40.9151024 34.1384223,32.1860023 40.8229686,24.7150387 C47.507515,17.2440752 55.3715692,11.3460345 64.4153672,7.02073983 C73.4591652,2.69544514 83.1712721,0.532830233 93.5519793,0.532830233 C104.08997,0.532830233 113.880718,2.69544514 122.924516,7.02073983 C124.898385,7.96476459 126.814184,8.98183562 128.671914,10.0719548 C130.530394,8.98021894 132.444878,7.96314791 134.415367,7.02073983 C143.459165,2.69544514 153.171272,0.532830233 163.551979,0.532830233 C174.08997,0.532830233 183.880718,2.69544514 192.924516,7.02073983 C201.968314,11.3460345 209.793047,17.2047549 216.398952,24.5970767 C223.004857,31.9893986 228.195132,40.7184987 231.969935,50.7846391 C235.744738,60.8507795 237.632111,71.6245337 237.632111,83.1062251 C237.632111,95.3743337 235.666097,106.659251 231.734011,116.961317 C227.801925,127.263383 222.218447,136.189084 214.983408,143.738689 C208.22022,151.131011 200.474127,156.79313 191.744896,160.725216 C183.015664,164.657302 173.61812,166.623316 163.551979,166.623316 C153.485839,166.623316 143.970333,164.500021 135.005177,160.253368 C132.902608,159.257414 130.85844,158.172792 128.872669,156.9995 Z M114.50204,20.8775746 C107.875327,18.1669021 100.892037,16.8115852 93.5519793,16.8115852 C85.3732403,16.8115852 77.7451077,18.5416771 70.6673528,22.0019129 C63.5895978,25.4621486 57.4163153,30.1805812 52.1473199,36.157352 C46.8783246,42.1341229 42.7496961,49.1331311 39.7613107,57.1545867 C36.7729253,65.1760423 35.278755,73.8265019 35.278755,83.1062251 C35.278755,92.5432317 36.7729253,101.350972 39.7613107,109.529711 C42.7496961,117.70845 46.8783246,124.82542 52.1473199,130.880832 C57.4163153,136.936245 63.5895978,141.693997 70.6673528,145.154233 C77.7451077,148.614469 85.3732403,150.344561 93.5519793,150.344561 C101.063856,150.344561 108.096685,148.939651 114.650636,146.129795 C113.505007,145.019912 112.386401,143.868992 111.294817,142.677031 C104.452987,135.206068 99.0267894,126.359007 95.0160616,116.135583 C91.0053338,105.912159 89,94.9024833 89,83.1062251 C89,71.6245337 90.9660136,60.8900997 94.8980996,50.9026011 C98.8301857,40.9151024 104.138422,32.1860023 110.822969,24.7150387 C112.012005,23.3861159 113.238361,22.1069616 114.50204,20.8775746 Z M203.423133,34.2699601 C198.390063,28.6077562 192.413381,24.2825264 185.49291,21.2941409 C178.572438,18.3057555 171.258868,16.8115852 163.551979,16.8115852 C155.37324,16.8115852 147.745108,18.5416771 140.667353,22.0019129 C133.589598,25.4621486 127.416315,30.1805812 122.14732,36.157352 C116.878325,42.1341229 112.749696,49.1331311 109.761311,57.1545867 C106.772925,65.1760423 105.278755,73.8265019 105.278755,83.1062251 C105.278755,92.5432317 106.772925,101.350972 109.761311,109.529711 C112.749696,117.70845 116.878325,124.82542 122.14732,130.880832 C127.416315,136.936245 133.589598,141.693997 140.667353,145.154233 C147.745108,148.614469 155.37324,150.344561 163.551979,150.344561 C171.888002,150.344561 179.634095,148.614469 186.790492,145.154233 C193.946889,141.693997 200.159491,136.936245 205.428487,130.880832 C210.697482,124.82542 214.826111,117.70845 217.814496,109.529711 C220.802881,101.350972 222.297052,92.5432317 222.297052,83.1062251 C222.297052,73.3546516 220.6456,64.271669 217.342648,55.8570048 C214.039696,47.4423406 209.399904,40.246731 203.423133,34.2699601 Z" id="LOGO-Copy-2"></path>
        </g>
    </g>
</svg>
