<?xml version="1.0" encoding="UTF-8" standalone="no"?>
<svg width="149px" height="167px" viewBox="0 0 149 167" version="1.1" xmlns="http://www.w3.org/2000/svg" xmlns:xlink="http://www.w3.org/1999/xlink">
    <!-- Generator: Sketch 3.8.2 (29753) - http://www.bohemiancoding.com/sketch -->
    <title>EGG3</title>
    <desc>Created with Sketch.</desc>
    <defs>
        <path d="M125.983408,143.738689 C119.22022,151.131011 111.474127,156.79313 102.744896,160.725216 C94.0156645,164.657302 84.6181197,166.623316 74.5519793,166.623316 C64.485839,166.623316 54.9703334,164.500021 46.0051771,160.253368 C37.0400209,156.006715 29.1366464,150.147995 22.2948166,142.677031 C15.4529868,135.206068 10.0267894,126.359007 6.01606162,116.135583 C2.00533382,105.912159 0,94.9024833 0,83.1062251 C0,71.6245337 1.96601355,60.8900997 5.89809963,50.9026011 C9.83018571,40.9151024 15.1384223,32.1860023 21.8229686,24.7150387 C28.507515,17.2440752 36.3715692,11.3460345 45.4153672,7.02073983 C54.4591652,2.69544514 64.1712721,0.532830233 74.5519793,0.532830233 C85.08997,0.532830233 94.8807175,2.69544514 103.924516,7.02073983 C112.968314,11.3460345 120.793047,17.2047549 127.398952,24.5970767 C134.004857,31.9893986 139.195132,40.7184987 142.969935,50.7846391 C146.744738,60.8507795 148.632111,71.6245337 148.632111,83.1062251 C148.632111,95.3743337 146.666097,106.659251 142.734011,116.961317 C138.801925,127.263383 133.218447,136.189084 125.983408,143.738689 L125.983408,143.738689 Z" id="path-1"></path>
        <mask id="mask-2" maskContentUnits="userSpaceOnUse" maskUnits="objectBoundingBox" x="0" y="0" width="148.632111" height="166.090486" fill="white">
            <use xlink:href="#path-1"></use>
        </mask>
    </defs>
    <g id="Page-1" stroke="none" stroke-width="1" fill="none" fill-rule="evenodd" stroke-dasharray="19">
        <g id="EGG3" stroke="#FFFFFF" stroke-width="30">
            <use id="O-Copy-3" mask="url(#mask-2)" xlink:href="#path-1"></use>
        </g>
    </g>
</svg>