<?xml version="1.0" encoding="UTF-8" standalone="no"?>
<svg width="447px" height="405px" viewBox="0 0 447 405" version="1.1" xmlns="http://www.w3.org/2000/svg" xmlns:xlink="http://www.w3.org/1999/xlink">
    <!-- Generator: Sketch 3.8.2 (29753) - http://www.bohemiancoding.com/sketch -->
    <title>GRUNDRISS</title>
    <desc>Created with Sketch.</desc>
    <defs>
        <path d="M32,37 L32,68 L0,68 L0,398 L300,398 L300,323.848 L305,323.848 L305,398 L447,398 L447,68 L305,68 L305,242.924 L300,242.924 L300,68 L269,68 L269,37 L239,5.924 L62,5.924 L32,37 Z" id="path-1"></path>
        <mask id="mask-2" maskContentUnits="userSpaceOnUse" maskUnits="objectBoundingBox" x="0" y="0" width="447" height="392.076" fill="white">
            <use xlink:href="#path-1"></use>
        </mask>
    </defs>
    <g id="Page-1" stroke="none" stroke-width="1" fill="none" fill-rule="evenodd">
        <g id="GRUNDRISS" transform="translate(0.000000, 1.000000)" stroke="#B8E986">
            <use id="Combined-Shape" mask="url(#mask-2)" stroke-width="4" xlink:href="#path-1"></use>
            <path d="M115.6,230.192 L133.8,230.192 L133.856,234 L111.96,234 L111.904,195.304 L115.6,195.304 L115.6,230.192 Z M156.648,214.792 C156.274665,213.709328 155.901335,212.682672 155.528,211.712 C155.154665,210.741328 154.781335,209.770672 154.408,208.8 L154.408,208.856 C154.183999,208.258664 153.978668,207.708003 153.792,207.204 C153.605332,206.699997 153.418668,206.205336 153.232,205.72 C153.045332,205.234664 152.858668,204.721336 152.672,204.18 C152.485332,203.638664 152.261335,203.032003 152,202.36 C151.701332,203.218671 151.402668,204.039996 151.104,204.824 C150.805332,205.608004 150.506668,206.410663 150.208,207.232 C149.685331,208.538673 149.218669,209.770661 148.808,210.928 C148.397331,212.085339 147.930669,213.373326 147.408,214.792 L156.648,214.792 Z M150.544,195.304 L153.512,195.304 L167.792,234 L163.872,234 L158.048,218.6 L146.064,218.6 C145.167996,221.064012 144.216005,223.630653 143.208,226.3 C142.199995,228.969347 141.229338,231.535988 140.296,234 L136.376,234 L150.544,195.304 Z M182.856,234 L171.208,234 L171.152,195.304 L183.752,195.304 C185.208007,195.341334 186.579994,195.630664 187.868,196.172 C189.156006,196.713336 190.275995,197.431996 191.228,198.328 C192.180005,199.224004 192.935997,200.259994 193.496,201.436 C194.056003,202.612006 194.336,203.853327 194.336,205.16 C194.336,206.914675 193.925337,208.501326 193.104,209.92 C192.282663,211.338674 191.200007,212.514662 189.856,213.448 C191.424008,214.456005 192.693328,215.781325 193.664,217.424 C194.634672,219.066675 195.12,220.821324 195.12,222.688 C195.12,224.218674 194.83067,225.655993 194.252,227 C193.67333,228.344007 192.880005,229.519995 191.872,230.528 C190.863995,231.536005 189.66934,232.338664 188.288,232.936 C186.90666,233.533336 185.413341,233.850666 183.808,233.888 L183.864,233.888 L182.856,234 Z M174.904,199 L174.904,211.544 L183.752,211.544 C184.722672,211.506666 185.618663,211.329335 186.44,211.012 C187.261337,210.694665 187.979997,210.256003 188.596,209.696 C189.212003,209.135997 189.697332,208.464004 190.052,207.68 C190.406668,206.895996 190.584,206.056004 190.584,205.16 C190.584,204.375996 190.406668,203.629337 190.052,202.92 C189.697332,202.210663 189.212003,201.576003 188.596,201.016 C187.979997,200.455997 187.261337,199.998668 186.44,199.644 C185.618663,199.289332 184.722672,199.074667 183.752,199 L174.904,199 Z M183.752,230.192 C184.797339,230.154666 185.786662,229.921335 186.72,229.492 C187.653338,229.062665 188.455997,228.512003 189.128,227.84 C189.800003,227.167997 190.331998,226.393338 190.724,225.516 C191.116002,224.638662 191.312,223.696005 191.312,222.688 C191.312,221.754662 191.116002,220.858671 190.724,220 C190.331998,219.141329 189.800003,218.376003 189.128,217.704 C188.455997,217.031997 187.653338,216.490669 186.72,216.08 C185.786662,215.669331 184.797339,215.426667 183.752,215.352 L174.904,215.352 L174.904,230.192 L183.752,230.192 Z" id="LAB" fill="#B8E986"></path>
            <path d="M301.465414,193.727804 C302.361418,192.757133 303.341408,192.05714 304.405414,191.627804 C305.469419,191.198469 306.654741,190.983804 307.961414,190.983804 C309.753423,190.983804 311.35874,191.4318 312.777414,192.327804 C314.196087,193.223809 315.334743,194.399797 316.193414,195.855804 C316.678749,194.997133 317.238744,194.259807 317.873414,193.643804 C318.508084,193.027801 319.18941,192.514473 319.917414,192.103804 C320.645417,191.693135 321.392077,191.385138 322.157414,191.179804 C322.922751,190.97447 323.660077,190.871804 324.369414,190.871804 C325.676087,190.871804 326.908075,191.142468 328.065414,191.683804 C329.222753,192.22514 330.230743,192.962466 331.089414,193.895804 C331.948085,194.829142 332.638744,195.930464 333.161414,197.199804 C333.684083,198.469144 333.96408,199.831797 334.001414,201.287804 L334.113414,219.151804 L330.361414,219.151804 L330.361414,201.287804 C330.32408,200.3918 330.146749,199.533142 329.829414,198.711804 C329.512079,197.890467 329.073417,197.18114 328.513414,196.583804 C327.953411,195.986468 327.300084,195.510473 326.553414,195.155804 C325.806743,194.801136 325.004085,194.623804 324.145414,194.623804 C323.36141,194.623804 322.624084,194.791802 321.933414,195.127804 C321.242744,195.463806 320.617417,195.911801 320.057414,196.471804 C319.497411,197.031807 319.021416,197.666467 318.629414,198.375804 C318.237412,199.085141 317.948081,199.813134 317.761414,200.559804 L317.761414,219.151804 L314.065414,219.151804 L314.065414,201.399804 C314.02808,200.466466 313.841415,199.589142 313.505414,198.767804 C313.169412,197.946467 312.721417,197.23714 312.161414,196.639804 C311.601411,196.042468 310.938751,195.575806 310.173414,195.239804 C309.408077,194.903802 308.577418,194.735804 307.681414,194.735804 C306.934743,194.735804 306.23475,194.903802 305.581414,195.239804 C304.928077,195.575806 304.321417,196.023801 303.761414,196.583804 C303.201411,197.143807 302.725416,197.778467 302.333414,198.487804 C301.941412,199.197141 301.652081,199.925134 301.465414,200.671804 L301.465414,202.659804 C301.465414,203.425141 301.474747,204.2278 301.493414,205.067804 C301.51208,205.907808 301.521414,206.757133 301.521414,207.615804 L301.521414,209.911804 L301.521414,219.263804 L297.769414,219.263804 L297.713414,194.567804 L297.713414,191.263804 L301.465414,191.263804 L301.465414,193.727804 Z M350.297414,216.015804 C350.969417,216.015804 351.688077,215.931805 352.453414,215.763804 C353.218751,215.595803 353.96541,215.390472 354.693414,215.147804 C355.421417,214.905136 356.102744,214.615806 356.737414,214.279804 C357.372084,213.943802 357.932078,213.607806 358.417414,213.271804 L359.929414,216.799804 C358.846742,217.583808 357.540088,218.218468 356.009414,218.703804 C354.478739,219.18914 353.022754,219.525137 351.641414,219.711804 C351.454746,219.749138 351.202749,219.767804 350.885414,219.767804 L350.185414,219.767804 C348.617406,219.767804 347.133421,219.422474 345.733414,218.731804 C344.333407,218.041134 343.101419,217.089144 342.037414,215.875804 C340.973408,214.662465 340.105417,213.234479 339.433414,211.591804 C338.76141,209.949129 338.369414,208.175814 338.257414,206.271804 L338.257414,205.319804 C338.257414,203.341128 338.556077,201.47448 339.153414,199.719804 C339.75075,197.965129 340.562742,196.434477 341.589414,195.127804 C342.616086,193.821131 343.81074,192.785141 345.173414,192.019804 C346.536087,191.254467 348.001406,190.871804 349.569414,190.871804 C351.137422,190.871804 352.60274,191.198468 353.965414,191.851804 C355.328087,192.505141 356.513409,193.429131 357.521414,194.623804 C358.529419,195.818477 359.313411,197.246462 359.873414,198.907804 C360.433417,200.569146 360.713414,202.407794 360.713414,204.423804 L360.713414,206.495804 L342.121414,206.495804 C342.270748,207.802477 342.588078,209.025132 343.073414,210.163804 C343.558749,211.302476 344.16541,212.310466 344.893414,213.187804 C345.621417,214.065142 346.442742,214.755802 347.357414,215.259804 C348.272085,215.763807 349.252075,216.015804 350.297414,216.015804 L350.297414,216.015804 Z M357.017414,202.799804 C356.793413,201.642465 356.448083,200.569142 355.981414,199.579804 C355.514745,198.590466 354.95475,197.731808 354.301414,197.003804 C353.648077,196.2758 352.920084,195.706473 352.117414,195.295804 C351.314743,194.885135 350.465418,194.679804 349.569414,194.679804 C347.740071,194.679804 346.134754,195.41713 344.753414,196.891804 C343.372073,198.366478 342.513415,200.335792 342.177414,202.799804 L357.017414,202.799804 Z M375.833414,216.015804 C376.505417,216.015804 377.224077,215.931805 377.989414,215.763804 C378.754751,215.595803 379.50141,215.390472 380.229414,215.147804 C380.957417,214.905136 381.638744,214.615806 382.273414,214.279804 C382.908084,213.943802 383.468078,213.607806 383.953414,213.271804 L385.465414,216.799804 C384.382742,217.583808 383.076088,218.218468 381.545414,218.703804 C380.014739,219.18914 378.558754,219.525137 377.177414,219.711804 C376.990746,219.749138 376.738749,219.767804 376.421414,219.767804 L375.721414,219.767804 C374.153406,219.767804 372.669421,219.422474 371.269414,218.731804 C369.869407,218.041134 368.637419,217.089144 367.573414,215.875804 C366.509408,214.662465 365.641417,213.234479 364.969414,211.591804 C364.29741,209.949129 363.905414,208.175814 363.793414,206.271804 L363.793414,205.319804 C363.793414,203.341128 364.092077,201.47448 364.689414,199.719804 C365.28675,197.965129 366.098742,196.434477 367.125414,195.127804 C368.152086,193.821131 369.34674,192.785141 370.709414,192.019804 C372.072087,191.254467 373.537406,190.871804 375.105414,190.871804 C376.673422,190.871804 378.13874,191.198468 379.501414,191.851804 C380.864087,192.505141 382.049409,193.429131 383.057414,194.623804 C384.065419,195.818477 384.849411,197.246462 385.409414,198.907804 C385.969417,200.569146 386.249414,202.407794 386.249414,204.423804 L386.249414,206.495804 L367.657414,206.495804 C367.806748,207.802477 368.124078,209.025132 368.609414,210.163804 C369.094749,211.302476 369.70141,212.310466 370.429414,213.187804 C371.157417,214.065142 371.978742,214.755802 372.893414,215.259804 C373.808085,215.763807 374.788075,216.015804 375.833414,216.015804 L375.833414,216.015804 Z M382.553414,202.799804 C382.329413,201.642465 381.984083,200.569142 381.517414,199.579804 C381.050745,198.590466 380.49075,197.731808 379.837414,197.003804 C379.184077,196.2758 378.456084,195.706473 377.653414,195.295804 C376.850743,194.885135 376.001418,194.679804 375.105414,194.679804 C373.276071,194.679804 371.670754,195.41713 370.289414,196.891804 C368.908073,198.366478 368.049415,200.335792 367.713414,202.799804 L382.553414,202.799804 Z M398.065414,181.127804 L398.065414,191.655804 L405.233414,191.655804 L405.233414,195.407804 L398.065414,195.407804 L398.121414,219.263804 L394.481414,219.263804 C394.44408,216.202455 394.425414,213.234485 394.425414,210.359804 L394.425414,195.407804 L390.393414,195.407804 L390.393414,191.655804 L394.313414,191.655804 L394.313414,181.127804 L398.065414,181.127804 Z M409.993414,191.263804 L413.633414,191.263804 L413.689414,219.263804 L410.049414,219.263804 L409.993414,191.263804 Z M409.545414,184.095804 C409.545414,183.461134 409.769411,182.938473 410.217414,182.527804 C410.665416,182.117135 411.206744,181.911804 411.841414,181.911804 C412.43875,181.911804 412.970745,182.117135 413.437414,182.527804 C413.904083,182.938473 414.137414,183.461134 414.137414,184.095804 C414.137414,184.655807 413.904083,185.159802 413.437414,185.607804 C412.970745,186.055806 412.43875,186.279804 411.841414,186.279804 C411.206744,186.279804 410.665416,186.055806 410.217414,185.607804 C409.769411,185.159802 409.545414,184.655807 409.545414,184.095804 L409.545414,184.095804 Z M422.145414,193.615804 C423.937423,191.749128 426.140067,190.815804 428.753414,190.815804 C430.060087,190.815804 431.292075,191.086468 432.449414,191.627804 C433.606753,192.16914 434.624076,192.915799 435.501414,193.867804 C436.378751,194.819809 437.078744,195.930464 437.601414,197.199804 C438.124083,198.469144 438.40408,199.831797 438.441414,201.287804 L438.609414,219.263804 L434.913414,219.263804 L434.857414,201.287804 C434.82008,200.354466 434.652082,199.477142 434.353414,198.655804 C434.054746,197.834467 433.644083,197.12514 433.121414,196.527804 C432.598744,195.930468 431.973417,195.454473 431.245414,195.099804 C430.51741,194.745136 429.742751,194.567804 428.921414,194.567804 C428.174743,194.567804 427.437417,194.735802 426.709414,195.071804 C425.98141,195.407806 425.309417,195.846468 424.693414,196.387804 C424.077411,196.92914 423.545416,197.5638 423.097414,198.291804 C422.649411,199.019808 422.332081,199.7758 422.145414,200.559804 L422.145414,202.547804 C422.145414,203.313141 422.154747,204.1158 422.173414,204.955804 C422.19208,205.795808 422.201414,206.645133 422.201414,207.503804 L422.201414,209.799804 L422.201414,219.263804 L418.449414,219.263804 L418.393414,191.263804 L422.145414,191.263804 L422.145414,193.615804 Z M451.713414,211.703804 L451.965414,211.703804 C452.058748,211.703804 452.198746,211.685138 452.385414,211.647804 C452.572081,211.610471 452.786746,211.582471 453.029414,211.563804 C453.272082,211.545137 453.542746,211.535804 453.841414,211.535804 C455.409422,211.535804 456.893407,211.769135 458.293414,212.235804 C459.693421,212.702473 460.906742,213.346467 461.933414,214.167804 C462.960086,214.989142 463.772077,215.950465 464.369414,217.051804 C464.96675,218.153143 465.265414,219.338464 465.265414,220.607804 C465.265414,221.877144 464.96675,223.081132 464.369414,224.219804 C463.772077,225.358476 462.960086,226.3478 461.933414,227.187804 C460.906742,228.027808 459.693421,228.690468 458.293414,229.175804 C456.893407,229.66114 455.409422,229.903804 453.841414,229.903804 C452.310739,229.903804 450.854754,229.66114 449.473414,229.175804 C448.092073,228.690468 446.878752,228.027808 445.833414,227.187804 C444.788075,226.3478 443.96675,225.358476 443.369414,224.219804 C442.772077,223.081132 442.473414,221.877144 442.473414,220.607804 C442.473414,219.039796 442.958742,217.574478 443.929414,216.211804 C444.900085,214.849131 446.169406,213.775808 447.737414,212.991804 C447.625413,212.655802 447.550747,212.310473 447.513414,211.955804 C447.47608,211.601136 447.457414,211.218473 447.457414,210.807804 C447.457414,210.322468 447.522746,209.846473 447.653414,209.379804 C447.784081,208.913135 447.942746,208.511806 448.129414,208.175804 C445.777402,206.309128 444.601414,203.863819 444.601414,200.839804 C444.601414,199.495797 444.900077,198.217144 445.497414,197.003804 C446.09475,195.790465 446.897409,194.735809 447.905414,193.839804 C448.913419,192.9438 450.108073,192.234473 451.489414,191.711804 C452.870754,191.189135 454.345406,190.927804 455.913414,190.927804 C456.809418,190.927804 457.574744,190.983804 458.209414,191.095804 C458.844084,191.207805 459.460077,191.357137 460.057414,191.543804 L470.753414,191.543804 L467.225414,195.239804 L465.321414,195.239804 C465.881417,195.986475 466.338745,196.845133 466.693414,197.815804 C467.048082,198.786476 467.225414,199.794466 467.225414,200.839804 C467.225414,202.221144 466.92675,203.509131 466.329414,204.703804 C465.732077,205.898477 464.920086,206.934466 463.893414,207.811804 C462.866742,208.689142 461.672087,209.379802 460.309414,209.883804 C458.94674,210.387807 457.481422,210.639804 455.913414,210.639804 C455.316077,210.639804 454.802749,210.602471 454.373414,210.527804 C453.944078,210.453137 453.542749,210.378471 453.169414,210.303804 C452.833412,210.229137 452.534748,210.173138 452.273414,210.135804 C452.012079,210.098471 451.788081,210.079804 451.601414,210.079804 C451.340079,210.079804 451.097415,210.12647 450.873414,210.219804 C450.649413,210.313138 450.537414,210.471803 450.537414,210.695804 C450.537414,211.143806 450.658746,211.423804 450.901414,211.535804 C451.144082,211.647805 451.414746,211.703804 451.713414,211.703804 L451.713414,211.703804 Z M446.113414,220.607804 C446.113414,221.354475 446.328078,222.073134 446.757414,222.763804 C447.186749,223.454474 447.756077,224.061135 448.465414,224.583804 C449.174751,225.106473 449.996076,225.517136 450.929414,225.815804 C451.862752,226.114472 452.833409,226.263804 453.841414,226.263804 C454.924086,226.263804 455.941409,226.114472 456.893414,225.815804 C457.845418,225.517136 458.676077,225.106473 459.385414,224.583804 C460.094751,224.061135 460.654745,223.454474 461.065414,222.763804 C461.476082,222.073134 461.681414,221.354475 461.681414,220.607804 C461.681414,219.898467 461.476082,219.198474 461.065414,218.507804 C460.654745,217.817134 460.094751,217.219807 459.385414,216.715804 C458.676077,216.211802 457.845418,215.801139 456.893414,215.483804 C455.941409,215.166469 454.924086,215.007804 453.841414,215.007804 C452.833409,215.007804 451.862752,215.166469 450.929414,215.483804 C449.996076,215.801139 449.174751,216.211802 448.465414,216.715804 C447.756077,217.219807 447.186749,217.817134 446.757414,218.507804 C446.328078,219.198474 446.113414,219.898467 446.113414,220.607804 L446.113414,220.607804 Z M448.297414,200.839804 C448.297414,201.698475 448.502745,202.501134 448.913414,203.247804 C449.324082,203.994475 449.874744,204.647801 450.565414,205.207804 C451.256084,205.767807 452.058742,206.215802 452.973414,206.551804 C453.888085,206.887806 454.868075,207.055804 455.913414,207.055804 C456.996086,207.055804 458.004076,206.887806 458.937414,206.551804 C459.870752,206.215802 460.692077,205.767807 461.401414,205.207804 C462.110751,204.647801 462.661412,203.994475 463.053414,203.247804 C463.445416,202.501134 463.641414,201.698475 463.641414,200.839804 C463.641414,199.9438 463.445416,199.113141 463.053414,198.347804 C462.661412,197.582467 462.110751,196.919807 461.401414,196.359804 C460.692077,195.799801 459.870752,195.361139 458.937414,195.043804 C458.004076,194.726469 456.996086,194.567804 455.913414,194.567804 C454.868075,194.567804 453.888085,194.726469 452.973414,195.043804 C452.058742,195.361139 451.256084,195.799801 450.565414,196.359804 C449.874744,196.919807 449.324082,197.582467 448.913414,198.347804 C448.502745,199.113141 448.297414,199.9438 448.297414,200.839804 L448.297414,200.839804 Z M310.481414,245.351804 C309.174741,244.941135 308.372082,244.735804 308.073414,244.735804 C307.326743,244.735804 306.589417,244.922469 305.861414,245.295804 C305.13341,245.669139 304.47075,246.154468 303.873414,246.751804 C303.276077,247.34914 302.753416,247.993134 302.305414,248.683804 C301.857411,249.374474 301.540081,250.055801 301.353414,250.727804 C301.353414,251.922477 301.362747,253.322463 301.381414,254.927804 C301.40008,256.533145 301.409414,258.194462 301.409414,259.911804 L301.409414,269.263804 L297.657414,269.263804 L297.601414,241.263804 L301.353414,241.263804 L301.353414,243.727804 C303.145423,241.861128 305.329401,240.927804 307.905414,240.927804 C308.017414,240.927804 308.204079,240.937137 308.465414,240.955804 C308.726748,240.974471 309.006746,241.011804 309.305414,241.067804 C309.604082,241.123804 309.902746,241.179804 310.201414,241.235804 C310.500082,241.291804 310.761413,241.357137 310.985414,241.431804 L310.481414,245.351804 Z M316.305414,255.431804 C316.305414,256.887811 316.548078,258.259798 317.033414,259.547804 C317.518749,260.835811 318.190743,261.965133 319.049414,262.935804 C319.908085,263.906476 320.916075,264.671801 322.073414,265.231804 C323.230753,265.791807 324.462741,266.071804 325.769414,266.071804 C327.038753,266.071804 328.242741,265.791807 329.381414,265.231804 C330.520086,264.671801 331.50941,263.906476 332.349414,262.935804 C333.189418,261.965133 333.852078,260.835811 334.337414,259.547804 C334.822749,258.259798 335.065414,256.887811 335.065414,255.431804 C335.065414,253.938463 334.822749,252.538477 334.337414,251.231804 C333.852078,249.925131 333.189418,248.786476 332.349414,247.815804 C331.50941,246.845133 330.520086,246.079807 329.381414,245.519804 C328.242741,244.959801 327.038753,244.679804 325.769414,244.679804 C324.462741,244.679804 323.230753,244.959801 322.073414,245.519804 C320.916075,246.079807 319.908085,246.845133 319.049414,247.815804 C318.190743,248.786476 317.518749,249.925131 317.033414,251.231804 C316.548078,252.538477 316.305414,253.938463 316.305414,255.431804 L316.305414,255.431804 Z M312.553414,255.431804 C312.553414,253.415794 312.898744,251.53048 313.589414,249.775804 C314.280084,248.021129 315.222741,246.490477 316.417414,245.183804 C317.612086,243.877131 319.012072,242.841141 320.617414,242.075804 C322.222755,241.310467 323.940071,240.927804 325.769414,240.927804 C327.561423,240.927804 329.250739,241.310467 330.837414,242.075804 C332.424088,242.841141 333.805408,243.877131 334.981414,245.183804 C336.15742,246.490477 337.090744,248.021129 337.781414,249.775804 C338.472084,251.53048 338.817414,253.415794 338.817414,255.431804 C338.817414,257.410481 338.472084,259.267795 337.781414,261.003804 C337.090744,262.739813 336.15742,264.261131 334.981414,265.567804 C333.805408,266.874477 332.424088,267.910467 330.837414,268.675804 C329.250739,269.441141 327.561423,269.823804 325.769414,269.823804 C323.940071,269.823804 322.222755,269.441141 320.617414,268.675804 C319.012072,267.910467 317.612086,266.874477 316.417414,265.567804 C315.222741,264.261131 314.280084,262.739813 313.589414,261.003804 C312.898744,259.267795 312.553414,257.410481 312.553414,255.431804 L312.553414,255.431804 Z M345.033414,255.431804 C345.033414,256.887811 345.276078,258.259798 345.761414,259.547804 C346.246749,260.835811 346.918743,261.965133 347.777414,262.935804 C348.636085,263.906476 349.644075,264.671801 350.801414,265.231804 C351.958753,265.791807 353.190741,266.071804 354.497414,266.071804 C355.766753,266.071804 356.970741,265.791807 358.109414,265.231804 C359.248086,264.671801 360.23741,263.906476 361.077414,262.935804 C361.917418,261.965133 362.580078,260.835811 363.065414,259.547804 C363.550749,258.259798 363.793414,256.887811 363.793414,255.431804 C363.793414,253.938463 363.550749,252.538477 363.065414,251.231804 C362.580078,249.925131 361.917418,248.786476 361.077414,247.815804 C360.23741,246.845133 359.248086,246.079807 358.109414,245.519804 C356.970741,244.959801 355.766753,244.679804 354.497414,244.679804 C353.190741,244.679804 351.958753,244.959801 350.801414,245.519804 C349.644075,246.079807 348.636085,246.845133 347.777414,247.815804 C346.918743,248.786476 346.246749,249.925131 345.761414,251.231804 C345.276078,252.538477 345.033414,253.938463 345.033414,255.431804 L345.033414,255.431804 Z M341.281414,255.431804 C341.281414,253.415794 341.626744,251.53048 342.317414,249.775804 C343.008084,248.021129 343.950741,246.490477 345.145414,245.183804 C346.340086,243.877131 347.740072,242.841141 349.345414,242.075804 C350.950755,241.310467 352.668071,240.927804 354.497414,240.927804 C356.289423,240.927804 357.978739,241.310467 359.565414,242.075804 C361.152088,242.841141 362.533408,243.877131 363.709414,245.183804 C364.88542,246.490477 365.818744,248.021129 366.509414,249.775804 C367.200084,251.53048 367.545414,253.415794 367.545414,255.431804 C367.545414,257.410481 367.200084,259.267795 366.509414,261.003804 C365.818744,262.739813 364.88542,264.261131 363.709414,265.567804 C362.533408,266.874477 361.152088,267.910467 359.565414,268.675804 C357.978739,269.441141 356.289423,269.823804 354.497414,269.823804 C352.668071,269.823804 350.950755,269.441141 349.345414,268.675804 C347.740072,267.910467 346.340086,266.874477 345.145414,265.567804 C343.950741,264.261131 343.008084,262.739813 342.317414,261.003804 C341.626744,259.267795 341.281414,257.410481 341.281414,255.431804 L341.281414,255.431804 Z M374.937414,243.727804 C375.833418,242.757133 376.813408,242.05714 377.877414,241.627804 C378.941419,241.198469 380.126741,240.983804 381.433414,240.983804 C383.225423,240.983804 384.83074,241.4318 386.249414,242.327804 C387.668087,243.223809 388.806743,244.399797 389.665414,245.855804 C390.150749,244.997133 390.710744,244.259807 391.345414,243.643804 C391.980084,243.027801 392.66141,242.514473 393.389414,242.103804 C394.117417,241.693135 394.864077,241.385138 395.629414,241.179804 C396.394751,240.97447 397.132077,240.871804 397.841414,240.871804 C399.148087,240.871804 400.380075,241.142468 401.537414,241.683804 C402.694753,242.22514 403.702743,242.962466 404.561414,243.895804 C405.420085,244.829142 406.110744,245.930464 406.633414,247.199804 C407.156083,248.469144 407.43608,249.831797 407.473414,251.287804 L407.585414,269.151804 L403.833414,269.151804 L403.833414,251.287804 C403.79608,250.3918 403.618749,249.533142 403.301414,248.711804 C402.984079,247.890467 402.545417,247.18114 401.985414,246.583804 C401.425411,245.986468 400.772084,245.510473 400.025414,245.155804 C399.278743,244.801136 398.476085,244.623804 397.617414,244.623804 C396.83341,244.623804 396.096084,244.791802 395.405414,245.127804 C394.714744,245.463806 394.089417,245.911801 393.529414,246.471804 C392.969411,247.031807 392.493416,247.666467 392.101414,248.375804 C391.709412,249.085141 391.420081,249.813134 391.233414,250.559804 L391.233414,269.151804 L387.537414,269.151804 L387.537414,251.399804 C387.50008,250.466466 387.313415,249.589142 386.977414,248.767804 C386.641412,247.946467 386.193417,247.23714 385.633414,246.639804 C385.073411,246.042468 384.410751,245.575806 383.645414,245.239804 C382.880077,244.903802 382.049418,244.735804 381.153414,244.735804 C380.406743,244.735804 379.70675,244.903802 379.053414,245.239804 C378.400077,245.575806 377.793417,246.023801 377.233414,246.583804 C376.673411,247.143807 376.197416,247.778467 375.805414,248.487804 C375.413412,249.197141 375.124081,249.925134 374.937414,250.671804 L374.937414,252.659804 C374.937414,253.425141 374.946747,254.2278 374.965414,255.067804 C374.98408,255.907808 374.993414,256.757133 374.993414,257.615804 L374.993414,259.911804 L374.993414,269.263804 L371.241414,269.263804 L371.185414,244.567804 L371.185414,241.263804 L374.937414,241.263804 L374.937414,243.727804 Z" id="meeting" fill="#B8E986" transform="translate(384.177414, 225.475804) rotate(-70.000000) translate(-384.177414, -225.475804) "></path>
            <g id="Group" transform="translate(86.000000, 0.000000)" stroke-width="2" stroke-linecap="square">
                <path d="M1,0.5 L1,13.5" id="Line"></path>
                <path d="M131,0.5 L131,13.5" id="Line-Copy"></path>
            </g>
            <g id="Group-Copy-3" transform="translate(329.000000, 62.000000)" stroke-width="2" stroke-linecap="square">
                <path d="M0.696969697,0.5 L0.696969697,13.5" id="Line"></path>
                <path d="M91.3030303,0.5 L91.3030303,13.5" id="Line-Copy"></path>
            </g>
            <g id="Group-Copy" transform="translate(48.000000, 22.000000) rotate(-45.000000) translate(-48.000000, -22.000000) translate(32.000000, 15.000000)" stroke-width="2" stroke-linecap="square">
                <path d="M1,0.5 L1,13.5" id="Line"></path>
                <path d="M31,0.5 L31,13.5" id="Line-Copy"></path>
            </g>
            <g id="Group-Copy-2" transform="translate(252.000000, 22.000000) rotate(45.000000) translate(-252.000000, -22.000000) translate(236.000000, 15.000000)" stroke-width="2" stroke-linecap="square">
                <path d="M1,0.5 L1,13.5" id="Line"></path>
                <path d="M31,0.5 L31,13.5" id="Line-Copy"></path>
            </g>
            <path d="M119.474763,403.032778 C119.558955,352 170.000001,352 170,352 L170,403.032778" id="Path-119" stroke-width="2"></path>
            <path d="M342.474763,403.032778 C342.558955,352 393.000001,352 393,352 L393,403.032778" id="Path-119-Copy" stroke-width="2"></path>
        </g>
    </g>
</svg>