<?xml version="1.0" encoding="utf-8"?>
<!-- Generator: Adobe Illustrator 19.1.0, SVG Export Plug-In . SVG Version: 6.00 Build 0)  -->
<svg version="1.1" id="Ebene_1" xmlns="http://www.w3.org/2000/svg" xmlns:xlink="http://www.w3.org/1999/xlink" x="0px" y="0px"
	 viewBox="170 -334.4 935 949" style="enable-background:new 170 -334.4 935 949;" xml:space="preserve">
<style type="text/css">
	.st0{fill:#FFFFFF;}
</style>
<title>Joghurt</title>
<desc>Created with Sketch.</desc>
<g id="Page-1">
	<g id="Joghurt" transform="translate(-1.000000, -1.000000)">
		<path id="Path-112" class="st0" d="M637.6-277c-18.7-6.1-19.9-18-2.8-27.8l105.4-59.9c18-10.2,49.3-16.1,69.7-13.2l161.8,23.2
			c19.4,2.8,21.8,13.1,5.6,24.2l-131.3,90c-16.9,11.6-46.7,15.9-66.2,9.6L637.6-277L637.6-277z M636.7-274.2l142.2,46.1
			c20.4,6.6,51.1,2.2,68.8-10l131.3-90c18.4-12.6,15.2-26.4-6.9-29.6l-161.7-23.2c-21.1-3-53.1,3-71.6,13.6l-105.5,59.9
			C613.9-296.4,615.5-281,636.7-274.2L636.7-274.2z"/>
		<path id="Combined-Shape" class="st0" d="M725.1-266.9c53.3,17.1,103,10.5,146.8-18.2c22.1-14.4,32.7-28.3,29.7-40.3
			c-3.2-12.8-21.6-22.3-55.3-27.9c-64.3-10.7-91.8-6.6-129,16.2c-18.1,11.1-29.2,23.9-30,36.1C686.4-287.1,698.9-275.3,725.1-266.9
			L725.1-266.9L725.1-266.9z M704-279.6c-9.7-6.3-14.2-13.5-13.7-21.3c0.7-10.9,11.2-23.1,28.5-33.7c18.6-11.4,32.7-17.2,50.1-19.8
			c19.2-2.9,42.8-1.7,76.8,4c32.6,5.4,50.1,14.4,52.9,25.6c1.2,4.6-0.2,9.8-3.9,15.3c-11-2.7-60.5-13.5-114.7-6.4
			C724.4-308.6,706.8-284.2,704-279.6L704-279.6z"/>
		<polygon id="Path-113" class="st0" points="685.7,-260.3 708.5,-77.9 708.6,-77 709.5,-76.7 844,-30.3 844.8,-30 845.4,-30.5 
			940.4,-100.5 941,-101 941,-101.7 934.5,-292.4 931.5,-292.3 938,-102.4 844.3,-33.4 711.4,-79.2 688.9,-258.9 		"/>
		<path id="Path-115" class="st0" d="M805.5-292.4c0-0.2,0-0.5,0-1c0-0.9,0-1.9-0.1-3c-0.1-3.3-0.2-7.1-0.3-11.4
			c-0.3-12.3-0.6-25.9-0.8-40.3c-0.6-33.6-1-66.8-1.2-97.8c-0.4-86.5,1.5-142.7,6.2-151.6c5.2-9.9,11.6-15.6,18.3-17.1
			c5.7-1.3,11.2,0.6,14.8,4.9c1.3,1.6,1.7,20.2,0.9,50.5c-0.7,26.7-2.3,62.6-4.5,105.3c-0.7,12.8-1.4,26.1-2.2,39.7
			c-1.6,27.7-3.2,55.6-4.9,82.4c-0.6,9.4-1.1,17.9-1.6,25.5c-0.2,2.6-0.3,5-0.5,7c0,0.7-0.1,1.3-0.1,1.8s0,0.5,0,0.6l3,0.2
			c0-0.1,0-0.1,0-0.6s0.1-1.1,0.1-1.8c0.1-2,0.3-4.3,0.5-7c0.5-7.6,1-16.1,1.6-25.5c1.7-26.8,3.3-54.7,4.9-82.4
			c0.8-13.7,1.5-26.9,2.2-39.8c5.1-97.2,6.6-153.5,2.9-157.9c-4.3-5.1-10.9-7.4-17.7-5.9c-7.6,1.8-14.7,8-20.2,18.6
			c-5,9.6-6.9,65.1-6.5,153c0.1,31,0.5,64.3,1.2,97.8c0.3,14.5,0.5,28.1,0.8,40.4c0.1,4.3,0.2,8.1,0.3,11.4c0,1.2,0.1,2.2,0.1,3
			c0,0.5,0,0.9,0,1H805.5L805.5-292.4z"/>
		<polygon id="Path-116" class="st0" points="740.7,-525.3 596.2,-590.3 567.3,-603.3 581.2,-574.8 645.4,-442.6 368.9,-246.2 
			341,-226.4 375.2,-225.3 597.4,-218.4 469.6,62.9 459.2,85.6 483.2,78.7 671,24.7 756.3,251.7 767.3,281.1 777.9,251.5 846,60.6 
			1032.1,100.9 1058.1,106.6 1044.4,83.8 1005.3,18.7 1184,18.7 1210.1,18.7 1192.5,-0.6 1099,-102.8 1250.5,-219.2 1275.8,-238.6 
			1244,-239.8 1074.4,-246.2 1216.4,-544.4 1233.9,-581 1199.8,-559 1002.5,-431.3 975.4,-635.3 971.1,-667.9 954.2,-639.7 
			882.7,-520.7 902.4,-508.9 957,-599.7 982.1,-410.3 984.5,-392.3 999.8,-402.2 1178.2,-517.6 1046.1,-240.3 1038.6,-224.5 
			1056.1,-223.8 1211.2,-218 1075,-113.4 1065.1,-105.8 1073.5,-96.6 1157.9,-4.3 985,-4.3 964.7,-4.3 975.2,13.1 1011,72.8 
			841,35.9 831.1,33.8 827.7,43.3 766.7,214.2 688.8,6.6 685.1,-3.3 674.8,-0.4 500.8,49.7 625.5,-224.6 632.6,-240.3 615.4,-240.8 
			410.1,-247.2 666.7,-429.4 674.6,-435.1 670.4,-443.8 615.7,-556.3 731.3,-504.3 		"/>
	</g>
</g>
</svg>
