<?xml version="1.0" encoding="utf-8"?>
<!-- Generator: Adobe Illustrator 19.1.0, SVG Export Plug-In . SVG Version: 6.00 Build 0)  -->
<svg version="1.1" id="Ebene_1" xmlns="http://www.w3.org/2000/svg" xmlns:xlink="http://www.w3.org/1999/xlink" x="0px" y="0px"
	 viewBox="170 -334.4 935 949" style="enable-background:new 170 -334.4 935 949;" xml:space="preserve">
<style type="text/css">
	.st0{fill:#FFFFFF;}
</style>
<g id="Page-1">
	<g id="Joghurt" transform="translate(-1.000000, -1.000000)">
		<path id="Path-112" class="st0" d="M467.6,57.5c-18.7-6.1-19.9-18-2.8-27.8l105.4-59.9c18-10.2,49.3-16.1,69.7-13.2l161.8,23.2
			c19.4,2.8,21.8,13.1,5.6,24.2L676,94c-16.9,11.6-46.7,15.9-66.2,9.6L467.6,57.5L467.6,57.5z M466.7,60.3l142.2,46.1
			c20.4,6.6,51.1,2.2,68.8-10L809,6.4c18.4-12.6,15.2-26.4-6.9-29.6L640.4-46.4c-21.1-3-53.1,3-71.6,13.6L463.3,27.1
			C443.9,38.1,445.5,53.5,466.7,60.3L466.7,60.3z"/>
		<path id="Combined-Shape" class="st0" d="M555.1,67.6c53.3,17.1,103,10.5,146.8-18.2C724,35,734.6,21.1,731.6,9.1
			c-3.2-12.8-21.6-22.3-55.3-27.9c-64.3-10.7-91.8-6.6-129,16.2c-18.1,11.1-29.2,23.9-30,36.1C516.4,47.4,528.9,59.2,555.1,67.6
			L555.1,67.6L555.1,67.6z M534,54.9c-9.7-6.3-14.2-13.5-13.7-21.3c0.7-10.9,11.2-23.1,28.5-33.7c18.6-11.4,32.7-17.2,50.1-19.8
			c19.2-2.9,42.8-1.7,76.8,4c32.6,5.4,50.1,14.4,52.9,25.6c1.2,4.6-0.2,9.8-3.9,15.3c-11-2.7-60.5-13.5-114.7-6.4
			C554.4,25.9,536.8,50.3,534,54.9L534,54.9z"/>
		<polygon id="Path-113" class="st0" points="515.7,74.2 538.5,256.6 538.6,257.5 539.5,257.8 674,304.2 674.8,304.5 675.4,304 
			770.4,234 771,233.5 771,232.8 764.5,42.1 761.5,42.2 768,232.1 674.3,301.1 541.4,255.3 518.9,75.6 		"/>
		<path id="Path-115" class="st0" d="M635.5,42.1c0-0.2,0-0.5,0-1c0-0.9,0-1.9-0.1-3c-0.1-3.3-0.2-7.1-0.3-11.4
			c-0.3-12.3-0.6-25.9-0.8-40.3c-0.6-33.6-1-66.8-1.2-97.8c-0.4-86.5,1.5-142.7,6.2-151.6c5.2-9.9,11.6-15.6,18.3-17.1
			c5.7-1.3,11.2,0.6,14.8,4.9c1.3,1.6,1.7,20.2,0.9,50.5c-0.7,26.7-2.3,62.6-4.5,105.3c-0.7,12.8-1.4,26.1-2.2,39.7
			c-1.6,27.7-3.2,55.6-4.9,82.4c-0.6,9.4-1.1,17.9-1.6,25.5c-0.2,2.6-0.3,5-0.5,7c0,0.7-0.1,1.3-0.1,1.8s0,0.5,0,0.6l3,0.2
			c0-0.1,0-0.1,0-0.6s0.1-1.1,0.1-1.8c0.1-2,0.3-4.3,0.5-7c0.5-7.6,1-16.1,1.6-25.5c1.7-26.8,3.3-54.7,4.9-82.4
			c0.8-13.7,1.5-26.9,2.2-39.8c5.1-97.2,6.6-153.5,2.9-157.9c-4.3-5.1-10.9-7.4-17.7-5.9c-7.6,1.8-14.7,8-20.2,18.6
			c-5,9.6-6.9,65.1-6.5,153c0.1,31,0.5,64.3,1.2,97.8c0.3,14.5,0.5,28.1,0.8,40.4c0.1,4.3,0.2,8.1,0.3,11.4c0,1.2,0.1,2.2,0.1,3
			c0,0.5,0,0.9,0,1L635.5,42.1L635.5,42.1z"/>
		<polygon id="Path-116" class="st0" points="570.7,-190.8 426.2,-255.8 397.3,-268.8 411.2,-240.3 475.4,-108.1 198.9,88.3 
			171,108.1 205.2,109.2 427.4,116.1 299.6,397.4 289.2,420.1 313.2,413.2 501,359.2 586.3,586.2 597.3,615.6 607.9,586 676,395.1 
			862.1,435.4 888.1,441.1 874.4,418.3 835.3,353.2 1014,353.2 1040.1,353.2 1022.5,333.9 929,231.7 1080.5,115.3 1105.8,95.9 
			1074,94.7 904.4,88.3 1046.4,-209.9 1063.9,-246.5 1029.8,-224.5 832.5,-96.8 805.4,-300.8 801.1,-333.4 784.2,-305.2 
			712.7,-186.2 732.4,-174.4 787,-265.2 812.1,-75.8 814.5,-57.8 829.8,-67.7 1008.2,-183.1 876.1,94.2 868.6,110 886.1,110.7 
			1041.2,116.5 905,221.1 895.1,228.7 903.5,237.9 987.9,330.2 815,330.2 794.7,330.2 805.2,347.6 841,407.3 671,370.4 661.1,368.3 
			657.7,377.8 596.7,548.7 518.8,341.1 515.1,331.2 504.8,334.1 330.8,384.2 455.5,109.9 462.6,94.2 445.4,93.7 240.1,87.3 
			496.7,-94.9 504.6,-100.6 500.4,-109.3 445.7,-221.8 561.3,-169.8 		"/>
		<path class="st0" d="M738.8,184.9c1.3-6.5,1.2-13.4,0-20.6c-1.2-6.8-3.4-12.9-6.7-18.5c-3.3-5.6-7.3-10.2-12-14
			c-4.8-3.7-10.1-6.5-16-8.1c-6-1.7-12.2-1.9-18.5-0.8c-6.3,1.1-12,3.5-17,7.1c-5,3.6-9.1,7.9-12.3,13.1c-3.2,5.2-5.4,10.9-6.7,17.2
			c-1.3,6.4-1.3,12.9-0.1,19.7c1.2,6.9,3.6,13.3,7,18.9c3.4,5.6,7.6,10.3,12.5,14.1c4.9,3.8,10.3,6.4,16.1,8
			c5.9,1.6,12,1.9,18.1,0.8c6.1-1.1,11.6-3.3,16.5-6.6c4.9-3.3,9-7.6,12.2-12.7C735.2,197.4,737.6,191.4,738.8,184.9z M716.9,154.6
			c2.3,3.8,3.9,8,4.7,12.7c0.8,4.6,0.8,9,0.1,13.2c-0.7,4.2-2.1,7.9-4.1,11.2c-2,3.3-4.5,6-7.5,8.2c-3,2.2-6.4,3.6-10.3,4.3
			c-3.8,0.7-7.4,0.5-10.9-0.5c-3.6-1-6.9-2.7-9.8-5.1c-3-2.4-5.6-5.5-7.7-9.2c-2.1-3.7-3.6-7.8-4.4-12.4c-0.8-4.5-0.8-8.8-0.1-12.9
			c0.8-4.1,2.1-7.8,4.1-11c2-3.2,4.5-6,7.5-8.2c3-2.1,6.3-3.5,10.1-4.2c3.6-0.6,7.1-0.5,10.5,0.3c3.4,0.8,6.5,2.3,9.2,4.5l0.2,0.2
			C711.9,147.9,714.6,150.9,716.9,154.6z M638.7,131.7l-11.3,2l-0.5,0.1l-1.7,0.3l-0.8,1.6l-0.2,0.4c-2.7,5.4-5.5,11-8.4,16.6
			c-2.8,5.7-5.6,11.2-8.3,16.7c-1.1,2.2-2,4.2-3,6.2c-0.2,0.5-0.2,0.5-0.2,0.5l-32.1-30.9l-0.4-0.4l-1.3-1.2l-1.8,0.3l-0.5,0.1
			l-11.4,2l-2,0.3l-6.9,1.2l5.2,4.8l1.5,1.4c2.3,2.1,4.8,4.5,7.5,7c2.7,2.6,5.5,5.2,8.3,7.8c2.8,2.6,5.6,5.2,8.4,7.9
			c2.8,2.7,5.5,5.2,8,7.6c2.2,2.1,4.4,4.2,6.5,6.2c0.6,0.6,1.4,1.3,2.4,2.2c0.9,0.8,1.7,1.6,2.6,2.4c0.3,0.3,0.3,0.2,0.3,0.2
			l6.8,38.1l0.2,1l0.6,3.4l3.4-0.6l1-0.2l8.8-1.6l1-0.2l3.4-0.6l-0.6-3.4l-0.2-1c-0.6-3.2-1.2-6.5-1.8-10.1
			c-0.7-3.5-1.3-6.9-1.9-10.2l-3.1-17.7l27.2-54l0.9-1.8l3.1-6.2l-6.9,1.2L638.7,131.7z"/>
	</g>
</g>
</svg>
