<?xml version="1.0" encoding="UTF-8" standalone="no"?>
<svg width="393px" height="428px" viewBox="0 0 393 428" version="1.1" xmlns="http://www.w3.org/2000/svg" xmlns:xlink="http://www.w3.org/1999/xlink">
    <!-- Generator: Sketch 3.8.2 (29753) - http://www.bohemiancoding.com/sketch -->
    <title>now open</title>
    <desc>Created with Sketch.</desc>
    <defs></defs>
    <g id="Page-1" stroke="none" stroke-width="1" fill="none" fill-rule="evenodd">
        <g id="now-open">
            <circle id="Oval-11" fill="#B8E986" cx="196.5" cy="231.5" r="196.5"></circle>
            <path d="M76.8702237,128.862801 L117.416463,197.4892 L117.416463,128.862801 L125.979023,128.862801 L126.104943,215.87352 L118.297903,215.87352 L77.6257436,146.869361 C77.6257436,152.158027 77.6467301,157.551546 77.6887036,163.05008 C77.7306772,168.548614 77.7516636,173.984107 77.7516636,179.35672 L77.7516636,215.87352 L69.3150238,215.87352 L69.1891038,128.862801 L76.8702237,128.862801 Z M195.864622,146.365681 C193.178315,143.343586 189.988374,141.035075 186.294702,139.440081 C182.60103,137.845086 178.697549,137.047601 174.584142,137.047601 C170.218894,137.047601 166.147521,137.971005 162.369902,139.817841 C158.592284,141.664677 155.29741,144.183051 152.485183,147.373041 C149.672955,150.56303 147.469377,154.298619 145.874383,158.57992 C144.279388,162.861222 143.481903,167.478242 143.481903,172.43112 C143.481903,177.467945 144.279388,182.168912 145.874383,186.53416 C147.469377,190.899408 149.672955,194.697957 152.485183,197.92992 C155.29741,201.161883 158.592284,203.701244 162.369902,205.54808 C166.147521,207.394916 170.218894,208.31832 174.584142,208.31832 C179.033338,208.31832 183.16767,207.394916 186.987262,205.54808 C190.806854,203.701244 194.122715,201.161883 196.934942,197.92992 C199.747169,194.697957 201.950747,190.899408 203.545742,186.53416 C205.140736,182.168912 205.938222,177.467945 205.938222,172.43112 C205.938222,167.226401 205.056791,162.37853 203.293902,157.88736 C201.531013,153.396191 199.054611,149.55567 195.864622,146.365681 L195.864622,146.365681 Z M202.034702,204.79256 C198.424977,208.738073 194.290645,211.760123 189.631582,213.8588 C184.972519,215.957477 179.956756,217.0068 174.584142,217.0068 C169.211529,217.0068 164.132806,215.873531 159.347822,213.60696 C154.562839,211.340388 150.344561,208.213406 146.692863,204.22592 C143.041164,200.238433 140.145033,195.516481 138.004383,190.05992 C135.863732,184.603359 134.793423,178.727152 134.793423,172.43112 C134.793423,166.302983 135.842746,160.57368 137.941423,155.243041 C140.0401,149.912401 142.873272,145.253407 146.441023,141.265921 C150.008774,137.278434 154.206065,134.130466 159.033022,131.821921 C163.85998,129.513376 169.043635,128.359121 174.584142,128.359121 C180.208597,128.359121 185.434225,129.513376 190.261182,131.821921 C195.088139,134.130466 199.264444,137.257448 202.790222,141.202961 C206.315999,145.148474 209.086212,149.807467 211.100942,155.180081 C213.115672,160.552694 214.123022,166.302983 214.123022,172.43112 C214.123022,178.978993 213.073699,185.002106 210.975022,190.50064 C208.876345,195.999174 205.896268,200.7631 202.034702,204.79256 L202.034702,204.79256 Z M282.08958,215.87352 L274.156621,215.87352 L262.068301,183.88984 C261.144883,186.576147 260.179506,189.241427 259.172141,191.88576 C258.164776,194.530093 257.157426,197.195373 256.150061,199.88168 C255.226643,202.400092 254.261266,205.086359 253.253901,207.94056 C252.246536,210.794761 251.281159,213.439054 250.357741,215.87352 L242.550701,215.87352 L210.315182,128.862801 L219.255501,128.862801 L246.328301,201.64456 C247.167772,199.377989 248.028217,197.006519 248.909661,194.53008 C249.791105,192.053641 250.65155,189.682171 251.491021,187.4156 L257.409261,171.046 C256.234002,167.772064 255.016787,164.393244 253.757581,160.90944 C252.498375,157.425636 251.239187,154.004844 249.979981,150.646961 C248.720775,147.121183 247.398628,143.448553 246.013501,139.628961 C244.628374,135.809368 243.3482,132.220684 242.172941,128.862801 L250.987341,128.862801 L263.705261,163.23896 C264.88052,166.512897 266.055762,169.681852 267.231021,172.74592 C268.40628,175.809989 269.581521,178.894998 270.756781,182.00104 C271.428357,183.763929 272.057951,185.442845 272.645581,187.03784 C273.23321,188.632835 273.799845,190.185832 274.345501,191.69688 C274.891157,193.207928 275.457791,194.781912 276.045421,196.41888 C276.63305,198.055848 277.304617,199.797724 278.060141,201.64456 C279.739082,196.943523 281.438985,192.263543 283.1599,187.60448 C284.880816,182.945417 286.622692,178.223464 288.38558,173.43848 C291.071887,166.051137 293.821113,158.579958 296.63334,151.024721 C299.445568,143.469483 302.194793,136.08225 304.8811,128.862801 L313.94734,128.862801 L282.08958,215.87352 Z M118.597583,258.365681 C115.911276,255.343586 112.721335,253.035075 109.027663,251.440081 C105.333991,249.845086 101.43051,249.047601 97.3171033,249.047601 C92.9518548,249.047601 88.8804823,249.971005 85.1028634,251.817841 C81.3252446,253.664677 78.0303709,256.183051 75.2181436,259.373041 C72.4059162,262.56303 70.2023383,266.298619 68.6073437,270.57992 C67.0123491,274.861222 66.2148637,279.478242 66.2148637,284.43112 C66.2148637,289.467945 67.0123491,294.168912 68.6073437,298.53416 C70.2023383,302.899408 72.4059162,306.697957 75.2181436,309.92992 C78.0303709,313.161883 81.3252446,315.701244 85.1028634,317.54808 C88.8804823,319.394916 92.9518548,320.31832 97.3171033,320.31832 C101.766299,320.31832 105.900631,319.394916 109.720223,317.54808 C113.539815,315.701244 116.855676,313.161883 119.667903,309.92992 C122.48013,306.697957 124.683708,302.899408 126.278703,298.53416 C127.873697,294.168912 128.671183,289.467945 128.671183,284.43112 C128.671183,279.226401 127.789752,274.37853 126.026863,269.88736 C124.263974,265.396191 121.787572,261.55567 118.597583,258.365681 L118.597583,258.365681 Z M124.767663,316.79256 C121.157938,320.738073 117.023606,323.760123 112.364543,325.8588 C107.70548,327.957477 102.689717,329.0068 97.3171033,329.0068 C91.9444898,329.0068 86.8657673,327.873531 82.0807835,325.60696 C77.2957996,323.340388 73.0775219,320.213406 69.4258237,316.22592 C65.7741255,312.238433 62.8779945,307.516481 60.7373438,302.05992 C58.5966931,296.603359 57.5263838,290.727152 57.5263838,284.43112 C57.5263838,278.302983 58.5757067,272.57368 60.6743838,267.243041 C62.7730609,261.912401 65.6062326,257.253407 69.1739837,253.265921 C72.7417348,249.278434 76.9390261,246.130466 81.7659835,243.821921 C86.5929409,241.513376 91.7765956,240.359121 97.3171033,240.359121 C102.941558,240.359121 108.167186,241.513376 112.994143,243.821921 C117.8211,246.130466 121.997405,249.257448 125.523183,253.202961 C129.04896,257.148474 131.819173,261.807467 133.833903,267.180081 C135.848633,272.552694 136.855983,278.302983 136.855983,284.43112 C136.855983,290.978993 135.80666,297.002106 133.707983,302.50064 C131.609306,307.999174 128.629229,312.7631 124.767663,316.79256 L124.767663,316.79256 Z M155.492142,286.06808 L155.492142,306.08936 C155.492142,309.615138 155.513129,313.266781 155.555102,317.0444 C155.597076,320.822019 155.618062,324.431689 155.618062,327.87352 L147.307343,327.87352 L147.181423,240.862801 L172.869102,240.862801 C176.39488,240.862801 179.689753,241.450422 182.753822,242.625681 C185.817891,243.80094 188.483171,245.395911 190.749742,247.410641 C193.016313,249.425371 194.800162,251.775854 196.101342,254.462161 C197.402522,257.148467 198.053102,260.002625 198.053102,263.024721 C198.053102,266.21471 197.402522,269.215773 196.101342,272.028 C194.800162,274.840228 193.016313,277.295643 190.749742,279.39432 C188.483171,281.492997 185.817891,283.129941 182.753822,284.3052 C179.689753,285.480459 176.39488,286.06808 172.869102,286.06808 L155.492142,286.06808 Z M155.492142,249.173521 L155.492142,277.50552 L172.869102,277.50552 C175.135673,277.50552 177.276292,277.148751 179.291022,276.4352 C181.305752,275.72165 183.089601,274.7143 184.642622,273.41312 C186.195643,272.111941 187.412858,270.579929 188.294302,268.81704 C189.175746,267.054152 189.616462,265.123398 189.616462,263.024721 C189.616462,261.177885 189.175746,259.415022 188.294302,257.736081 C187.412858,256.057139 186.195643,254.588087 184.642622,253.328881 C183.089601,252.069674 181.284766,251.062325 179.228062,250.306801 C177.171358,249.551277 174.967781,249.173521 172.617262,249.173521 L155.492142,249.173521 Z M251.820941,285.94216 L214.926382,285.94216 L214.926382,319.31096 L257.991021,319.31096 L258.116941,327.87352 L206.615662,327.87352 L206.489742,240.862801 L257.991021,240.862801 L257.991021,249.173521 L214.926382,249.173521 L214.926382,277.3796 L251.820941,277.3796 L251.820941,285.94216 Z M275.619821,240.862801 L316.16606,309.4892 L316.16606,240.862801 L324.72862,240.862801 L324.85454,327.87352 L317.0475,327.87352 L276.375341,258.869361 C276.375341,264.158027 276.396327,269.551546 276.438301,275.05008 C276.480274,280.548614 276.501261,285.984107 276.501261,291.35672 L276.501261,327.87352 L268.064621,327.87352 L267.938701,240.862801 L275.619821,240.862801 Z" id="NOW" fill="#FFFFFF" transform="translate(191.190462, 228.682960) rotate(-10.000000) translate(-191.190462, -228.682960) "></path>
            <polygon id="Line" fill="#B8E986" points="256 58.5 256 8.5 256 0 239 0 239 8.5 239 58.5 239 67 256 67"></polygon>
            <polygon id="Line-Copy-60" fill="#B8E986" points="306.005654 72.0317612 327.924211 27.0920589 331.650366 19.4523095 316.370867 12 312.644712 19.6397494 290.726155 64.5794517 287 72.2192011 302.279499 79.6715106"></polygon>
            <polygon id="Line-Copy-61" fill="#B8E986" points="338.304187 103.026724 377.161485 71.5607047 383.767226 66.2114813 373.068779 53 366.463039 58.3492233 327.605741 89.8152429 321 95.1644662 331.698447 108.375948"></polygon>
            <path d="M342.315762,99.7782152 L338.304187,103.026724 L331.698447,108.375948 L321,95.1644662 L327.605741,89.8152429 L330.325063,87.6131791 C334.494925,91.4931925 338.495905,95.5522852 342.315762,99.7782152 Z M307.367018,69.2405509 L306.005654,72.0317612 L302.279499,79.6715106 L287,72.2192011 L290.726155,64.5794517 L292.85831,60.207885 C297.833004,63.0123559 302.673266,66.027271 307.367018,69.2405509 Z M256,44.1694542 L256,58.5 L256,67 L239,67 L239,58.5 L239,39.6082142 C244.765794,40.8794741 250.436547,42.4039737 256,44.1694542 Z" id="Combined-Shape" fill="#84D446"></path>
        </g>
    </g>
</svg>