<?xml version="1.0" encoding="UTF-8" standalone="no"?>
<svg width="963px" height="706px" viewBox="0 0 963 706" version="1.1" xmlns="http://www.w3.org/2000/svg" xmlns:xlink="http://www.w3.org/1999/xlink">
    <!-- Generator: Sketch 3.8.2 (29753) - http://www.bohemiancoding.com/sketch -->
    <title>Title</title>
    <desc>Created with Sketch.</desc>
    <defs></defs>
    <g id="Page-1" stroke="none" stroke-width="1" fill="none" fill-rule="evenodd">
        <g id="Title" transform="translate(478.236299, 331.185355) rotate(-10.000000) translate(-478.236299, -331.185355) translate(16.736299, 31.685355)" fill="#481475">
            <path d="M25.7157144,190.673237 L25.7157144,228.185151 C25.7157144,234.791055 25.7550347,241.632782 25.8336764,248.710537 C25.9123181,255.788292 25.9516384,262.551379 25.9516384,269 L10.3806554,269 L10.1447314,105.976526 L58.2732244,105.976526 C64.879129,105.976526 71.0524115,107.077494 76.7932572,109.279462 C82.5341029,111.48143 87.5277773,114.469771 91.7744303,118.244573 C96.0210832,122.019376 99.3633063,126.423246 101.8012,131.456317 C104.239093,136.489387 105.458021,141.836944 105.458021,147.499148 C105.458021,153.475918 104.239093,159.098717 101.8012,164.367713 C99.3633063,169.636708 96.0210832,174.23718 91.7744303,178.169266 C87.5277773,182.101352 82.5341029,185.168333 76.7932572,187.370301 C71.0524115,189.572269 64.879129,190.673237 58.2732244,190.673237 L25.7157144,190.673237 Z M25.7157144,121.547509 L25.7157144,174.630406 L58.2732244,174.630406 C62.5198773,174.630406 66.530545,173.961961 70.3053476,172.625052 C74.0801503,171.288143 77.4223733,169.40077 80.332117,166.962876 C83.2418607,164.524983 85.5224364,161.654603 87.1739126,158.351651 C88.8253887,155.048699 89.6511144,151.431234 89.6511144,147.499148 C89.6511144,144.038912 88.8253887,140.736009 87.1739126,137.59034 C85.5224364,134.444671 83.2418607,131.692252 80.332117,129.333001 C77.4223733,126.973749 74.04083,125.086376 70.1873856,123.670825 C66.3339413,122.255274 62.2053128,121.547509 57.8013764,121.547509 L25.7157144,121.547509 Z M232.621049,138.76996 C227.587979,133.107756 221.611298,128.782526 214.690827,125.794141 C207.770355,122.805756 200.456785,121.311585 192.749896,121.311585 C184.571157,121.311585 176.943024,123.041677 169.865269,126.501913 C162.787514,129.962149 156.614232,134.680581 151.345237,140.657352 C146.076241,146.634123 141.947613,153.633131 138.959227,161.654587 C135.970842,169.676042 134.476672,178.326502 134.476672,187.606225 C134.476672,197.043232 135.970842,205.850972 138.959227,214.029711 C141.947613,222.20845 146.076241,229.32542 151.345237,235.380832 C156.614232,241.436245 162.787514,246.193997 169.865269,249.654233 C176.943024,253.114469 184.571157,254.844561 192.749896,254.844561 C201.085918,254.844561 208.832012,253.114469 215.988409,249.654233 C223.144805,246.193997 229.357408,241.436245 234.626403,235.380832 C239.895399,229.32542 244.024027,222.20845 247.012413,214.029711 C250.000798,205.850972 251.494968,197.043232 251.494968,187.606225 C251.494968,177.854652 249.843517,168.771669 246.540565,160.357005 C243.237612,151.942341 238.59782,144.746731 232.621049,138.76996 L232.621049,138.76996 Z M244.181325,248.238689 C237.418137,255.631011 229.672043,261.29313 220.942812,265.225216 C212.213581,269.157302 202.816036,271.123316 192.749896,271.123316 C182.683756,271.123316 173.16825,269.000021 164.203094,264.753368 C155.237937,260.506715 147.334563,254.647995 140.492733,247.177031 C133.650903,239.706068 128.224706,230.859007 124.213978,220.635583 C120.20325,210.412159 118.197917,199.402483 118.197917,187.606225 C118.197917,176.124534 120.16393,165.3901 124.096016,155.402601 C128.028102,145.415102 133.336339,136.686002 140.020885,129.215039 C146.705432,121.744075 154.569486,115.846035 163.613284,111.52074 C172.657082,107.195445 182.369189,105.03283 192.749896,105.03283 C203.287887,105.03283 213.078634,107.195445 222.122432,111.52074 C231.16623,115.846035 238.990964,121.704755 245.596869,129.097077 C252.202773,136.489399 257.393049,145.218499 261.167852,155.284639 C264.942654,165.350779 266.830027,176.124534 266.830027,187.606225 C266.830027,199.874334 264.864014,211.159251 260.931928,221.461317 C256.999842,231.763383 251.416363,240.689084 244.181325,248.238689 L244.181325,248.238689 Z M301.746777,190.673237 L301.746777,228.185151 C301.746777,234.791055 301.786097,241.632782 301.864739,248.710537 C301.943381,255.788292 301.982701,262.551379 301.982701,269 L286.411718,269 L286.175794,105.976526 L334.304287,105.976526 C340.910192,105.976526 347.083474,107.077494 352.82432,109.279462 C358.565166,111.48143 363.55884,114.469771 367.805493,118.244573 C372.052146,122.019376 375.394369,126.423246 377.832262,131.456317 C380.270156,136.489387 381.489084,141.836944 381.489084,147.499148 C381.489084,153.475918 380.270156,159.098717 377.832262,164.367713 C375.394369,169.636708 372.052146,174.23718 367.805493,178.169266 C363.55884,182.101352 358.565166,185.168333 352.82432,187.370301 C347.083474,189.572269 340.910192,190.673237 334.304287,190.673237 L301.746777,190.673237 Z M301.746777,121.547509 L301.746777,174.630406 L334.304287,174.630406 C338.55094,174.630406 342.561608,173.961961 346.33641,172.625052 C350.111213,171.288143 353.453436,169.40077 356.36318,166.962876 C359.272923,164.524983 361.553499,161.654603 363.204975,158.351651 C364.856451,155.048699 365.682177,151.431234 365.682177,147.499148 C365.682177,144.038912 364.856451,140.736009 363.204975,137.59034 C361.553499,134.444671 359.272923,131.692252 356.36318,129.333001 C353.453436,126.973749 350.071893,125.086376 346.218448,123.670825 C342.365004,122.255274 338.236376,121.547509 333.832439,121.547509 L301.746777,121.547509 Z M474.443134,226.533683 C475.072268,230.151202 476.684399,233.650706 479.279576,237.0323 C481.874753,240.413894 485.177656,243.441555 489.188383,246.115373 C493.199111,248.789192 497.799583,250.912487 502.989937,252.485321 C508.18029,254.058155 513.685128,254.844561 519.504616,254.844561 C525.009536,254.844561 530.278452,254.058155 535.311523,252.485321 C540.344593,250.912487 544.827104,248.789192 548.75919,246.115373 C552.691276,243.441555 555.954858,240.413894 558.550035,237.0323 C561.145212,233.650706 562.757343,230.151202 563.386477,226.533683 L563.386477,105.976526 L579.429308,105.976526 L579.429308,226.769607 C579.114741,232.903661 577.306008,238.64442 574.003056,243.992058 C570.700104,249.339695 566.335554,254.018807 560.909275,258.029535 C555.482996,262.040262 549.191753,265.225204 542.035356,267.584456 C534.87896,269.943708 527.368788,271.123316 519.504616,271.123316 C511.168593,271.123316 503.343859,269.943708 496.030179,267.584456 C488.716499,265.225204 482.267974,262.040262 476.684412,258.029535 C471.10085,254.018807 466.657659,249.339695 463.354707,243.992058 C460.051755,238.64442 458.164382,232.903661 457.692531,226.769607 L457.692531,105.976526 L474.443134,105.976526 L474.443134,226.533683 Z M616.705298,190.673237 L616.705298,228.185151 C616.705298,234.791055 616.744618,241.632782 616.82326,248.710537 C616.901901,255.788292 616.941221,262.551379 616.941221,269 L601.370238,269 L601.134314,105.976526 L649.262807,105.976526 C655.868712,105.976526 662.041995,107.077494 667.78284,109.279462 C673.523686,111.48143 678.51736,114.469771 682.764013,118.244573 C687.010666,122.019376 690.352889,126.423246 692.790783,131.456317 C695.228676,136.489387 696.447605,141.836944 696.447605,147.499148 C696.447605,153.475918 695.228676,159.098717 692.790783,164.367713 C690.352889,169.636708 687.010666,174.23718 682.764013,178.169266 C678.51736,182.101352 673.523686,185.168333 667.78284,187.370301 C662.041995,189.572269 655.868712,190.673237 649.262807,190.673237 L616.705298,190.673237 Z M616.705298,121.547509 L616.705298,174.630406 L649.262807,174.630406 C653.50946,174.630406 657.520128,173.961961 661.294931,172.625052 C665.069733,171.288143 668.411956,169.40077 671.3217,166.962876 C674.231444,164.524983 676.51202,161.654603 678.163496,158.351651 C679.814972,155.048699 680.640698,151.431234 680.640698,147.499148 C680.640698,144.038912 679.814972,140.736009 678.163496,137.59034 C676.51202,134.444671 674.231444,131.692252 671.3217,129.333001 C668.411956,126.973749 665.030413,125.086376 661.176969,123.670825 C657.323524,122.255274 653.194896,121.547509 648.79096,121.547509 L616.705298,121.547509 Z M24.5360945,478 L8.49326347,478 L8.25733948,314.976526 L24.3001705,314.976526 L24.5360945,478 Z M55.6780605,314.976526 L131.645584,443.555098 L131.645584,314.976526 L147.688415,314.976526 L147.924339,478 L133.297052,478 L57.0936044,348.713656 C57.0936044,358.622513 57.1329247,368.727823 57.2115664,379.029888 C57.2902082,389.331954 57.3295284,399.515904 57.3295284,409.582044 L57.3295284,478 L41.5226214,478 L41.2866974,314.976526 L55.6780605,314.976526 Z M280.513618,349.893276 C274.536848,343.601938 267.931042,338.726225 260.696004,335.265989 C253.460965,331.805753 245.990114,330.075661 238.283225,330.075661 C230.419053,330.075661 222.948201,331.805753 215.870447,335.265989 C208.792692,338.726225 202.580089,343.444657 197.232452,349.421428 C191.884815,355.398199 187.677546,362.436527 184.610518,370.536625 C181.543491,378.636722 180.010001,387.326502 180.010001,396.606225 C180.010001,405.728665 181.464851,414.339804 184.374594,422.439901 C187.284338,430.539999 191.334326,437.656968 196.52468,443.791022 C201.715033,449.925076 207.888316,454.80079 215.044713,458.418309 C222.201109,462.035828 229.947203,463.844561 238.283225,463.844561 C245.990114,463.844561 253.343005,462.114469 260.342118,458.654233 C267.341231,455.193997 273.907716,450.396924 280.041771,444.26287 L291.130198,455.115373 C283.737876,462.822262 275.55926,468.916904 266.594103,473.399482 C257.628947,477.88206 248.192082,480.123316 238.283225,480.123316 C228.531652,480.123316 219.173427,477.921381 210.208271,473.517444 C201.243115,469.113508 193.33974,463.136827 186.49791,455.587221 C179.656081,448.037616 174.190563,439.190555 170.101193,429.045773 C166.011824,418.900991 163.96717,408.087916 163.96717,396.606225 C163.96717,385.596384 165.893863,375.097872 169.747307,365.110373 C173.600752,355.122874 178.908988,346.354454 185.672176,338.804849 C192.435364,331.255243 200.299419,325.239242 209.264575,320.756664 C218.229731,316.274086 227.902518,314.03283 238.283225,314.03283 C248.192082,314.03283 257.786228,316.274086 267.065951,320.756664 C276.345674,325.239242 284.524291,331.333884 291.602046,339.040773 L280.513618,349.893276 Z M322.979936,435.533683 C323.60907,439.151202 325.221201,442.650706 327.816378,446.0323 C330.411554,449.413894 333.714457,452.441555 337.725185,455.115373 C341.735913,457.789192 346.336384,459.912487 351.526738,461.485321 C356.717092,463.058155 362.22193,463.844561 368.041417,463.844561 C373.546338,463.844561 378.815254,463.058155 383.848324,461.485321 C388.881394,459.912487 393.363905,457.789192 397.295991,455.115373 C401.228077,452.441555 404.49166,449.413894 407.086837,446.0323 C409.682013,442.650706 411.294145,439.151202 411.923278,435.533683 L411.923278,314.976526 L427.966109,314.976526 L427.966109,435.769607 C427.651542,441.903661 425.84281,447.64442 422.539858,452.992058 C419.236905,458.339695 414.872355,463.018807 409.446076,467.029535 C404.019798,471.040262 397.728554,474.225204 390.572158,476.584456 C383.415761,478.943708 375.905589,480.123316 368.041417,480.123316 C359.705395,480.123316 351.880661,478.943708 344.56698,476.584456 C337.2533,474.225204 330.804776,471.040262 325.221214,467.029535 C319.637651,463.018807 315.194461,458.339695 311.891509,452.992058 C308.588556,447.64442 306.701183,441.903661 306.229333,435.769607 L306.229333,314.976526 L322.979936,314.976526 L322.979936,435.533683 Z M498.979229,478 L449.90704,478 L449.671116,314.976526 L502.754013,314.976526 C508.888067,315.13381 514.668147,316.352738 520.094426,318.633348 C525.520704,320.913958 530.239137,323.941619 534.249865,327.716421 C538.260592,331.491224 541.445534,335.855774 543.804786,340.810203 C546.164038,345.764631 547.343646,350.994227 547.343646,356.499148 C547.343646,363.891469 545.613554,370.575915 542.153318,376.552686 C538.693082,382.529457 534.131931,387.483811 528.469727,391.415897 C535.075632,395.66255 540.423188,401.246029 544.512558,408.1665 C548.601928,415.086972 550.646582,422.479183 550.646582,430.343355 C550.646582,436.791976 549.427653,442.847298 546.98976,448.509502 C544.551866,454.171706 541.209643,459.12606 536.96299,463.372713 C532.716338,467.619366 527.683343,471.000909 521.863855,473.517444 C516.044368,476.033979 509.753125,477.370869 502.989937,477.528152 L503.225861,477.528152 L498.979229,478 Z M465.478023,330.547509 L465.478023,383.394482 L502.754013,383.394482 C506.843382,383.237198 510.618128,382.490113 514.078364,381.153204 C517.5386,379.816295 520.566261,377.968242 523.161437,375.60899 C525.756614,373.249739 527.801268,370.418679 529.295461,367.115727 C530.789654,363.812775 531.536739,360.27395 531.536739,356.499148 C531.536739,353.196195 530.789654,350.050574 529.295461,347.062188 C527.801268,344.073803 525.756614,341.400024 523.161437,339.040773 C520.566261,336.681521 517.5386,334.754828 514.078364,333.260635 C510.618128,331.766442 506.843382,330.862076 502.754013,330.547509 L465.478023,330.547509 Z M502.754013,461.957169 C507.157949,461.799886 511.325898,460.816879 515.257984,459.008119 C519.19007,457.19936 522.571613,454.879464 525.402715,452.048362 C528.233817,449.21726 530.475073,445.953677 532.126549,442.257516 C533.778025,438.561355 534.603751,434.590008 534.603751,430.343355 C534.603751,426.411269 533.778025,422.636523 532.126549,419.019004 C530.475073,415.401484 528.233817,412.177222 525.402715,409.34612 C522.571613,406.515018 519.19007,404.234443 515.257984,402.504325 C511.325898,400.774207 507.157949,399.75188 502.754013,399.437313 L465.478023,399.437313 L465.478023,461.957169 L502.754013,461.957169 Z M649.970579,397.078073 C648.397745,392.516853 646.824934,388.191623 645.2521,384.102254 C643.679265,380.012884 642.106454,375.923576 640.53362,371.834207 L640.53362,372.070131 C639.589919,369.553596 638.724873,367.2337 637.938456,365.110373 C637.152039,362.987047 636.365634,360.903072 635.579216,358.858387 C634.792799,356.813703 634.006394,354.651088 633.219976,352.370478 C632.433559,350.089868 631.489873,347.53405 630.388889,344.702948 C629.130621,348.320468 627.872372,351.780651 626.614105,355.083604 C625.355837,358.386556 624.097589,361.768099 622.839321,365.228335 C620.637353,370.733256 618.671339,375.923531 616.941221,380.799318 C615.211104,385.675105 613.24509,391.101302 611.043122,397.078073 L649.970579,397.078073 Z M624.254865,314.976526 L636.758836,314.976526 L696.919453,478 L680.404774,478 L655.868679,413.120904 L605.380946,413.120904 C601.606144,423.501611 597.595476,434.314686 593.348823,445.560452 C589.10217,456.806218 585.012862,467.619293 581.080776,478 L564.566097,478 L624.254865,314.976526 Z M755.269917,331.127939 L755.269917,403.084755 C755.269917,415.510147 755.309237,428.131954 755.387879,440.950554 C755.466521,453.769155 755.505841,466.312322 755.505841,478.58043 L739.698934,478.58043 L739.46301,331.127939 L688.031581,331.127939 L688.031581,315.556956 L806.229498,315.556956 L806.229498,331.127939 L755.269917,331.127939 Z M910.491694,397.988642 L841.365966,397.988642 L841.365966,460.508498 L922.051969,460.508498 L922.287893,476.551329 L825.794983,476.551329 L825.559059,313.527855 L922.051969,313.527855 L922.051969,329.098838 L841.365966,329.098838 L841.365966,381.945811 L910.491694,381.945811 L910.491694,397.988642 Z" id="POP-UP"></path>
            <path d="M155.451997,543.539281 L154.450548,543.539281 L154.451998,544.540728 L154.527918,597.001447 L154.529363,598 L155.527917,598 L175.343036,598 C178.141266,597.891034 180.716934,597.077665 183.092311,595.566062 C185.432991,594.076538 187.464089,592.098541 189.182962,589.639231 C190.890459,587.196196 192.238726,584.342582 193.229962,581.081937 C194.220916,577.822221 194.715676,574.345883 194.715676,570.655761 C194.715676,566.965638 194.220916,563.4893 193.229962,560.229584 C192.237309,556.964276 190.86088,554.106547 189.098765,551.660627 C187.326634,549.200804 185.25434,547.248065 182.884363,545.810102 C180.482153,544.352581 177.893354,543.593561 175.13488,543.539473 L155.451997,543.539281 Z M175.115276,550.701841 C176.771397,550.746966 178.348946,551.257684 179.83998,552.24406 C181.364312,553.252464 182.697006,554.644127 183.838925,556.428375 C184.996371,558.236884 185.90515,560.35737 186.562767,562.792987 C187.222521,565.236522 187.553116,567.85679 187.553116,570.655761 C187.553116,573.454731 187.222521,576.074999 186.562767,578.518535 C185.90515,580.954151 184.996371,583.074637 183.838925,584.883147 C182.693822,586.67237 181.368649,588.080366 179.863147,589.115398 C178.399356,590.121755 176.864676,590.640838 175.239349,590.685986 C174.045655,590.6856 172.798977,590.698321 171.52704,590.72376 C170.268365,590.748934 169.00971,590.76152 167.751036,590.76152 C166.558111,590.812442 161.58828,590.761522 161.58828,590.761522 L161.614556,571.350161 L161.58828,550.699732 L175.115276,550.701841 Z" id="Combined-Shape"></path>
            <path d="M296.629285,583.163059 L296.644074,583.3344 L296.644074,544.539281 L296.644074,543.539281 L295.644074,543.539281 L290.253754,543.539281 L289.253754,543.539281 L289.253754,544.539281 L289.253754,583.41032 C289.42085,585.620972 290.078747,587.622078 291.225036,589.477973 C292.358932,591.313805 293.880311,592.915965 295.781913,594.281905 C297.665541,595.634933 299.834036,596.705958 302.283751,597.496189 C304.738608,598.288078 307.360114,598.68328 310.144793,598.68328 C312.780715,598.68328 315.303181,598.287081 317.708248,597.494202 C320.109398,596.702614 322.229011,595.62956 324.063144,594.273896 C325.909953,592.908863 327.402025,591.309255 328.533111,589.477973 C329.683875,587.614831 330.317264,585.604508 330.42716,583.461535 L330.428473,544.539281 L330.428473,543.539281 L329.428473,543.539281 L324.265913,543.539281 L323.265913,543.539281 L323.265913,544.539281 L323.265913,583.3344 L323.280701,583.163059 C323.107083,584.161362 322.656515,585.139426 321.916244,586.104021 C321.147904,587.105191 320.176083,588.00676 318.996563,588.808834 C317.814728,589.612482 316.46132,590.25357 314.933158,590.73112 C313.411152,591.206747 311.816196,591.4448 310.144793,591.4448 C308.368651,591.4448 306.694876,591.205689 305.120401,590.728576 C303.541402,590.250091 302.150219,589.608007 300.943774,588.80371 C299.741694,588.002323 298.759895,587.102342 297.993743,586.104021 C297.253472,585.139426 296.802903,584.161362 296.629285,583.163059 L296.629285,583.163059 Z" id="Path"></path>
            <path d="M421.955488,590.896157 L422.018658,590.611891 L422.170498,589.928611 L422.194311,589.71168 L422.194311,570.124321 L422.194311,569.124321 L421.194311,569.124321 L402.138391,569.124321 L401.138391,569.124321 L401.138391,570.124321 L401.138391,575.135041 L401.138391,576.135041 L402.138391,576.135041 L415.031751,576.151143 L415.031751,581.995281 C415.031751,581.995281 415.154077,587.491047 415.05561,587.578982 C413.648829,588.835294 412.07757,589.818918 410.337795,590.532672 C408.485662,591.292521 406.514209,591.67256 404.415991,591.67256 C401.988267,591.67256 399.697903,591.138537 397.53298,590.067972 C395.34676,588.986874 393.438834,587.52293 391.803625,585.671297 C390.163278,583.813844 388.85812,581.626497 387.887737,579.103501 C386.920191,576.58788 386.435992,573.900576 386.435992,571.035361 C386.435992,568.119867 386.920107,565.420921 387.886566,562.93229 C388.856898,560.433685 390.162359,558.257917 391.803625,556.399425 C393.436961,554.549912 395.342132,553.100065 397.525014,552.044605 C399.691882,550.996889 401.985107,550.474081 404.415991,550.474081 C406.746241,550.474081 409.017205,550.997235 411.238683,552.048257 C413.478607,553.108006 415.516791,554.603478 417.356591,556.54011 L418.063228,557.283938 L418.788698,556.558468 L422.356938,552.990228 L423.049761,552.297405 L422.371218,551.590589 C419.860847,548.975619 417.081894,546.93073 414.03706,545.46081 C410.966658,543.978546 407.756074,543.235601 404.415991,543.235601 C400.975039,543.235601 397.725235,543.978414 394.677984,545.462292 C391.651092,546.936257 389.003586,548.938352 386.740996,551.464033 C384.483398,553.984142 382.700012,556.921484 381.391814,560.27047 C380.080454,563.627554 379.425272,567.21795 379.425272,571.035361 C379.425272,574.802573 380.080622,578.367678 381.391814,581.724331 C382.700012,585.073318 384.483398,588.010659 386.740996,590.530768 C389.00509,593.058129 391.654795,595.048704 394.684336,596.497614 C397.730017,597.954244 400.977539,598.68328 404.415991,598.68328 C407.747631,598.68328 410.888931,598.007304 413.830011,596.655997 C416.747941,595.315326 419.389005,593.46264 421.749578,591.102067 L421.955488,590.896157 Z" id="Path"></path>
            <path d="M263.119626,597.993884 L264.486186,597.842044 L264.375754,595.84816 L264.299834,596.84816 L264.323084,597.84789 C266.626058,597.794332 268.777488,597.337153 270.770345,596.475377 C272.757245,595.616177 274.482397,594.457091 275.939421,593.000067 C277.396156,591.543332 278.543132,589.843109 279.377398,587.905459 C280.216325,585.956982 280.635674,583.873766 280.635674,581.66416 C280.635674,578.95347 279.929159,576.399145 278.52268,574.018951 C277.127864,571.658493 274.20316,569.096043 274.20316,569.096043 C274.20316,569.096043 276.821154,566.490865 277.76798,564.855437 C278.971263,562.77704 279.572794,560.452943 279.572794,557.901201 C279.572794,555.981095 279.160065,554.151329 278.336854,552.422587 C277.524239,550.716096 276.42554,549.21047 275.044599,547.910761 C273.665483,546.61277 272.045923,545.573552 270.191494,544.794155 C268.329357,544.011517 266.346575,543.59338 264.249547,543.53961 L247.141915,543.539281 L246.140466,543.539281 L246.141916,544.540728 L246.217836,597.001447 L246.219281,598 L247.217835,598 L263.009194,598 L263.119626,597.993884 Z M253.224175,590.861682 L253.142739,572.718641 L264.223914,572.718641 C265.456247,572.809212 266.68531,573.11068 267.844936,573.620916 C268.998763,574.1286 269.983391,574.792651 270.805127,575.614387 C271.631917,576.441177 272.28448,577.379952 272.766266,578.435293 C273.238369,579.469423 273.473114,580.542544 273.473114,581.66416 C273.473114,582.891839 273.236313,584.030738 272.762945,585.09018 C272.281161,586.16846 271.629607,587.117214 270.805127,587.941693 C269.979533,588.767288 268.989603,589.446426 267.829769,589.97995 C266.685133,590.506482 265.47385,590.792162 264.188223,590.838077 L253.224175,590.861682 Z M264.223914,550.550001 C265.355229,550.63998 266.461897,550.905119 267.471638,551.341143 C268.485654,551.779014 269.366372,552.339471 270.118321,553.023061 C270.863199,553.700223 271.445575,554.461791 271.870487,555.311615 C272.282095,556.13483 272.486154,556.994028 272.486154,557.901201 C272.486154,558.975237 272.275423,559.973439 271.853806,560.905433 C271.428776,561.844973 270.85155,562.644209 270.118321,563.310781 C269.375847,563.985758 268.507682,564.515676 267.507675,564.902043 C266.499795,565.291451 265.393799,565.510346 264.185481,565.55682 L253.256075,565.556144 L253.210064,550.551142 L264.223914,550.550001 Z" id="Combined-Shape"></path>
            <path d="M212.5,216 C221.060414,216 228,209.060414 228,200.5 C228,191.939586 221.060414,185 212.5,185 C203.939586,185 197,191.939586 197,200.5 C197,209.060414 203.939586,216 212.5,216 Z" id="Oval-4"></path>
            <path d="M240.5,416 C249.060414,416 256,409.060414 256,400.5 C256,391.939586 249.060414,385 240.5,385 C231.939586,385 225,391.939586 225,400.5 C225,409.060414 231.939586,416 240.5,416 Z" id="Oval-4-Copy"></path>
            <path d="M672.79209,59.3530692 L672.79209,9.35306924 L672.79209,0.853069238 L655.79209,0.853069238 L655.79209,9.35306924 L655.79209,59.3530692 L655.79209,67.8530692 L672.79209,67.8530692 L672.79209,59.3530692 Z M731.355726,72.8671174 L753.274283,27.9274151 L757.000438,20.2876657 L741.720939,12.8353562 L737.994784,20.4751056 L716.076227,65.4148079 L712.350072,73.0545573 L727.629571,80.5068668 L731.355726,72.8671174 Z M766.618297,110.86881 L805.475595,79.4027905 L812.081336,74.0535672 L801.382889,60.8420858 L794.777148,66.1913092 L755.91985,97.6573287 L749.314109,103.006552 L760.012556,116.218033 L766.618297,110.86881 Z" id="Combined-Shape"></path>
            <path d="M72.1736939,543.539281 L71.9334411,544.195466 L52.7256816,596.656185 L52.2336623,598 L53.6647188,598 L58.9791187,598 L59.6696672,598 L59.9142781,597.354227 C61.1797407,594.013406 62.4957942,590.533457 63.8624788,586.914274 C65.1334468,583.548562 67.4787771,577.177403 67.4787771,577.177403 L82.3637848,577.14571 L90.0060908,597.353731 L90.2504979,598 L90.9414379,598 L96.2558378,598 L97.6907872,598 L97.1939953,596.653791 L77.8343958,544.193073 L77.5931269,543.539281 L76.8962383,543.539281 L72.8724784,543.539281 L72.1736939,543.539281 Z M70.0489136,569.979195 C70.0489136,569.979195 74.2215571,558.706275 74.5661661,557.801676 C74.9746172,556.729492 74.8710934,557.062831 74.8710934,557.062831 L79.7429686,569.974122 L70.0489136,569.979195 Z" id="Combined-Shape"></path>
            <path d="M366.098506,597.663917 L366.396887,598 L366.846312,598 L373.451352,598 L375.682217,598 L374.197865,596.334629 C372.126024,594.010124 369.864203,591.432408 367.412424,588.601487 C364.956284,585.765531 362.639325,583.106726 360.461458,580.62497 C358.983207,578.993607 357.528272,577.386852 356.085968,575.792727 C354.647673,574.203033 353.185145,572.718641 353.185145,572.718641 L354.169953,572.718641 L356.141592,572.718641 C358.387624,572.718641 360.495557,572.342703 362.459434,571.589435 C364.421337,570.836925 366.147861,569.784824 367.632865,568.434821 C369.117026,567.085583 370.294248,565.529485 371.159883,563.771165 C372.038209,561.987064 372.477432,560.051739 372.477432,557.977121 C372.477432,555.952092 372.037725,554.042113 371.159883,552.258997 C370.29149,550.495075 369.109129,548.959364 367.617726,547.657777 C366.132817,546.361855 364.407683,545.351035 362.448208,544.626298 C360.487522,543.901112 358.383541,543.539281 356.141592,543.539281 L340.653913,543.539281 L339.652464,543.539281 L339.653914,544.540728 L339.729834,597.001447 L339.731279,598 L340.729833,598 L345.816473,598 L346.816473,598 L346.816473,597 L346.816473,576.132388 L366.098506,597.663917 Z M346.896856,550.474081 L355.989752,550.474081 C357.291317,550.474081 358.50319,550.681831 359.630735,551.096031 C360.764522,551.512524 361.751836,552.075063 362.597892,552.783922 C363.437524,553.487397 364.102638,554.299061 364.598592,555.223339 C365.078436,556.117594 365.314872,557.031097 365.314872,557.977121 C365.314872,559.028172 365.076683,559.991755 364.598592,560.882743 C364.100223,561.811521 363.444021,562.626116 362.625549,563.330912 C361.812245,564.031257 360.847224,564.57621 359.723699,564.966004 C358.590184,565.359265 357.39771,565.556081 356.141592,565.556081 L346.840976,565.556081 L346.896856,550.474081 Z" id="Combined-Shape"></path>
            <polygon id="Path" points="232.968635 572.718641 232.968635 571.718641 232.968635 566.556081 232.968635 565.556081 231.968635 565.556081 210.724075 565.81114 210.700301 550.550001 235.688715 550.550001 236.688715 550.550001 236.688715 549.550001 236.688715 544.539281 236.688715 543.539281 235.688715 543.539281 204.637436 543.539281 203.635987 543.539281 203.637437 544.540728 203.713357 597.001447 203.714802 598 204.713356 598 235.764635 598 236.779449 598 236.764527 596.985296 236.688607 591.822736 236.674117 590.83744 235.688715 590.83744 210.724075 590.720347 210.724075 581.596605 210.726913 572.718641 231.968635 572.718641"></polygon>
            <path d="M142.41291,590.375212 L142.476081,590.090946 L142.627921,589.407666 L142.651733,589.190736 L142.651733,569.603376 L142.651733,568.603376 L141.651733,568.603376 L122.595814,568.603376 L121.595814,568.603376 L121.595814,569.603376 L121.595814,574.614096 L121.595814,575.614096 L122.595814,575.614096 L135.489174,575.617981 C135.489174,575.617981 135.609911,586.971555 135.51063,587.060182 C134.104463,588.315469 132.534002,589.29838 130.795217,590.011727 C128.943084,590.771576 126.971631,591.151616 124.873414,591.151616 C122.445689,591.151616 120.155325,590.617593 117.990403,589.547027 C115.804183,588.465929 113.896257,587.001986 112.261048,585.150352 C110.6207,583.2929 109.315543,581.105553 108.34516,578.582557 C107.377613,576.066936 106.893414,573.379631 106.893414,570.514416 C106.893414,567.598922 107.37753,564.899977 108.343989,562.411346 C109.314321,559.912741 110.619781,557.736973 112.261048,555.87848 C113.894384,554.028967 115.799555,552.57912 117.982436,551.523661 C120.149304,550.475944 122.44253,549.953137 124.873414,549.953137 C127.203664,549.953137 129.474627,550.47629 131.696105,551.527312 C133.93603,552.587061 135.974213,554.082533 137.814014,556.019166 L138.52065,556.762993 L139.24612,556.037523 L142.81436,552.469283 L143.507184,551.77646 L142.828641,551.069645 C140.31827,548.454675 137.539317,546.409785 134.494483,544.939865 C131.42408,543.457602 128.213496,542.714657 124.873414,542.714657 C121.432462,542.714657 118.182658,543.457469 115.135407,544.941348 C112.108515,546.415313 109.461008,548.417407 107.198419,550.943088 C104.940821,553.463198 103.157435,556.400539 101.849237,559.749526 C100.537876,563.10661 99.8826945,566.697006 99.8826945,570.514416 C99.8826945,574.281629 100.538045,577.846734 101.849237,581.203386 C103.157435,584.552373 104.940821,587.489714 107.198419,590.009824 C109.462513,592.537184 112.112218,594.527759 115.141759,595.97667 C118.18744,597.4333 121.434962,598.162335 124.873414,598.162335 C128.205054,598.162335 131.346354,597.48636 134.287434,596.135052 C137.205364,594.794382 139.846427,592.941695 142.207,590.581122 L142.41291,590.375212 Z" id="Path"></path>
            <path d="M37.9167212,543.539281 L37.6273969,544.035862 L22.7152493,569.716438 L7.38788364,544.02691 L7.09694574,543.539281 L6.52911984,543.539281 L1.89799995,543.539281 L0.896551729,543.539281 L0.898001001,544.540728 L0.973921,597.001447 L0.975366083,598 L1.97391995,598 L7.06055983,598 L8.06055983,598 L8.06055983,597 L8.06055983,575.059121 C8.06055983,571.817306 8.04789691,568.524948 8.02257114,565.181945 C7.99728326,561.843945 8.01404233,559.102803 8.01404233,559.102803 L20.1689677,579.667622 L20.4592806,580.1588 L21.0298395,580.1588 L24.2184794,580.1588 L24.8046033,580.1588 L25.0909854,579.647404 C27.2143262,575.855724 29.4768543,571.88682 31.8786251,567.740605 C34.2802494,563.594643 37.0425433,558.957507 37.0425433,558.957507 L37.1118407,597.001821 L37.1136589,598 L38.1118391,598 L43.274399,598 L44.274399,598 L44.274399,597 L44.274399,544.539281 L44.274399,543.539281 L43.274399,543.539281 L38.4914391,543.539281 L37.9167212,543.539281 Z" id="Path"></path>
        </g>
    </g>
</svg>